G04 EAGLE Gerber RS-274X export*
G75*
%MOMM*%
%FSLAX34Y34*%
%LPD*%
%AMOC8*
5,1,8,0,0,1.08239X$1,22.5*%
G01*
%ADD10C,0.222250*%
%ADD11C,0.158750*%
%ADD12C,0.200000*%
%ADD13C,2.540000*%
%ADD14R,1.350000X0.600000*%
%ADD15R,2.000000X1.200000*%
%ADD16R,1.524000X1.524000*%
%ADD17C,1.524000*%
%ADD18R,0.635000X1.270000*%
%ADD19C,0.203200*%
%ADD20R,1.000000X1.100000*%
%ADD21C,2.250000*%
%ADD22C,1.950000*%
%ADD23R,0.600000X2.286000*%
%ADD24C,0.609600*%
%ADD25C,0.304800*%
%ADD26C,2.540000*%

G36*
X62359Y5221D02*
X62359Y5221D01*
X62445Y5224D01*
X62490Y5240D01*
X62537Y5248D01*
X62614Y5285D01*
X62695Y5314D01*
X62733Y5342D01*
X62776Y5363D01*
X62839Y5422D01*
X62907Y5473D01*
X62936Y5512D01*
X62971Y5545D01*
X63013Y5619D01*
X63063Y5688D01*
X63079Y5734D01*
X63103Y5775D01*
X63121Y5859D01*
X63149Y5940D01*
X63147Y5976D01*
X63160Y6035D01*
X63139Y6300D01*
X63133Y6315D01*
X63132Y6326D01*
X62939Y7045D01*
X62939Y13223D01*
X72211Y13223D01*
X72312Y13238D01*
X72415Y13246D01*
X72443Y13258D01*
X72474Y13263D01*
X72566Y13307D01*
X72661Y13345D01*
X72685Y13365D01*
X72713Y13378D01*
X72788Y13448D01*
X72868Y13513D01*
X72885Y13539D01*
X72907Y13560D01*
X72958Y13649D01*
X73015Y13734D01*
X73020Y13758D01*
X73039Y13790D01*
X73097Y14050D01*
X73094Y14088D01*
X73099Y14111D01*
X73099Y15001D01*
X73101Y15001D01*
X73101Y14111D01*
X73116Y14009D01*
X73125Y13907D01*
X73136Y13879D01*
X73141Y13848D01*
X73185Y13756D01*
X73224Y13660D01*
X73243Y13637D01*
X73256Y13609D01*
X73326Y13534D01*
X73391Y13454D01*
X73417Y13437D01*
X73438Y13415D01*
X73527Y13364D01*
X73612Y13307D01*
X73636Y13301D01*
X73669Y13283D01*
X73928Y13225D01*
X73966Y13228D01*
X73989Y13223D01*
X83261Y13223D01*
X83261Y7045D01*
X83068Y6326D01*
X83058Y6241D01*
X83040Y6157D01*
X83044Y6109D01*
X83038Y6062D01*
X83054Y5977D01*
X83061Y5892D01*
X83079Y5848D01*
X83088Y5801D01*
X83128Y5725D01*
X83160Y5645D01*
X83191Y5608D01*
X83213Y5566D01*
X83274Y5506D01*
X83328Y5439D01*
X83368Y5412D01*
X83402Y5379D01*
X83478Y5339D01*
X83549Y5292D01*
X83584Y5284D01*
X83637Y5256D01*
X83899Y5208D01*
X83915Y5210D01*
X83926Y5208D01*
X93115Y5208D01*
X93206Y5222D01*
X93299Y5227D01*
X93337Y5241D01*
X93378Y5248D01*
X93461Y5288D01*
X93548Y5320D01*
X93580Y5345D01*
X93617Y5363D01*
X93685Y5426D01*
X93758Y5483D01*
X93781Y5517D01*
X93811Y5545D01*
X93857Y5625D01*
X93910Y5700D01*
X93923Y5740D01*
X93943Y5775D01*
X93963Y5866D01*
X93992Y5953D01*
X93992Y5995D01*
X94001Y6035D01*
X93994Y6127D01*
X93995Y6219D01*
X93983Y6259D01*
X93980Y6300D01*
X93945Y6385D01*
X93919Y6474D01*
X93896Y6508D01*
X93881Y6547D01*
X93822Y6618D01*
X93771Y6695D01*
X93746Y6713D01*
X93713Y6753D01*
X93492Y6900D01*
X93472Y6905D01*
X93455Y6917D01*
X93176Y7032D01*
X90532Y9676D01*
X89101Y13130D01*
X89101Y16870D01*
X90532Y20324D01*
X93176Y22968D01*
X94649Y23578D01*
X94702Y23610D01*
X94760Y23633D01*
X94815Y23678D01*
X94877Y23715D01*
X94918Y23761D01*
X94966Y23801D01*
X95006Y23860D01*
X95053Y23914D01*
X95079Y23970D01*
X95113Y24022D01*
X95124Y24069D01*
X95163Y24156D01*
X95190Y24368D01*
X95197Y24399D01*
X95197Y62963D01*
X95194Y62983D01*
X95196Y63004D01*
X95178Y63098D01*
X95174Y63148D01*
X95167Y63165D01*
X95157Y63226D01*
X95148Y63244D01*
X95144Y63265D01*
X95120Y63304D01*
X95042Y63465D01*
X94965Y63547D01*
X94937Y63591D01*
X93673Y64855D01*
X93673Y66642D01*
X93670Y66663D01*
X93672Y66684D01*
X93650Y66794D01*
X93633Y66905D01*
X93624Y66924D01*
X93620Y66944D01*
X93596Y66983D01*
X93518Y67144D01*
X93441Y67227D01*
X93413Y67270D01*
X65694Y94989D01*
X65677Y95002D01*
X65664Y95018D01*
X65570Y95080D01*
X65480Y95147D01*
X65460Y95154D01*
X65443Y95165D01*
X65398Y95175D01*
X65229Y95234D01*
X65116Y95238D01*
X65066Y95249D01*
X47654Y95249D01*
X45459Y97444D01*
X37083Y105820D01*
X37083Y175457D01*
X37080Y175478D01*
X37082Y175499D01*
X37060Y175609D01*
X37043Y175720D01*
X37034Y175739D01*
X37030Y175759D01*
X37006Y175798D01*
X36928Y175959D01*
X36851Y176042D01*
X36823Y176085D01*
X29484Y183425D01*
X29467Y183437D01*
X29453Y183453D01*
X29360Y183516D01*
X29270Y183582D01*
X29250Y183589D01*
X29232Y183601D01*
X29188Y183611D01*
X29019Y183670D01*
X28906Y183674D01*
X28856Y183685D01*
X24668Y183685D01*
X23161Y185192D01*
X23161Y193736D01*
X24668Y195243D01*
X31562Y195243D01*
X33069Y193736D01*
X33069Y189549D01*
X33072Y189528D01*
X33070Y189507D01*
X33092Y189397D01*
X33109Y189286D01*
X33118Y189267D01*
X33122Y189247D01*
X33146Y189208D01*
X33224Y189047D01*
X33301Y188964D01*
X33329Y188921D01*
X43689Y178561D01*
X43689Y149870D01*
X43702Y149785D01*
X43705Y149699D01*
X43721Y149654D01*
X43729Y149607D01*
X43766Y149530D01*
X43795Y149449D01*
X43823Y149411D01*
X43844Y149367D01*
X43903Y149305D01*
X43954Y149236D01*
X43993Y149208D01*
X44026Y149173D01*
X44100Y149131D01*
X44169Y149080D01*
X44215Y149065D01*
X44256Y149041D01*
X44340Y149023D01*
X44421Y148995D01*
X44457Y148997D01*
X44516Y148983D01*
X44781Y149005D01*
X44796Y149011D01*
X44807Y149012D01*
X44915Y149041D01*
X50501Y149041D01*
X50501Y144111D01*
X50516Y144010D01*
X50524Y143907D01*
X50536Y143879D01*
X50540Y143848D01*
X50585Y143756D01*
X50623Y143661D01*
X50643Y143637D01*
X50656Y143609D01*
X50726Y143534D01*
X50791Y143454D01*
X50817Y143437D01*
X50838Y143415D01*
X50927Y143364D01*
X51012Y143307D01*
X51036Y143302D01*
X51068Y143283D01*
X51328Y143225D01*
X51366Y143228D01*
X51389Y143223D01*
X51723Y143223D01*
X51723Y142889D01*
X51738Y142787D01*
X51747Y142685D01*
X51758Y142657D01*
X51763Y142626D01*
X51807Y142534D01*
X51846Y142438D01*
X51865Y142415D01*
X51878Y142387D01*
X51949Y142312D01*
X52013Y142232D01*
X52039Y142215D01*
X52060Y142193D01*
X52149Y142142D01*
X52234Y142085D01*
X52258Y142079D01*
X52291Y142061D01*
X52550Y142003D01*
X52588Y142006D01*
X52611Y142001D01*
X61291Y142001D01*
X61291Y140165D01*
X61118Y139519D01*
X60783Y138940D01*
X60432Y138589D01*
X60372Y138507D01*
X60305Y138428D01*
X60293Y138400D01*
X60275Y138375D01*
X60241Y138279D01*
X60201Y138184D01*
X60197Y138153D01*
X60187Y138124D01*
X60184Y138022D01*
X60173Y137920D01*
X60179Y137889D01*
X60178Y137859D01*
X60205Y137760D01*
X60225Y137659D01*
X60238Y137639D01*
X60248Y137602D01*
X60391Y137378D01*
X60420Y137353D01*
X60432Y137333D01*
X60529Y137237D01*
X60529Y129763D01*
X59894Y129128D01*
X59833Y129046D01*
X59766Y128967D01*
X59754Y128939D01*
X59736Y128914D01*
X59702Y128817D01*
X59662Y128723D01*
X59659Y128692D01*
X59649Y128663D01*
X59645Y128561D01*
X59634Y128458D01*
X59640Y128428D01*
X59639Y128397D01*
X59666Y128298D01*
X59686Y128198D01*
X59699Y128178D01*
X59709Y128141D01*
X59852Y127917D01*
X59881Y127892D01*
X59894Y127872D01*
X60529Y127237D01*
X60529Y127183D01*
X60544Y127081D01*
X60552Y126979D01*
X60564Y126951D01*
X60569Y126920D01*
X60613Y126828D01*
X60651Y126732D01*
X60671Y126709D01*
X60684Y126681D01*
X60754Y126606D01*
X60819Y126526D01*
X60845Y126509D01*
X60866Y126487D01*
X60955Y126436D01*
X61040Y126379D01*
X61064Y126373D01*
X61096Y126355D01*
X61356Y126297D01*
X61394Y126300D01*
X61417Y126295D01*
X113919Y126295D01*
X114021Y126310D01*
X114123Y126318D01*
X114151Y126330D01*
X114182Y126335D01*
X114274Y126379D01*
X114370Y126417D01*
X114393Y126437D01*
X114421Y126450D01*
X114496Y126520D01*
X114576Y126585D01*
X114593Y126611D01*
X114615Y126632D01*
X114666Y126721D01*
X114723Y126806D01*
X114729Y126830D01*
X114747Y126862D01*
X114805Y127122D01*
X114802Y127160D01*
X114807Y127183D01*
X114807Y128951D01*
X114804Y128971D01*
X114806Y128992D01*
X114784Y129103D01*
X114767Y129214D01*
X114758Y129232D01*
X114754Y129253D01*
X114730Y129292D01*
X114652Y129453D01*
X114575Y129535D01*
X114547Y129579D01*
X112775Y131351D01*
X112775Y135349D01*
X115603Y138177D01*
X119601Y138177D01*
X122429Y135349D01*
X122429Y131351D01*
X120657Y129579D01*
X120644Y129562D01*
X120628Y129549D01*
X120566Y129455D01*
X120499Y129365D01*
X120492Y129345D01*
X120481Y129328D01*
X120471Y129283D01*
X120412Y129114D01*
X120408Y129001D01*
X120397Y128951D01*
X120397Y109197D01*
X120412Y109095D01*
X120420Y108993D01*
X120432Y108965D01*
X120437Y108934D01*
X120481Y108842D01*
X120519Y108746D01*
X120539Y108723D01*
X120552Y108695D01*
X120622Y108620D01*
X120687Y108540D01*
X120713Y108523D01*
X120734Y108501D01*
X120823Y108450D01*
X120908Y108393D01*
X120932Y108387D01*
X120964Y108369D01*
X121173Y108322D01*
X122229Y107267D01*
X122229Y82933D01*
X121187Y81891D01*
X121133Y81891D01*
X121031Y81876D01*
X120929Y81868D01*
X120901Y81856D01*
X120870Y81851D01*
X120778Y81807D01*
X120682Y81769D01*
X120659Y81749D01*
X120631Y81736D01*
X120556Y81666D01*
X120476Y81601D01*
X120459Y81575D01*
X120437Y81554D01*
X120386Y81465D01*
X120329Y81380D01*
X120323Y81356D01*
X120305Y81324D01*
X120247Y81064D01*
X120250Y81026D01*
X120245Y81003D01*
X120245Y24988D01*
X120246Y24978D01*
X120245Y24968D01*
X120266Y24847D01*
X120285Y24726D01*
X120289Y24716D01*
X120291Y24706D01*
X120347Y24597D01*
X120400Y24486D01*
X120407Y24479D01*
X120412Y24469D01*
X120498Y24382D01*
X120582Y24292D01*
X120591Y24287D01*
X120598Y24279D01*
X120706Y24221D01*
X120812Y24160D01*
X120823Y24158D01*
X120832Y24153D01*
X120952Y24129D01*
X121072Y24102D01*
X121082Y24103D01*
X121093Y24101D01*
X121123Y24106D01*
X121337Y24124D01*
X121425Y24159D01*
X121473Y24168D01*
X122030Y24399D01*
X125770Y24399D01*
X129224Y22968D01*
X131868Y20324D01*
X133299Y16870D01*
X133299Y13130D01*
X131868Y9676D01*
X129224Y7032D01*
X128945Y6917D01*
X128866Y6869D01*
X128783Y6829D01*
X128753Y6801D01*
X128717Y6779D01*
X128656Y6710D01*
X128589Y6647D01*
X128568Y6612D01*
X128541Y6581D01*
X128502Y6497D01*
X128457Y6417D01*
X128448Y6376D01*
X128431Y6339D01*
X128419Y6247D01*
X128399Y6157D01*
X128402Y6116D01*
X128397Y6075D01*
X128413Y5984D01*
X128420Y5892D01*
X128436Y5854D01*
X128443Y5813D01*
X128485Y5731D01*
X128519Y5645D01*
X128545Y5613D01*
X128564Y5577D01*
X128629Y5511D01*
X128687Y5439D01*
X128721Y5416D01*
X128750Y5387D01*
X128831Y5343D01*
X128908Y5292D01*
X128939Y5285D01*
X128984Y5260D01*
X129245Y5209D01*
X129265Y5212D01*
X129285Y5208D01*
X143915Y5208D01*
X144006Y5222D01*
X144099Y5227D01*
X144137Y5241D01*
X144178Y5248D01*
X144261Y5288D01*
X144348Y5320D01*
X144380Y5345D01*
X144417Y5363D01*
X144485Y5426D01*
X144558Y5483D01*
X144581Y5517D01*
X144611Y5545D01*
X144657Y5625D01*
X144710Y5700D01*
X144723Y5740D01*
X144743Y5775D01*
X144763Y5866D01*
X144792Y5953D01*
X144792Y5995D01*
X144801Y6035D01*
X144794Y6127D01*
X144795Y6219D01*
X144783Y6259D01*
X144780Y6300D01*
X144745Y6385D01*
X144719Y6474D01*
X144696Y6508D01*
X144681Y6547D01*
X144622Y6618D01*
X144571Y6695D01*
X144546Y6713D01*
X144513Y6753D01*
X144292Y6900D01*
X144272Y6905D01*
X144255Y6917D01*
X143976Y7032D01*
X141332Y9676D01*
X139901Y13130D01*
X139901Y16870D01*
X140722Y18850D01*
X140737Y18911D01*
X140761Y18968D01*
X140768Y19039D01*
X140786Y19108D01*
X140782Y19170D01*
X140788Y19232D01*
X140774Y19302D01*
X140770Y19374D01*
X140749Y19432D01*
X140736Y19493D01*
X140711Y19533D01*
X140677Y19623D01*
X140546Y19792D01*
X140529Y19818D01*
X140055Y20292D01*
X140055Y81003D01*
X140040Y81105D01*
X140032Y81207D01*
X140020Y81235D01*
X140015Y81266D01*
X139971Y81358D01*
X139933Y81454D01*
X139913Y81477D01*
X139900Y81505D01*
X139830Y81580D01*
X139765Y81660D01*
X139739Y81677D01*
X139718Y81699D01*
X139629Y81750D01*
X139544Y81807D01*
X139520Y81813D01*
X139488Y81831D01*
X139228Y81889D01*
X139190Y81886D01*
X139167Y81891D01*
X139113Y81891D01*
X138071Y82933D01*
X138071Y107267D01*
X139123Y108318D01*
X139189Y108336D01*
X139270Y108349D01*
X139316Y108371D01*
X139366Y108385D01*
X139435Y108429D01*
X139509Y108464D01*
X139547Y108499D01*
X139590Y108527D01*
X139643Y108590D01*
X139703Y108646D01*
X139729Y108690D01*
X139762Y108730D01*
X139795Y108805D01*
X139835Y108876D01*
X139846Y108927D01*
X139867Y108974D01*
X139875Y109056D01*
X139893Y109136D01*
X139889Y109187D01*
X139894Y109239D01*
X139878Y109319D01*
X139871Y109401D01*
X139852Y109449D01*
X139842Y109499D01*
X139814Y109543D01*
X139772Y109648D01*
X139659Y109787D01*
X139635Y109825D01*
X138175Y111285D01*
X138175Y115283D01*
X141003Y118111D01*
X143508Y118111D01*
X143529Y118114D01*
X143550Y118112D01*
X143661Y118134D01*
X143771Y118151D01*
X143790Y118160D01*
X143811Y118164D01*
X143849Y118188D01*
X144011Y118266D01*
X144093Y118343D01*
X144137Y118371D01*
X170163Y144397D01*
X172060Y146295D01*
X211783Y146295D01*
X211885Y146310D01*
X211987Y146318D01*
X212015Y146330D01*
X212046Y146335D01*
X212138Y146379D01*
X212234Y146417D01*
X212257Y146437D01*
X212285Y146450D01*
X212360Y146520D01*
X212440Y146585D01*
X212457Y146611D01*
X212479Y146632D01*
X212530Y146721D01*
X212587Y146806D01*
X212593Y146830D01*
X212611Y146862D01*
X212669Y147122D01*
X212666Y147160D01*
X212671Y147183D01*
X212671Y147237D01*
X213713Y148279D01*
X217517Y148279D01*
X217619Y148294D01*
X217721Y148302D01*
X217749Y148314D01*
X217780Y148319D01*
X217872Y148363D01*
X217968Y148401D01*
X217991Y148421D01*
X218019Y148434D01*
X218094Y148504D01*
X218174Y148569D01*
X218191Y148595D01*
X218213Y148616D01*
X218264Y148705D01*
X218321Y148790D01*
X218327Y148814D01*
X218345Y148846D01*
X218403Y149106D01*
X218400Y149144D01*
X218405Y149167D01*
X218405Y164894D01*
X218390Y164996D01*
X218382Y165098D01*
X218370Y165126D01*
X218365Y165157D01*
X218321Y165249D01*
X218283Y165345D01*
X218263Y165368D01*
X218250Y165396D01*
X218180Y165471D01*
X218115Y165551D01*
X218089Y165568D01*
X218068Y165590D01*
X217979Y165641D01*
X217894Y165698D01*
X217870Y165704D01*
X217838Y165722D01*
X217578Y165780D01*
X217540Y165777D01*
X217517Y165782D01*
X211135Y165782D01*
X209442Y167475D01*
X209442Y176537D01*
X211135Y178230D01*
X220197Y178230D01*
X221890Y176537D01*
X221890Y170103D01*
X221893Y170082D01*
X221891Y170061D01*
X221913Y169951D01*
X221930Y169840D01*
X221939Y169821D01*
X221943Y169800D01*
X221967Y169762D01*
X222045Y169600D01*
X222122Y169518D01*
X222150Y169474D01*
X222658Y168966D01*
X222699Y168936D01*
X222735Y168898D01*
X222806Y168857D01*
X222872Y168809D01*
X222921Y168792D01*
X222965Y168766D01*
X223045Y168748D01*
X223123Y168721D01*
X223175Y168720D01*
X223225Y168708D01*
X223307Y168715D01*
X223389Y168712D01*
X223438Y168726D01*
X223490Y168730D01*
X223566Y168760D01*
X223645Y168782D01*
X223689Y168810D01*
X223737Y168829D01*
X223800Y168881D01*
X223869Y168925D01*
X223903Y168964D01*
X223943Y168997D01*
X223988Y169065D01*
X224041Y169127D01*
X224062Y169175D01*
X224090Y169218D01*
X224102Y169268D01*
X224146Y169372D01*
X224164Y169550D01*
X224174Y169594D01*
X224174Y176537D01*
X225867Y178230D01*
X234929Y178230D01*
X236622Y176537D01*
X236622Y170103D01*
X236625Y170082D01*
X236623Y170061D01*
X236645Y169950D01*
X236662Y169840D01*
X236671Y169821D01*
X236675Y169800D01*
X236699Y169762D01*
X236777Y169600D01*
X236854Y169518D01*
X236882Y169474D01*
X238253Y168104D01*
X238253Y141844D01*
X229989Y133581D01*
X229976Y133564D01*
X229960Y133550D01*
X229898Y133457D01*
X229831Y133367D01*
X229824Y133347D01*
X229813Y133329D01*
X229803Y133285D01*
X229744Y133116D01*
X229740Y133003D01*
X229729Y132952D01*
X229729Y129763D01*
X229094Y129128D01*
X229033Y129045D01*
X228966Y128967D01*
X228954Y128939D01*
X228936Y128914D01*
X228902Y128817D01*
X228862Y128723D01*
X228859Y128692D01*
X228849Y128663D01*
X228845Y128560D01*
X228834Y128458D01*
X228840Y128428D01*
X228839Y128397D01*
X228866Y128298D01*
X228886Y128198D01*
X228899Y128177D01*
X228909Y128141D01*
X229052Y127917D01*
X229081Y127892D01*
X229094Y127872D01*
X229729Y127237D01*
X229729Y119763D01*
X229632Y119667D01*
X229571Y119584D01*
X229505Y119506D01*
X229493Y119478D01*
X229475Y119453D01*
X229441Y119356D01*
X229401Y119262D01*
X229397Y119231D01*
X229387Y119202D01*
X229384Y119099D01*
X229373Y118997D01*
X229379Y118967D01*
X229378Y118936D01*
X229405Y118837D01*
X229425Y118736D01*
X229438Y118716D01*
X229448Y118680D01*
X229591Y118455D01*
X229620Y118431D01*
X229632Y118411D01*
X229983Y118060D01*
X230318Y117481D01*
X230491Y116835D01*
X230491Y114999D01*
X221811Y114999D01*
X221710Y114984D01*
X221607Y114976D01*
X221579Y114964D01*
X221548Y114959D01*
X221456Y114915D01*
X221361Y114877D01*
X221337Y114857D01*
X221309Y114844D01*
X221234Y114774D01*
X221203Y114748D01*
X221187Y114768D01*
X221161Y114785D01*
X221140Y114807D01*
X221051Y114858D01*
X220966Y114915D01*
X220942Y114921D01*
X220909Y114939D01*
X220650Y114997D01*
X220612Y114994D01*
X220589Y114999D01*
X211909Y114999D01*
X211909Y116835D01*
X212082Y117481D01*
X212417Y118060D01*
X212768Y118411D01*
X212828Y118493D01*
X212895Y118572D01*
X212907Y118600D01*
X212925Y118625D01*
X212959Y118721D01*
X212999Y118816D01*
X213003Y118847D01*
X213013Y118876D01*
X213016Y118978D01*
X213027Y119080D01*
X213021Y119111D01*
X213022Y119141D01*
X212995Y119240D01*
X212975Y119341D01*
X212962Y119361D01*
X212952Y119398D01*
X212809Y119622D01*
X212780Y119647D01*
X212768Y119667D01*
X212497Y119937D01*
X212480Y119950D01*
X212467Y119966D01*
X212374Y120028D01*
X212283Y120095D01*
X212264Y120102D01*
X212246Y120113D01*
X212202Y120123D01*
X212032Y120182D01*
X211920Y120186D01*
X211869Y120197D01*
X192800Y120197D01*
X192779Y120194D01*
X192758Y120196D01*
X192648Y120174D01*
X192537Y120157D01*
X192518Y120148D01*
X192498Y120144D01*
X192459Y120120D01*
X192298Y120042D01*
X192215Y119965D01*
X192172Y119937D01*
X184269Y112034D01*
X184256Y112017D01*
X184240Y112004D01*
X184178Y111910D01*
X184111Y111820D01*
X184104Y111800D01*
X184093Y111783D01*
X184083Y111738D01*
X184024Y111569D01*
X184020Y111456D01*
X184009Y111406D01*
X184009Y109619D01*
X182745Y108355D01*
X182732Y108338D01*
X182716Y108325D01*
X182654Y108231D01*
X182587Y108141D01*
X182580Y108121D01*
X182569Y108104D01*
X182559Y108059D01*
X182500Y107890D01*
X182496Y107777D01*
X182485Y107727D01*
X182485Y102300D01*
X182500Y102198D01*
X182508Y102096D01*
X182520Y102068D01*
X182525Y102037D01*
X182569Y101945D01*
X182607Y101849D01*
X182627Y101826D01*
X182640Y101798D01*
X182710Y101723D01*
X182775Y101643D01*
X182801Y101626D01*
X182822Y101604D01*
X182911Y101553D01*
X182996Y101496D01*
X183020Y101490D01*
X183052Y101472D01*
X183312Y101414D01*
X183350Y101417D01*
X183373Y101412D01*
X183713Y101412D01*
X185406Y99719D01*
X185406Y90657D01*
X183713Y88964D01*
X174651Y88964D01*
X172958Y90657D01*
X172958Y90997D01*
X172943Y91099D01*
X172935Y91201D01*
X172923Y91229D01*
X172918Y91260D01*
X172874Y91352D01*
X172836Y91448D01*
X172816Y91471D01*
X172803Y91499D01*
X172733Y91574D01*
X172668Y91654D01*
X172642Y91671D01*
X172621Y91693D01*
X172532Y91744D01*
X172447Y91801D01*
X172423Y91807D01*
X172391Y91825D01*
X172131Y91883D01*
X172093Y91880D01*
X172070Y91885D01*
X161217Y91885D01*
X161115Y91870D01*
X161013Y91862D01*
X160985Y91850D01*
X160954Y91845D01*
X160862Y91801D01*
X160766Y91763D01*
X160743Y91743D01*
X160715Y91730D01*
X160640Y91660D01*
X160560Y91595D01*
X160543Y91569D01*
X160521Y91548D01*
X160470Y91459D01*
X160413Y91374D01*
X160407Y91350D01*
X160389Y91318D01*
X160331Y91058D01*
X160334Y91020D01*
X160329Y90997D01*
X160329Y82933D01*
X159287Y81891D01*
X151813Y81891D01*
X150771Y82933D01*
X150771Y107267D01*
X151813Y108309D01*
X159287Y108309D01*
X160329Y107267D01*
X160329Y99379D01*
X160344Y99277D01*
X160352Y99175D01*
X160364Y99147D01*
X160369Y99116D01*
X160413Y99024D01*
X160451Y98928D01*
X160471Y98905D01*
X160484Y98877D01*
X160554Y98802D01*
X160619Y98722D01*
X160645Y98705D01*
X160666Y98683D01*
X160755Y98632D01*
X160840Y98575D01*
X160864Y98569D01*
X160896Y98551D01*
X161156Y98493D01*
X161194Y98496D01*
X161217Y98491D01*
X172070Y98491D01*
X172172Y98506D01*
X172274Y98514D01*
X172302Y98526D01*
X172333Y98531D01*
X172425Y98575D01*
X172521Y98613D01*
X172544Y98633D01*
X172572Y98646D01*
X172647Y98716D01*
X172727Y98781D01*
X172744Y98807D01*
X172766Y98828D01*
X172817Y98917D01*
X172874Y99002D01*
X172880Y99026D01*
X172898Y99058D01*
X172956Y99318D01*
X172953Y99356D01*
X172958Y99379D01*
X172958Y99719D01*
X174651Y101412D01*
X174991Y101412D01*
X175093Y101427D01*
X175195Y101435D01*
X175223Y101447D01*
X175254Y101452D01*
X175346Y101496D01*
X175442Y101534D01*
X175465Y101554D01*
X175493Y101567D01*
X175568Y101637D01*
X175648Y101702D01*
X175665Y101728D01*
X175687Y101749D01*
X175738Y101838D01*
X175795Y101923D01*
X175801Y101947D01*
X175819Y101979D01*
X175877Y102239D01*
X175874Y102277D01*
X175879Y102300D01*
X175879Y107727D01*
X175876Y107747D01*
X175878Y107768D01*
X175856Y107879D01*
X175839Y107990D01*
X175830Y108008D01*
X175826Y108029D01*
X175802Y108068D01*
X175724Y108229D01*
X175647Y108311D01*
X175619Y108355D01*
X174355Y109619D01*
X174355Y113617D01*
X177183Y116445D01*
X178970Y116445D01*
X178991Y116448D01*
X179012Y116446D01*
X179122Y116468D01*
X179233Y116485D01*
X179252Y116494D01*
X179272Y116498D01*
X179311Y116522D01*
X179472Y116600D01*
X179555Y116677D01*
X179598Y116705D01*
X189696Y126803D01*
X211869Y126803D01*
X211890Y126806D01*
X211911Y126804D01*
X212021Y126826D01*
X212132Y126843D01*
X212151Y126852D01*
X212172Y126856D01*
X212210Y126880D01*
X212371Y126958D01*
X212454Y127035D01*
X212497Y127063D01*
X213306Y127872D01*
X213367Y127954D01*
X213434Y128033D01*
X213446Y128061D01*
X213464Y128086D01*
X213498Y128183D01*
X213538Y128277D01*
X213541Y128308D01*
X213551Y128337D01*
X213555Y128439D01*
X213566Y128542D01*
X213560Y128572D01*
X213561Y128603D01*
X213534Y128702D01*
X213514Y128802D01*
X213501Y128822D01*
X213491Y128859D01*
X213348Y129083D01*
X213319Y129108D01*
X213306Y129128D01*
X212671Y129763D01*
X212671Y129817D01*
X212656Y129919D01*
X212648Y130021D01*
X212636Y130049D01*
X212631Y130080D01*
X212587Y130172D01*
X212549Y130268D01*
X212529Y130291D01*
X212516Y130319D01*
X212446Y130394D01*
X212381Y130474D01*
X212355Y130491D01*
X212334Y130513D01*
X212245Y130564D01*
X212160Y130621D01*
X212136Y130627D01*
X212104Y130645D01*
X211844Y130703D01*
X211806Y130700D01*
X211783Y130705D01*
X186293Y130705D01*
X186272Y130702D01*
X186251Y130704D01*
X186141Y130682D01*
X186030Y130665D01*
X186011Y130656D01*
X185991Y130652D01*
X185952Y130628D01*
X185791Y130550D01*
X185709Y130473D01*
X185665Y130445D01*
X183803Y128583D01*
X179805Y128583D01*
X176977Y131411D01*
X176977Y135409D01*
X179805Y138237D01*
X183803Y138237D01*
X185485Y136555D01*
X185502Y136542D01*
X185515Y136526D01*
X185609Y136464D01*
X185699Y136397D01*
X185719Y136390D01*
X185736Y136379D01*
X185781Y136369D01*
X185950Y136310D01*
X186063Y136306D01*
X186113Y136295D01*
X211783Y136295D01*
X211885Y136310D01*
X211987Y136318D01*
X212015Y136330D01*
X212046Y136335D01*
X212138Y136379D01*
X212234Y136417D01*
X212257Y136437D01*
X212285Y136450D01*
X212360Y136520D01*
X212440Y136585D01*
X212457Y136611D01*
X212479Y136632D01*
X212530Y136721D01*
X212587Y136806D01*
X212593Y136830D01*
X212611Y136862D01*
X212669Y137122D01*
X212666Y137160D01*
X212671Y137183D01*
X212671Y137237D01*
X213306Y137872D01*
X213367Y137954D01*
X213434Y138033D01*
X213446Y138061D01*
X213464Y138086D01*
X213498Y138183D01*
X213538Y138277D01*
X213541Y138308D01*
X213551Y138337D01*
X213555Y138439D01*
X213566Y138542D01*
X213560Y138572D01*
X213561Y138603D01*
X213534Y138702D01*
X213514Y138802D01*
X213501Y138822D01*
X213491Y138859D01*
X213348Y139083D01*
X213319Y139108D01*
X213306Y139128D01*
X212671Y139763D01*
X212671Y139817D01*
X212656Y139919D01*
X212648Y140021D01*
X212636Y140049D01*
X212631Y140080D01*
X212587Y140172D01*
X212549Y140268D01*
X212529Y140291D01*
X212516Y140319D01*
X212446Y140394D01*
X212381Y140474D01*
X212355Y140491D01*
X212334Y140513D01*
X212245Y140564D01*
X212160Y140621D01*
X212136Y140627D01*
X212104Y140645D01*
X211844Y140703D01*
X211806Y140700D01*
X211783Y140705D01*
X174744Y140705D01*
X174723Y140702D01*
X174702Y140704D01*
X174592Y140682D01*
X174481Y140665D01*
X174462Y140656D01*
X174441Y140652D01*
X174403Y140628D01*
X174241Y140550D01*
X174159Y140473D01*
X174115Y140445D01*
X148089Y114419D01*
X148076Y114402D01*
X148060Y114388D01*
X147998Y114295D01*
X147931Y114205D01*
X147924Y114185D01*
X147913Y114167D01*
X147903Y114123D01*
X147844Y113954D01*
X147840Y113841D01*
X147829Y113790D01*
X147829Y111285D01*
X146348Y109804D01*
X146287Y109721D01*
X146220Y109643D01*
X146208Y109615D01*
X146190Y109590D01*
X146156Y109493D01*
X146116Y109398D01*
X146113Y109368D01*
X146103Y109339D01*
X146099Y109236D01*
X146089Y109134D01*
X146095Y109104D01*
X146094Y109073D01*
X146121Y108974D01*
X146141Y108873D01*
X146154Y108853D01*
X146163Y108817D01*
X146306Y108592D01*
X146335Y108568D01*
X146348Y108548D01*
X147629Y107267D01*
X147629Y82933D01*
X146587Y81891D01*
X146533Y81891D01*
X146431Y81876D01*
X146329Y81868D01*
X146301Y81856D01*
X146270Y81851D01*
X146178Y81807D01*
X146082Y81769D01*
X146059Y81749D01*
X146031Y81736D01*
X145956Y81666D01*
X145876Y81601D01*
X145859Y81575D01*
X145837Y81554D01*
X145786Y81465D01*
X145729Y81380D01*
X145723Y81356D01*
X145705Y81324D01*
X145647Y81064D01*
X145650Y81026D01*
X145645Y81003D01*
X145645Y24988D01*
X145646Y24978D01*
X145645Y24968D01*
X145666Y24847D01*
X145685Y24726D01*
X145689Y24716D01*
X145691Y24706D01*
X145747Y24597D01*
X145800Y24486D01*
X145807Y24479D01*
X145812Y24469D01*
X145898Y24382D01*
X145982Y24292D01*
X145991Y24287D01*
X145998Y24279D01*
X146106Y24221D01*
X146212Y24160D01*
X146223Y24158D01*
X146232Y24153D01*
X146352Y24129D01*
X146472Y24102D01*
X146482Y24103D01*
X146493Y24101D01*
X146523Y24106D01*
X146737Y24124D01*
X146825Y24159D01*
X146873Y24168D01*
X147430Y24399D01*
X151170Y24399D01*
X154624Y22968D01*
X157268Y20324D01*
X158699Y16870D01*
X158699Y13130D01*
X157268Y9676D01*
X154624Y7032D01*
X154345Y6917D01*
X154266Y6869D01*
X154183Y6829D01*
X154153Y6801D01*
X154117Y6779D01*
X154056Y6710D01*
X153989Y6647D01*
X153968Y6612D01*
X153941Y6581D01*
X153902Y6497D01*
X153857Y6417D01*
X153848Y6376D01*
X153831Y6339D01*
X153819Y6247D01*
X153799Y6157D01*
X153802Y6116D01*
X153797Y6075D01*
X153813Y5984D01*
X153820Y5892D01*
X153836Y5854D01*
X153843Y5813D01*
X153885Y5731D01*
X153919Y5645D01*
X153945Y5613D01*
X153964Y5577D01*
X154029Y5511D01*
X154087Y5439D01*
X154121Y5416D01*
X154150Y5387D01*
X154231Y5343D01*
X154308Y5292D01*
X154339Y5285D01*
X154384Y5260D01*
X154645Y5209D01*
X154665Y5212D01*
X154685Y5208D01*
X169315Y5208D01*
X169406Y5222D01*
X169499Y5227D01*
X169537Y5241D01*
X169578Y5248D01*
X169661Y5288D01*
X169748Y5320D01*
X169780Y5345D01*
X169817Y5363D01*
X169885Y5426D01*
X169958Y5483D01*
X169981Y5517D01*
X170011Y5545D01*
X170057Y5625D01*
X170110Y5700D01*
X170123Y5740D01*
X170143Y5775D01*
X170163Y5866D01*
X170192Y5953D01*
X170192Y5995D01*
X170201Y6035D01*
X170194Y6127D01*
X170195Y6219D01*
X170183Y6259D01*
X170180Y6300D01*
X170145Y6385D01*
X170119Y6474D01*
X170096Y6508D01*
X170081Y6547D01*
X170022Y6618D01*
X169971Y6695D01*
X169946Y6713D01*
X169913Y6753D01*
X169692Y6900D01*
X169672Y6905D01*
X169655Y6917D01*
X169376Y7032D01*
X166732Y9676D01*
X165301Y13130D01*
X165301Y16870D01*
X166732Y20324D01*
X169376Y22968D01*
X172830Y24399D01*
X176570Y24399D01*
X180024Y22968D01*
X182668Y20324D01*
X184099Y16870D01*
X184099Y13130D01*
X182668Y9676D01*
X180024Y7032D01*
X179745Y6917D01*
X179666Y6869D01*
X179583Y6829D01*
X179553Y6801D01*
X179517Y6779D01*
X179456Y6710D01*
X179389Y6647D01*
X179368Y6612D01*
X179341Y6581D01*
X179302Y6497D01*
X179257Y6417D01*
X179248Y6376D01*
X179231Y6339D01*
X179219Y6247D01*
X179199Y6157D01*
X179202Y6116D01*
X179197Y6075D01*
X179213Y5984D01*
X179220Y5892D01*
X179236Y5854D01*
X179243Y5813D01*
X179285Y5731D01*
X179319Y5645D01*
X179345Y5613D01*
X179364Y5577D01*
X179429Y5511D01*
X179487Y5439D01*
X179521Y5416D01*
X179550Y5387D01*
X179631Y5343D01*
X179708Y5292D01*
X179739Y5285D01*
X179784Y5260D01*
X180045Y5209D01*
X180065Y5212D01*
X180085Y5208D01*
X194715Y5208D01*
X194806Y5222D01*
X194899Y5227D01*
X194937Y5241D01*
X194978Y5248D01*
X195061Y5288D01*
X195148Y5320D01*
X195180Y5345D01*
X195217Y5363D01*
X195285Y5426D01*
X195358Y5483D01*
X195381Y5517D01*
X195411Y5545D01*
X195457Y5625D01*
X195510Y5700D01*
X195523Y5740D01*
X195543Y5775D01*
X195563Y5866D01*
X195592Y5953D01*
X195592Y5995D01*
X195601Y6035D01*
X195594Y6127D01*
X195595Y6219D01*
X195583Y6259D01*
X195580Y6300D01*
X195545Y6385D01*
X195519Y6474D01*
X195496Y6508D01*
X195481Y6547D01*
X195422Y6618D01*
X195371Y6695D01*
X195346Y6713D01*
X195313Y6753D01*
X195092Y6900D01*
X195072Y6905D01*
X195055Y6917D01*
X194776Y7032D01*
X192132Y9676D01*
X190701Y13130D01*
X190701Y16870D01*
X192132Y20324D01*
X194776Y22968D01*
X196757Y23788D01*
X196810Y23820D01*
X196868Y23843D01*
X196923Y23889D01*
X196985Y23926D01*
X197026Y23972D01*
X197074Y24011D01*
X197114Y24071D01*
X197161Y24124D01*
X197187Y24181D01*
X197221Y24232D01*
X197232Y24279D01*
X197271Y24366D01*
X197298Y24578D01*
X197305Y24609D01*
X197305Y100301D01*
X197302Y100321D01*
X197304Y100342D01*
X197282Y100453D01*
X197265Y100564D01*
X197256Y100582D01*
X197252Y100603D01*
X197228Y100642D01*
X197150Y100803D01*
X197073Y100885D01*
X197045Y100929D01*
X195273Y102701D01*
X195273Y106699D01*
X198101Y109527D01*
X202099Y109527D01*
X204927Y106699D01*
X204927Y102701D01*
X203155Y100929D01*
X203142Y100912D01*
X203126Y100899D01*
X203064Y100805D01*
X202997Y100715D01*
X202990Y100695D01*
X202979Y100678D01*
X202969Y100633D01*
X202910Y100464D01*
X202906Y100353D01*
X202897Y100312D01*
X202897Y100311D01*
X202895Y100301D01*
X202895Y24609D01*
X202904Y24548D01*
X202903Y24486D01*
X202924Y24417D01*
X202935Y24346D01*
X202962Y24290D01*
X202979Y24231D01*
X203019Y24171D01*
X203050Y24107D01*
X203093Y24062D01*
X203127Y24010D01*
X203166Y23982D01*
X203232Y23913D01*
X203418Y23806D01*
X203443Y23788D01*
X205424Y22968D01*
X208068Y20324D01*
X209499Y16870D01*
X209499Y13130D01*
X208068Y9676D01*
X205424Y7032D01*
X205145Y6917D01*
X205066Y6869D01*
X204983Y6829D01*
X204953Y6801D01*
X204917Y6779D01*
X204856Y6710D01*
X204789Y6647D01*
X204768Y6612D01*
X204741Y6581D01*
X204702Y6497D01*
X204657Y6417D01*
X204648Y6376D01*
X204631Y6339D01*
X204619Y6247D01*
X204599Y6157D01*
X204602Y6116D01*
X204597Y6075D01*
X204613Y5984D01*
X204620Y5892D01*
X204636Y5854D01*
X204643Y5813D01*
X204685Y5731D01*
X204719Y5645D01*
X204745Y5613D01*
X204764Y5577D01*
X204829Y5511D01*
X204887Y5439D01*
X204921Y5416D01*
X204950Y5387D01*
X205031Y5343D01*
X205108Y5292D01*
X205139Y5285D01*
X205184Y5260D01*
X205445Y5209D01*
X205465Y5212D01*
X205485Y5208D01*
X267104Y5208D01*
X267206Y5223D01*
X267308Y5231D01*
X267336Y5243D01*
X267367Y5248D01*
X267459Y5292D01*
X267555Y5330D01*
X267578Y5350D01*
X267606Y5363D01*
X267681Y5433D01*
X267761Y5498D01*
X267778Y5524D01*
X267800Y5545D01*
X267851Y5634D01*
X267908Y5719D01*
X267914Y5743D01*
X267932Y5775D01*
X267990Y6035D01*
X267987Y6073D01*
X267992Y6096D01*
X267992Y47723D01*
X267987Y47757D01*
X267990Y47791D01*
X267967Y47888D01*
X267952Y47986D01*
X267937Y48017D01*
X267930Y48050D01*
X267880Y48136D01*
X267837Y48225D01*
X267813Y48250D01*
X267796Y48280D01*
X267723Y48347D01*
X267655Y48419D01*
X267625Y48437D01*
X267600Y48460D01*
X267510Y48502D01*
X267425Y48551D01*
X267391Y48559D01*
X267360Y48574D01*
X267262Y48588D01*
X267165Y48609D01*
X267131Y48606D01*
X267097Y48611D01*
X266999Y48596D01*
X266900Y48588D01*
X266868Y48575D01*
X266834Y48569D01*
X266745Y48525D01*
X266653Y48489D01*
X266627Y48467D01*
X266596Y48451D01*
X266560Y48413D01*
X266447Y48321D01*
X266371Y48206D01*
X266335Y48167D01*
X261755Y40235D01*
X253575Y33371D01*
X243539Y29718D01*
X232861Y29718D01*
X222825Y33371D01*
X214645Y40235D01*
X209305Y49483D01*
X207451Y60000D01*
X209305Y70517D01*
X214645Y79765D01*
X222825Y86629D01*
X232861Y90282D01*
X243539Y90282D01*
X253575Y86629D01*
X261755Y79765D01*
X266335Y71833D01*
X266356Y71806D01*
X266371Y71775D01*
X266439Y71702D01*
X266501Y71625D01*
X266529Y71606D01*
X266553Y71581D01*
X266639Y71531D01*
X266721Y71476D01*
X266754Y71466D01*
X266783Y71449D01*
X266880Y71427D01*
X266975Y71398D01*
X267009Y71398D01*
X267043Y71391D01*
X267142Y71399D01*
X267241Y71399D01*
X267274Y71410D01*
X267308Y71412D01*
X267400Y71449D01*
X267494Y71479D01*
X267522Y71499D01*
X267555Y71511D01*
X267631Y71574D01*
X267713Y71630D01*
X267734Y71657D01*
X267761Y71679D01*
X267816Y71762D01*
X267877Y71839D01*
X267889Y71871D01*
X267908Y71900D01*
X267920Y71952D01*
X267972Y72088D01*
X267981Y72225D01*
X267992Y72277D01*
X267992Y91071D01*
X267977Y91173D01*
X267969Y91275D01*
X267957Y91303D01*
X267952Y91334D01*
X267908Y91426D01*
X267870Y91522D01*
X267850Y91545D01*
X267837Y91573D01*
X267767Y91648D01*
X267702Y91728D01*
X267676Y91745D01*
X267655Y91767D01*
X267566Y91818D01*
X267481Y91875D01*
X267457Y91881D01*
X267425Y91899D01*
X267165Y91957D01*
X267127Y91954D01*
X267104Y91959D01*
X259727Y91959D01*
X259727Y99611D01*
X259712Y99712D01*
X259703Y99815D01*
X259692Y99843D01*
X259687Y99874D01*
X259643Y99966D01*
X259604Y100061D01*
X259585Y100085D01*
X259572Y100113D01*
X259502Y100188D01*
X259437Y100268D01*
X259411Y100285D01*
X259390Y100307D01*
X259301Y100358D01*
X259216Y100415D01*
X259192Y100420D01*
X259159Y100439D01*
X258900Y100497D01*
X258862Y100494D01*
X258839Y100499D01*
X257949Y100499D01*
X257949Y100501D01*
X258839Y100501D01*
X258940Y100516D01*
X259043Y100525D01*
X259071Y100536D01*
X259102Y100541D01*
X259194Y100585D01*
X259289Y100624D01*
X259313Y100643D01*
X259341Y100656D01*
X259416Y100726D01*
X259496Y100791D01*
X259513Y100817D01*
X259535Y100838D01*
X259586Y100927D01*
X259643Y101012D01*
X259648Y101036D01*
X259667Y101069D01*
X259725Y101328D01*
X259722Y101366D01*
X259727Y101389D01*
X259727Y109041D01*
X267104Y109041D01*
X267206Y109056D01*
X267308Y109064D01*
X267336Y109076D01*
X267367Y109081D01*
X267459Y109125D01*
X267555Y109163D01*
X267578Y109183D01*
X267606Y109196D01*
X267681Y109266D01*
X267761Y109331D01*
X267778Y109357D01*
X267800Y109378D01*
X267851Y109467D01*
X267908Y109552D01*
X267914Y109576D01*
X267932Y109608D01*
X267990Y109868D01*
X267987Y109906D01*
X267992Y109929D01*
X267992Y147071D01*
X267977Y147173D01*
X267969Y147275D01*
X267957Y147303D01*
X267952Y147334D01*
X267908Y147426D01*
X267870Y147522D01*
X267850Y147545D01*
X267837Y147573D01*
X267767Y147648D01*
X267702Y147728D01*
X267676Y147745D01*
X267655Y147767D01*
X267566Y147818D01*
X267481Y147875D01*
X267457Y147881D01*
X267425Y147899D01*
X267165Y147957D01*
X267127Y147954D01*
X267104Y147959D01*
X259727Y147959D01*
X259727Y155611D01*
X259712Y155712D01*
X259703Y155815D01*
X259692Y155843D01*
X259687Y155874D01*
X259643Y155966D01*
X259604Y156061D01*
X259585Y156085D01*
X259572Y156113D01*
X259502Y156188D01*
X259437Y156268D01*
X259411Y156285D01*
X259390Y156307D01*
X259301Y156358D01*
X259216Y156415D01*
X259192Y156420D01*
X259159Y156439D01*
X258900Y156497D01*
X258862Y156494D01*
X258839Y156499D01*
X257949Y156499D01*
X257949Y156501D01*
X258839Y156501D01*
X258940Y156516D01*
X259043Y156525D01*
X259071Y156536D01*
X259102Y156541D01*
X259194Y156585D01*
X259289Y156624D01*
X259313Y156643D01*
X259341Y156656D01*
X259416Y156726D01*
X259496Y156791D01*
X259513Y156817D01*
X259535Y156838D01*
X259586Y156927D01*
X259643Y157012D01*
X259648Y157036D01*
X259667Y157069D01*
X259725Y157328D01*
X259722Y157366D01*
X259727Y157389D01*
X259727Y165041D01*
X267104Y165041D01*
X267206Y165056D01*
X267308Y165064D01*
X267336Y165076D01*
X267367Y165081D01*
X267459Y165125D01*
X267555Y165163D01*
X267578Y165183D01*
X267606Y165196D01*
X267681Y165266D01*
X267761Y165331D01*
X267778Y165357D01*
X267800Y165378D01*
X267851Y165467D01*
X267908Y165552D01*
X267914Y165576D01*
X267932Y165608D01*
X267990Y165868D01*
X267987Y165906D01*
X267992Y165929D01*
X267992Y211836D01*
X267977Y211938D01*
X267969Y212040D01*
X267957Y212068D01*
X267952Y212099D01*
X267908Y212191D01*
X267870Y212287D01*
X267850Y212310D01*
X267837Y212338D01*
X267767Y212413D01*
X267702Y212493D01*
X267676Y212510D01*
X267655Y212532D01*
X267566Y212583D01*
X267481Y212640D01*
X267457Y212646D01*
X267425Y212664D01*
X267165Y212722D01*
X267127Y212719D01*
X267104Y212724D01*
X236426Y212724D01*
X236324Y212709D01*
X236222Y212701D01*
X236194Y212689D01*
X236163Y212684D01*
X236071Y212640D01*
X235975Y212602D01*
X235952Y212582D01*
X235924Y212569D01*
X235849Y212499D01*
X235769Y212434D01*
X235752Y212408D01*
X235730Y212387D01*
X235679Y212298D01*
X235622Y212213D01*
X235616Y212189D01*
X235598Y212157D01*
X235540Y211897D01*
X235543Y211859D01*
X235538Y211836D01*
X235538Y199689D01*
X234496Y198647D01*
X234267Y198647D01*
X234165Y198632D01*
X234063Y198624D01*
X234035Y198612D01*
X234004Y198607D01*
X233912Y198563D01*
X233816Y198525D01*
X233793Y198505D01*
X233765Y198492D01*
X233690Y198422D01*
X233610Y198357D01*
X233593Y198331D01*
X233571Y198310D01*
X233520Y198221D01*
X233463Y198136D01*
X233457Y198112D01*
X233439Y198080D01*
X233381Y197820D01*
X233384Y197782D01*
X233379Y197759D01*
X233379Y194358D01*
X233394Y194256D01*
X233402Y194154D01*
X233414Y194126D01*
X233419Y194095D01*
X233463Y194003D01*
X233501Y193907D01*
X233521Y193884D01*
X233534Y193856D01*
X233604Y193781D01*
X233669Y193701D01*
X233695Y193684D01*
X233716Y193662D01*
X233805Y193611D01*
X233890Y193554D01*
X233914Y193548D01*
X233946Y193530D01*
X234206Y193472D01*
X234244Y193475D01*
X234267Y193470D01*
X234929Y193470D01*
X236622Y191777D01*
X236622Y182715D01*
X234929Y181022D01*
X225867Y181022D01*
X224174Y182715D01*
X224174Y191777D01*
X225867Y193470D01*
X226901Y193470D01*
X227003Y193485D01*
X227105Y193493D01*
X227133Y193505D01*
X227164Y193510D01*
X227256Y193554D01*
X227352Y193592D01*
X227375Y193612D01*
X227403Y193625D01*
X227478Y193695D01*
X227558Y193760D01*
X227575Y193786D01*
X227597Y193807D01*
X227648Y193896D01*
X227705Y193981D01*
X227711Y194005D01*
X227729Y194037D01*
X227787Y194297D01*
X227784Y194331D01*
X227787Y194344D01*
X227787Y194347D01*
X227789Y194358D01*
X227789Y197759D01*
X227774Y197861D01*
X227766Y197963D01*
X227754Y197991D01*
X227749Y198022D01*
X227705Y198114D01*
X227667Y198210D01*
X227647Y198233D01*
X227634Y198261D01*
X227564Y198336D01*
X227499Y198416D01*
X227473Y198433D01*
X227452Y198455D01*
X227363Y198506D01*
X227278Y198563D01*
X227254Y198569D01*
X227222Y198587D01*
X226962Y198645D01*
X226924Y198642D01*
X226901Y198647D01*
X219349Y198647D01*
X219247Y198632D01*
X219145Y198624D01*
X219117Y198612D01*
X219086Y198607D01*
X218994Y198563D01*
X218898Y198525D01*
X218875Y198505D01*
X218847Y198492D01*
X218772Y198422D01*
X218692Y198357D01*
X218675Y198331D01*
X218653Y198310D01*
X218602Y198221D01*
X218545Y198136D01*
X218539Y198112D01*
X218521Y198080D01*
X218463Y197820D01*
X218466Y197782D01*
X218461Y197759D01*
X218461Y194358D01*
X218476Y194256D01*
X218484Y194154D01*
X218496Y194126D01*
X218501Y194095D01*
X218545Y194003D01*
X218583Y193907D01*
X218603Y193884D01*
X218616Y193856D01*
X218686Y193781D01*
X218751Y193701D01*
X218777Y193684D01*
X218798Y193662D01*
X218887Y193611D01*
X218972Y193554D01*
X218996Y193548D01*
X219028Y193530D01*
X219288Y193472D01*
X219326Y193475D01*
X219349Y193470D01*
X220197Y193470D01*
X221890Y191777D01*
X221890Y182715D01*
X220197Y181022D01*
X211135Y181022D01*
X209442Y182715D01*
X209442Y191777D01*
X211135Y193470D01*
X211983Y193470D01*
X212085Y193485D01*
X212187Y193493D01*
X212215Y193505D01*
X212246Y193510D01*
X212338Y193554D01*
X212434Y193592D01*
X212457Y193612D01*
X212485Y193625D01*
X212560Y193695D01*
X212640Y193760D01*
X212657Y193786D01*
X212679Y193807D01*
X212730Y193896D01*
X212787Y193981D01*
X212793Y194005D01*
X212811Y194037D01*
X212869Y194297D01*
X212866Y194331D01*
X212869Y194344D01*
X212869Y194347D01*
X212871Y194358D01*
X212871Y197759D01*
X212856Y197861D01*
X212848Y197963D01*
X212836Y197991D01*
X212831Y198022D01*
X212787Y198114D01*
X212749Y198210D01*
X212729Y198233D01*
X212716Y198261D01*
X212646Y198336D01*
X212581Y198416D01*
X212555Y198433D01*
X212534Y198455D01*
X212445Y198506D01*
X212360Y198563D01*
X212336Y198569D01*
X212304Y198587D01*
X212044Y198645D01*
X212006Y198642D01*
X211983Y198647D01*
X210416Y198647D01*
X209374Y199689D01*
X209374Y211836D01*
X209359Y211938D01*
X209351Y212040D01*
X209339Y212068D01*
X209334Y212099D01*
X209290Y212191D01*
X209252Y212287D01*
X209232Y212310D01*
X209219Y212338D01*
X209149Y212413D01*
X209084Y212493D01*
X209058Y212510D01*
X209037Y212532D01*
X208948Y212583D01*
X208863Y212640D01*
X208839Y212646D01*
X208807Y212664D01*
X208547Y212722D01*
X208509Y212719D01*
X208486Y212724D01*
X191415Y212724D01*
X191394Y212721D01*
X191373Y212723D01*
X191263Y212701D01*
X191152Y212684D01*
X191133Y212675D01*
X191113Y212671D01*
X191074Y212647D01*
X190913Y212569D01*
X190830Y212492D01*
X190787Y212464D01*
X185348Y207025D01*
X185335Y207008D01*
X185319Y206995D01*
X185257Y206901D01*
X185190Y206811D01*
X185183Y206791D01*
X185172Y206774D01*
X185162Y206729D01*
X185103Y206560D01*
X185099Y206447D01*
X185088Y206397D01*
X185088Y200681D01*
X183395Y198988D01*
X183055Y198988D01*
X182953Y198973D01*
X182851Y198965D01*
X182823Y198953D01*
X182792Y198948D01*
X182700Y198904D01*
X182604Y198866D01*
X182581Y198846D01*
X182553Y198833D01*
X182478Y198763D01*
X182398Y198698D01*
X182381Y198672D01*
X182359Y198651D01*
X182308Y198562D01*
X182251Y198477D01*
X182245Y198453D01*
X182227Y198421D01*
X182169Y198161D01*
X182172Y198123D01*
X182167Y198100D01*
X182167Y184706D01*
X182182Y184604D01*
X182190Y184502D01*
X182202Y184474D01*
X182207Y184443D01*
X182251Y184351D01*
X182289Y184255D01*
X182309Y184232D01*
X182322Y184204D01*
X182392Y184129D01*
X182457Y184049D01*
X182483Y184032D01*
X182504Y184010D01*
X182593Y183959D01*
X182678Y183902D01*
X182702Y183896D01*
X182734Y183878D01*
X182994Y183820D01*
X183032Y183823D01*
X183055Y183818D01*
X183367Y183818D01*
X185099Y182085D01*
X185100Y182083D01*
X185122Y182037D01*
X185136Y181987D01*
X185180Y181918D01*
X185215Y181844D01*
X185250Y181806D01*
X185278Y181763D01*
X185341Y181710D01*
X185397Y181650D01*
X185441Y181624D01*
X185481Y181591D01*
X185556Y181558D01*
X185627Y181518D01*
X185678Y181507D01*
X185725Y181486D01*
X185807Y181478D01*
X185887Y181460D01*
X185938Y181464D01*
X185990Y181459D01*
X186070Y181475D01*
X186152Y181482D01*
X186200Y181501D01*
X186250Y181511D01*
X186294Y181539D01*
X186399Y181581D01*
X186538Y181694D01*
X186576Y181718D01*
X187485Y182627D01*
X191483Y182627D01*
X194311Y179799D01*
X194311Y175801D01*
X191483Y172973D01*
X187485Y172973D01*
X186576Y173882D01*
X186535Y173913D01*
X186499Y173950D01*
X186428Y173991D01*
X186362Y174040D01*
X186313Y174057D01*
X186269Y174082D01*
X186189Y174100D01*
X186111Y174127D01*
X186059Y174129D01*
X186009Y174140D01*
X185927Y174133D01*
X185845Y174136D01*
X185796Y174123D01*
X185744Y174118D01*
X185668Y174088D01*
X185589Y174066D01*
X185545Y174039D01*
X185497Y174019D01*
X185434Y173968D01*
X185365Y173924D01*
X185331Y173884D01*
X185291Y173852D01*
X185246Y173783D01*
X185193Y173721D01*
X185172Y173674D01*
X185144Y173631D01*
X185132Y173580D01*
X185088Y173477D01*
X185070Y173298D01*
X185060Y173254D01*
X185060Y173063D01*
X183367Y171370D01*
X174305Y171370D01*
X172612Y173063D01*
X172612Y182125D01*
X174305Y183818D01*
X174673Y183818D01*
X174775Y183833D01*
X174877Y183841D01*
X174905Y183853D01*
X174936Y183858D01*
X175028Y183902D01*
X175124Y183940D01*
X175147Y183960D01*
X175175Y183973D01*
X175250Y184043D01*
X175330Y184108D01*
X175347Y184134D01*
X175369Y184155D01*
X175420Y184244D01*
X175477Y184329D01*
X175483Y184353D01*
X175501Y184385D01*
X175559Y184645D01*
X175556Y184683D01*
X175561Y184706D01*
X175561Y198100D01*
X175546Y198202D01*
X175538Y198304D01*
X175526Y198332D01*
X175521Y198363D01*
X175477Y198455D01*
X175439Y198551D01*
X175419Y198574D01*
X175406Y198602D01*
X175336Y198677D01*
X175271Y198757D01*
X175245Y198774D01*
X175224Y198796D01*
X175135Y198847D01*
X175050Y198904D01*
X175026Y198910D01*
X174994Y198928D01*
X174734Y198986D01*
X174696Y198983D01*
X174673Y198988D01*
X174333Y198988D01*
X172640Y200681D01*
X172640Y207413D01*
X172633Y207464D01*
X172634Y207516D01*
X172613Y207595D01*
X172600Y207676D01*
X172578Y207722D01*
X172564Y207772D01*
X172520Y207841D01*
X172485Y207915D01*
X172450Y207953D01*
X172422Y207996D01*
X172359Y208050D01*
X172303Y208110D01*
X172259Y208135D01*
X172219Y208169D01*
X172144Y208201D01*
X172073Y208241D01*
X172022Y208253D01*
X171975Y208273D01*
X171893Y208281D01*
X171813Y208299D01*
X171762Y208295D01*
X171710Y208300D01*
X171630Y208284D01*
X171548Y208278D01*
X171500Y208258D01*
X171450Y208248D01*
X171406Y208221D01*
X171301Y208179D01*
X171162Y208065D01*
X171124Y208041D01*
X170108Y207025D01*
X170095Y207008D01*
X170079Y206995D01*
X170017Y206901D01*
X169950Y206811D01*
X169943Y206791D01*
X169932Y206774D01*
X169922Y206729D01*
X169863Y206560D01*
X169859Y206447D01*
X169848Y206397D01*
X169848Y200681D01*
X168155Y198988D01*
X159093Y198988D01*
X157400Y200681D01*
X157400Y201021D01*
X157385Y201123D01*
X157377Y201225D01*
X157365Y201253D01*
X157360Y201284D01*
X157316Y201376D01*
X157278Y201472D01*
X157258Y201495D01*
X157245Y201523D01*
X157175Y201598D01*
X157110Y201678D01*
X157084Y201695D01*
X157063Y201717D01*
X156974Y201768D01*
X156889Y201825D01*
X156865Y201831D01*
X156833Y201849D01*
X156573Y201907D01*
X156535Y201904D01*
X156512Y201909D01*
X155859Y201909D01*
X155757Y201894D01*
X155655Y201886D01*
X155627Y201874D01*
X155596Y201869D01*
X155504Y201825D01*
X155408Y201787D01*
X155385Y201767D01*
X155357Y201754D01*
X155282Y201684D01*
X155202Y201619D01*
X155185Y201593D01*
X155163Y201572D01*
X155112Y201483D01*
X155055Y201398D01*
X155049Y201374D01*
X155031Y201342D01*
X154973Y201082D01*
X154974Y201065D01*
X153343Y199433D01*
X143041Y199433D01*
X141413Y201061D01*
X141413Y209363D01*
X143258Y211208D01*
X143289Y211249D01*
X143327Y211285D01*
X143367Y211356D01*
X143416Y211422D01*
X143433Y211471D01*
X143458Y211515D01*
X143476Y211595D01*
X143503Y211673D01*
X143505Y211725D01*
X143516Y211775D01*
X143510Y211857D01*
X143512Y211939D01*
X143499Y211988D01*
X143495Y212040D01*
X143464Y212116D01*
X143443Y212195D01*
X143415Y212239D01*
X143396Y212287D01*
X143344Y212350D01*
X143300Y212419D01*
X143261Y212453D01*
X143228Y212493D01*
X143160Y212538D01*
X143097Y212591D01*
X143050Y212612D01*
X143007Y212640D01*
X142957Y212652D01*
X142853Y212696D01*
X142675Y212714D01*
X142630Y212724D01*
X129754Y212724D01*
X129703Y212717D01*
X129651Y212718D01*
X129572Y212697D01*
X129491Y212684D01*
X129445Y212662D01*
X129395Y212648D01*
X129326Y212604D01*
X129252Y212569D01*
X129214Y212534D01*
X129170Y212506D01*
X129117Y212443D01*
X129057Y212387D01*
X129032Y212343D01*
X128998Y212303D01*
X128966Y212228D01*
X128926Y212157D01*
X128914Y212106D01*
X128894Y212059D01*
X128886Y211977D01*
X128868Y211897D01*
X128872Y211846D01*
X128867Y211794D01*
X128883Y211714D01*
X128889Y211632D01*
X128909Y211584D01*
X128919Y211534D01*
X128946Y211490D01*
X128988Y211385D01*
X129101Y211246D01*
X129126Y211208D01*
X130971Y209363D01*
X130971Y201061D01*
X129343Y199433D01*
X119041Y199433D01*
X117406Y201068D01*
X117398Y201123D01*
X117390Y201225D01*
X117378Y201253D01*
X117373Y201284D01*
X117329Y201376D01*
X117291Y201472D01*
X117271Y201495D01*
X117258Y201523D01*
X117188Y201598D01*
X117123Y201678D01*
X117097Y201695D01*
X117076Y201717D01*
X116987Y201768D01*
X116902Y201825D01*
X116878Y201831D01*
X116846Y201849D01*
X116586Y201907D01*
X116548Y201904D01*
X116525Y201909D01*
X88838Y201909D01*
X84406Y206341D01*
X84389Y206354D01*
X84376Y206370D01*
X84282Y206432D01*
X84192Y206499D01*
X84172Y206506D01*
X84155Y206517D01*
X84110Y206527D01*
X83941Y206586D01*
X83828Y206590D01*
X83778Y206601D01*
X75801Y206601D01*
X74759Y207643D01*
X74759Y209689D01*
X74744Y209791D01*
X74736Y209893D01*
X74724Y209921D01*
X74719Y209952D01*
X74675Y210044D01*
X74637Y210140D01*
X74617Y210163D01*
X74604Y210191D01*
X74534Y210266D01*
X74469Y210346D01*
X74443Y210363D01*
X74422Y210385D01*
X74333Y210436D01*
X74248Y210493D01*
X74224Y210499D01*
X74192Y210517D01*
X73932Y210575D01*
X73894Y210572D01*
X73871Y210577D01*
X40034Y210577D01*
X40013Y210574D01*
X39992Y210576D01*
X39882Y210554D01*
X39771Y210537D01*
X39752Y210528D01*
X39732Y210524D01*
X39693Y210500D01*
X39532Y210422D01*
X39449Y210345D01*
X39406Y210317D01*
X35900Y206811D01*
X35887Y206794D01*
X35871Y206781D01*
X35809Y206687D01*
X35742Y206597D01*
X35735Y206577D01*
X35724Y206560D01*
X35714Y206515D01*
X35655Y206346D01*
X35651Y206233D01*
X35640Y206183D01*
X35640Y200467D01*
X33947Y198774D01*
X24885Y198774D01*
X23192Y200467D01*
X23192Y209529D01*
X24871Y211208D01*
X24902Y211249D01*
X24940Y211285D01*
X24980Y211356D01*
X25029Y211422D01*
X25046Y211471D01*
X25072Y211515D01*
X25089Y211595D01*
X25116Y211673D01*
X25118Y211725D01*
X25129Y211775D01*
X25123Y211857D01*
X25126Y211939D01*
X25112Y211988D01*
X25108Y212040D01*
X25077Y212116D01*
X25056Y212195D01*
X25028Y212239D01*
X25009Y212287D01*
X24957Y212350D01*
X24913Y212419D01*
X24874Y212453D01*
X24841Y212493D01*
X24773Y212538D01*
X24710Y212591D01*
X24663Y212612D01*
X24620Y212640D01*
X24570Y212652D01*
X24466Y212696D01*
X24288Y212714D01*
X24243Y212724D01*
X19349Y212724D01*
X19298Y212717D01*
X19246Y212718D01*
X19167Y212697D01*
X19086Y212684D01*
X19039Y212662D01*
X18990Y212648D01*
X18920Y212604D01*
X18847Y212569D01*
X18809Y212534D01*
X18765Y212506D01*
X18712Y212443D01*
X18652Y212387D01*
X18627Y212343D01*
X18593Y212303D01*
X18561Y212228D01*
X18520Y212157D01*
X18509Y212106D01*
X18489Y212059D01*
X18480Y211977D01*
X18463Y211897D01*
X18467Y211846D01*
X18461Y211794D01*
X18478Y211714D01*
X18484Y211632D01*
X18503Y211584D01*
X18514Y211534D01*
X18541Y211490D01*
X18583Y211385D01*
X18696Y211246D01*
X18721Y211208D01*
X20400Y209529D01*
X20400Y200467D01*
X18707Y198774D01*
X17828Y198774D01*
X17726Y198759D01*
X17624Y198751D01*
X17596Y198739D01*
X17565Y198734D01*
X17473Y198690D01*
X17377Y198652D01*
X17354Y198632D01*
X17326Y198619D01*
X17251Y198549D01*
X17171Y198484D01*
X17154Y198458D01*
X17132Y198437D01*
X17081Y198348D01*
X17024Y198263D01*
X17018Y198239D01*
X17000Y198207D01*
X16942Y197947D01*
X16945Y197909D01*
X16940Y197886D01*
X16940Y196131D01*
X16955Y196030D01*
X16963Y195928D01*
X16975Y195899D01*
X16980Y195869D01*
X17024Y195776D01*
X17062Y195681D01*
X17082Y195657D01*
X17095Y195629D01*
X17165Y195554D01*
X17230Y195475D01*
X17256Y195458D01*
X17277Y195435D01*
X17366Y195384D01*
X17451Y195327D01*
X17475Y195322D01*
X17507Y195303D01*
X17539Y195296D01*
X19099Y193736D01*
X19099Y185192D01*
X17592Y183685D01*
X10698Y183685D01*
X9191Y185192D01*
X9191Y193736D01*
X10750Y195295D01*
X10817Y195328D01*
X10913Y195366D01*
X10936Y195385D01*
X10964Y195399D01*
X11039Y195469D01*
X11119Y195534D01*
X11136Y195559D01*
X11158Y195580D01*
X11209Y195669D01*
X11266Y195755D01*
X11272Y195778D01*
X11290Y195811D01*
X11348Y196070D01*
X11345Y196107D01*
X11348Y196120D01*
X11348Y196122D01*
X11350Y196131D01*
X11350Y197886D01*
X11335Y197988D01*
X11327Y198090D01*
X11315Y198118D01*
X11310Y198149D01*
X11266Y198241D01*
X11228Y198337D01*
X11208Y198360D01*
X11195Y198388D01*
X11125Y198463D01*
X11060Y198543D01*
X11034Y198560D01*
X11013Y198582D01*
X10924Y198633D01*
X10839Y198690D01*
X10815Y198696D01*
X10783Y198714D01*
X10523Y198772D01*
X10485Y198769D01*
X10462Y198774D01*
X9645Y198774D01*
X7952Y200467D01*
X7952Y209529D01*
X9631Y211208D01*
X9662Y211249D01*
X9700Y211285D01*
X9740Y211356D01*
X9789Y211422D01*
X9806Y211471D01*
X9832Y211515D01*
X9849Y211595D01*
X9876Y211673D01*
X9878Y211725D01*
X9889Y211775D01*
X9883Y211857D01*
X9886Y211939D01*
X9872Y211988D01*
X9868Y212040D01*
X9837Y212116D01*
X9816Y212195D01*
X9788Y212239D01*
X9769Y212287D01*
X9717Y212350D01*
X9673Y212419D01*
X9634Y212453D01*
X9601Y212493D01*
X9533Y212538D01*
X9470Y212591D01*
X9423Y212612D01*
X9380Y212640D01*
X9330Y212652D01*
X9226Y212696D01*
X9048Y212714D01*
X9003Y212724D01*
X6096Y212724D01*
X5994Y212709D01*
X5892Y212701D01*
X5864Y212689D01*
X5833Y212684D01*
X5741Y212640D01*
X5645Y212602D01*
X5622Y212582D01*
X5594Y212569D01*
X5519Y212499D01*
X5439Y212434D01*
X5422Y212408D01*
X5400Y212387D01*
X5349Y212298D01*
X5292Y212213D01*
X5286Y212189D01*
X5268Y212157D01*
X5210Y211897D01*
X5213Y211859D01*
X5208Y211836D01*
X5208Y165929D01*
X5223Y165827D01*
X5231Y165725D01*
X5243Y165697D01*
X5248Y165666D01*
X5292Y165574D01*
X5330Y165478D01*
X5350Y165455D01*
X5363Y165427D01*
X5433Y165352D01*
X5498Y165272D01*
X5524Y165255D01*
X5545Y165233D01*
X5634Y165182D01*
X5719Y165125D01*
X5743Y165119D01*
X5775Y165101D01*
X6035Y165043D01*
X6073Y165046D01*
X6096Y165041D01*
X13473Y165041D01*
X13473Y157389D01*
X13488Y157288D01*
X13497Y157185D01*
X13508Y157157D01*
X13513Y157126D01*
X13557Y157034D01*
X13596Y156939D01*
X13615Y156915D01*
X13628Y156887D01*
X13698Y156812D01*
X13763Y156732D01*
X13789Y156715D01*
X13810Y156693D01*
X13899Y156642D01*
X13984Y156585D01*
X14008Y156580D01*
X14040Y156561D01*
X14300Y156503D01*
X14338Y156506D01*
X14361Y156501D01*
X15251Y156501D01*
X15251Y156499D01*
X14361Y156499D01*
X14260Y156484D01*
X14157Y156475D01*
X14129Y156464D01*
X14098Y156459D01*
X14006Y156415D01*
X13911Y156376D01*
X13887Y156357D01*
X13859Y156344D01*
X13784Y156274D01*
X13704Y156209D01*
X13687Y156183D01*
X13665Y156162D01*
X13614Y156073D01*
X13557Y155988D01*
X13551Y155964D01*
X13533Y155931D01*
X13475Y155672D01*
X13478Y155634D01*
X13473Y155611D01*
X13473Y147959D01*
X6096Y147959D01*
X5994Y147944D01*
X5892Y147936D01*
X5864Y147924D01*
X5833Y147919D01*
X5741Y147875D01*
X5645Y147837D01*
X5622Y147817D01*
X5594Y147804D01*
X5519Y147734D01*
X5439Y147669D01*
X5422Y147643D01*
X5400Y147622D01*
X5349Y147533D01*
X5292Y147448D01*
X5286Y147424D01*
X5268Y147392D01*
X5210Y147132D01*
X5213Y147094D01*
X5208Y147071D01*
X5208Y109929D01*
X5223Y109827D01*
X5231Y109725D01*
X5243Y109697D01*
X5248Y109666D01*
X5292Y109574D01*
X5330Y109478D01*
X5350Y109455D01*
X5363Y109427D01*
X5433Y109352D01*
X5498Y109272D01*
X5524Y109255D01*
X5545Y109233D01*
X5634Y109182D01*
X5719Y109125D01*
X5743Y109119D01*
X5775Y109101D01*
X6035Y109043D01*
X6073Y109046D01*
X6096Y109041D01*
X13473Y109041D01*
X13473Y101389D01*
X13488Y101288D01*
X13497Y101185D01*
X13508Y101157D01*
X13513Y101126D01*
X13557Y101034D01*
X13596Y100939D01*
X13615Y100915D01*
X13628Y100887D01*
X13698Y100812D01*
X13763Y100732D01*
X13789Y100715D01*
X13810Y100693D01*
X13899Y100642D01*
X13984Y100585D01*
X14008Y100580D01*
X14040Y100561D01*
X14300Y100503D01*
X14338Y100506D01*
X14361Y100501D01*
X15251Y100501D01*
X15251Y100499D01*
X14361Y100499D01*
X14260Y100484D01*
X14157Y100475D01*
X14129Y100464D01*
X14098Y100459D01*
X14006Y100415D01*
X13911Y100376D01*
X13887Y100357D01*
X13859Y100344D01*
X13784Y100274D01*
X13704Y100209D01*
X13687Y100183D01*
X13665Y100162D01*
X13614Y100073D01*
X13557Y99988D01*
X13551Y99964D01*
X13533Y99931D01*
X13475Y99672D01*
X13478Y99634D01*
X13473Y99611D01*
X13473Y91959D01*
X6096Y91959D01*
X5994Y91944D01*
X5892Y91936D01*
X5864Y91924D01*
X5833Y91919D01*
X5741Y91875D01*
X5645Y91837D01*
X5622Y91817D01*
X5594Y91804D01*
X5519Y91734D01*
X5439Y91669D01*
X5422Y91643D01*
X5400Y91622D01*
X5349Y91533D01*
X5292Y91448D01*
X5286Y91424D01*
X5268Y91392D01*
X5210Y91132D01*
X5213Y91094D01*
X5208Y91071D01*
X5208Y72277D01*
X5213Y72243D01*
X5210Y72209D01*
X5233Y72112D01*
X5248Y72014D01*
X5263Y71983D01*
X5270Y71950D01*
X5320Y71864D01*
X5363Y71775D01*
X5387Y71750D01*
X5404Y71720D01*
X5477Y71653D01*
X5545Y71581D01*
X5575Y71563D01*
X5600Y71540D01*
X5690Y71498D01*
X5775Y71449D01*
X5809Y71441D01*
X5840Y71426D01*
X5938Y71412D01*
X6035Y71391D01*
X6069Y71394D01*
X6103Y71389D01*
X6201Y71404D01*
X6300Y71412D01*
X6332Y71425D01*
X6366Y71431D01*
X6455Y71475D01*
X6547Y71511D01*
X6573Y71533D01*
X6604Y71549D01*
X6640Y71587D01*
X6753Y71679D01*
X6829Y71794D01*
X6865Y71833D01*
X11445Y79765D01*
X19625Y86629D01*
X29661Y90282D01*
X40339Y90282D01*
X50375Y86629D01*
X58555Y79765D01*
X63895Y70517D01*
X65749Y60000D01*
X63895Y49483D01*
X58555Y40235D01*
X50375Y33371D01*
X40339Y29718D01*
X29661Y29718D01*
X19625Y33371D01*
X11445Y40235D01*
X6865Y48167D01*
X6844Y48194D01*
X6829Y48225D01*
X6761Y48298D01*
X6699Y48375D01*
X6671Y48394D01*
X6647Y48419D01*
X6561Y48469D01*
X6479Y48524D01*
X6446Y48534D01*
X6417Y48551D01*
X6320Y48573D01*
X6225Y48602D01*
X6191Y48602D01*
X6157Y48609D01*
X6058Y48601D01*
X5959Y48601D01*
X5926Y48590D01*
X5892Y48588D01*
X5800Y48551D01*
X5706Y48521D01*
X5678Y48501D01*
X5645Y48489D01*
X5569Y48426D01*
X5487Y48370D01*
X5466Y48343D01*
X5439Y48321D01*
X5384Y48238D01*
X5323Y48161D01*
X5311Y48129D01*
X5292Y48100D01*
X5280Y48048D01*
X5228Y47912D01*
X5219Y47775D01*
X5208Y47723D01*
X5208Y6096D01*
X5223Y5994D01*
X5231Y5892D01*
X5243Y5864D01*
X5248Y5833D01*
X5292Y5741D01*
X5330Y5645D01*
X5350Y5622D01*
X5363Y5594D01*
X5433Y5519D01*
X5498Y5439D01*
X5524Y5422D01*
X5545Y5400D01*
X5634Y5349D01*
X5719Y5292D01*
X5743Y5286D01*
X5775Y5268D01*
X6035Y5210D01*
X6073Y5213D01*
X6096Y5208D01*
X62274Y5208D01*
X62359Y5221D01*
G37*
G36*
X118606Y5222D02*
X118606Y5222D01*
X118699Y5227D01*
X118737Y5241D01*
X118778Y5248D01*
X118861Y5288D01*
X118948Y5320D01*
X118980Y5345D01*
X119017Y5363D01*
X119085Y5426D01*
X119158Y5483D01*
X119181Y5517D01*
X119211Y5545D01*
X119257Y5625D01*
X119310Y5700D01*
X119323Y5740D01*
X119343Y5775D01*
X119363Y5866D01*
X119392Y5953D01*
X119392Y5995D01*
X119401Y6035D01*
X119394Y6127D01*
X119395Y6219D01*
X119383Y6259D01*
X119380Y6300D01*
X119345Y6385D01*
X119319Y6474D01*
X119296Y6508D01*
X119281Y6547D01*
X119222Y6618D01*
X119171Y6695D01*
X119146Y6713D01*
X119113Y6753D01*
X118892Y6900D01*
X118872Y6905D01*
X118855Y6917D01*
X118576Y7032D01*
X115932Y9676D01*
X114501Y13130D01*
X114501Y16870D01*
X115322Y18850D01*
X115337Y18911D01*
X115361Y18968D01*
X115368Y19039D01*
X115386Y19108D01*
X115382Y19170D01*
X115388Y19232D01*
X115374Y19302D01*
X115370Y19374D01*
X115349Y19432D01*
X115336Y19493D01*
X115311Y19533D01*
X115277Y19623D01*
X115146Y19792D01*
X115129Y19818D01*
X114655Y20292D01*
X114655Y81003D01*
X114640Y81105D01*
X114632Y81207D01*
X114620Y81235D01*
X114615Y81266D01*
X114571Y81358D01*
X114533Y81454D01*
X114513Y81477D01*
X114500Y81505D01*
X114430Y81580D01*
X114365Y81660D01*
X114339Y81677D01*
X114318Y81699D01*
X114229Y81750D01*
X114144Y81807D01*
X114120Y81813D01*
X114088Y81831D01*
X113828Y81889D01*
X113790Y81886D01*
X113767Y81891D01*
X113713Y81891D01*
X112671Y82933D01*
X112671Y107267D01*
X113713Y108309D01*
X113919Y108309D01*
X114021Y108324D01*
X114123Y108332D01*
X114151Y108344D01*
X114182Y108349D01*
X114274Y108393D01*
X114370Y108431D01*
X114393Y108451D01*
X114421Y108464D01*
X114496Y108534D01*
X114576Y108599D01*
X114593Y108625D01*
X114615Y108646D01*
X114666Y108735D01*
X114723Y108820D01*
X114729Y108844D01*
X114747Y108876D01*
X114805Y109136D01*
X114802Y109174D01*
X114807Y109197D01*
X114807Y119817D01*
X114792Y119919D01*
X114784Y120021D01*
X114772Y120049D01*
X114767Y120080D01*
X114723Y120172D01*
X114685Y120268D01*
X114665Y120291D01*
X114652Y120319D01*
X114582Y120394D01*
X114517Y120474D01*
X114491Y120491D01*
X114470Y120513D01*
X114381Y120564D01*
X114296Y120621D01*
X114272Y120627D01*
X114240Y120645D01*
X113980Y120703D01*
X113942Y120700D01*
X113919Y120705D01*
X61417Y120705D01*
X61315Y120690D01*
X61213Y120682D01*
X61185Y120670D01*
X61154Y120665D01*
X61062Y120621D01*
X60966Y120583D01*
X60943Y120563D01*
X60915Y120550D01*
X60840Y120480D01*
X60760Y120415D01*
X60743Y120389D01*
X60721Y120368D01*
X60670Y120279D01*
X60613Y120194D01*
X60607Y120170D01*
X60589Y120138D01*
X60531Y119878D01*
X60532Y119860D01*
X60531Y119853D01*
X60532Y119834D01*
X60529Y119817D01*
X60529Y119763D01*
X59894Y119128D01*
X59833Y119046D01*
X59766Y118967D01*
X59754Y118939D01*
X59736Y118914D01*
X59702Y118817D01*
X59662Y118723D01*
X59659Y118692D01*
X59649Y118663D01*
X59645Y118561D01*
X59634Y118458D01*
X59640Y118428D01*
X59639Y118397D01*
X59666Y118298D01*
X59686Y118198D01*
X59699Y118178D01*
X59709Y118141D01*
X59852Y117917D01*
X59881Y117892D01*
X59894Y117872D01*
X60529Y117237D01*
X60529Y117183D01*
X60544Y117081D01*
X60552Y116979D01*
X60564Y116951D01*
X60569Y116920D01*
X60613Y116828D01*
X60651Y116732D01*
X60671Y116709D01*
X60684Y116681D01*
X60754Y116606D01*
X60819Y116526D01*
X60845Y116509D01*
X60866Y116487D01*
X60955Y116436D01*
X61040Y116379D01*
X61064Y116373D01*
X61096Y116355D01*
X61356Y116297D01*
X61394Y116300D01*
X61417Y116295D01*
X96909Y116295D01*
X96929Y116298D01*
X96950Y116296D01*
X97061Y116318D01*
X97172Y116335D01*
X97190Y116344D01*
X97211Y116348D01*
X97250Y116372D01*
X97411Y116450D01*
X97493Y116527D01*
X97537Y116555D01*
X99093Y118111D01*
X103091Y118111D01*
X105919Y115283D01*
X105919Y111285D01*
X103091Y108457D01*
X99093Y108457D01*
X97105Y110445D01*
X97088Y110458D01*
X97075Y110474D01*
X96981Y110536D01*
X96891Y110603D01*
X96871Y110610D01*
X96854Y110621D01*
X96809Y110631D01*
X96640Y110690D01*
X96527Y110694D01*
X96477Y110705D01*
X61417Y110705D01*
X61315Y110690D01*
X61213Y110682D01*
X61185Y110670D01*
X61154Y110665D01*
X61062Y110621D01*
X60966Y110583D01*
X60943Y110563D01*
X60915Y110550D01*
X60840Y110480D01*
X60760Y110415D01*
X60743Y110389D01*
X60721Y110368D01*
X60670Y110279D01*
X60613Y110194D01*
X60607Y110170D01*
X60589Y110138D01*
X60531Y109878D01*
X60534Y109840D01*
X60529Y109817D01*
X60529Y109763D01*
X59487Y108721D01*
X45668Y108721D01*
X45617Y108714D01*
X45565Y108715D01*
X45486Y108694D01*
X45405Y108681D01*
X45359Y108659D01*
X45309Y108645D01*
X45240Y108601D01*
X45166Y108566D01*
X45128Y108531D01*
X45085Y108503D01*
X45031Y108440D01*
X44971Y108384D01*
X44946Y108340D01*
X44912Y108300D01*
X44880Y108225D01*
X44840Y108154D01*
X44828Y108103D01*
X44808Y108056D01*
X44800Y107974D01*
X44782Y107894D01*
X44786Y107843D01*
X44781Y107791D01*
X44797Y107711D01*
X44803Y107629D01*
X44823Y107581D01*
X44833Y107531D01*
X44860Y107487D01*
X44902Y107382D01*
X45015Y107243D01*
X45040Y107205D01*
X50130Y102115D01*
X50147Y102102D01*
X50160Y102086D01*
X50254Y102024D01*
X50344Y101957D01*
X50364Y101950D01*
X50381Y101939D01*
X50426Y101929D01*
X50595Y101870D01*
X50708Y101866D01*
X50758Y101855D01*
X68170Y101855D01*
X98084Y71941D01*
X98101Y71928D01*
X98114Y71912D01*
X98208Y71850D01*
X98298Y71783D01*
X98318Y71776D01*
X98335Y71765D01*
X98380Y71755D01*
X98549Y71696D01*
X98662Y71692D01*
X98712Y71681D01*
X100499Y71681D01*
X103327Y68853D01*
X103327Y64855D01*
X102063Y63591D01*
X102050Y63574D01*
X102034Y63561D01*
X101972Y63467D01*
X101905Y63377D01*
X101898Y63357D01*
X101887Y63340D01*
X101877Y63295D01*
X101871Y63280D01*
X101863Y63265D01*
X101856Y63237D01*
X101818Y63126D01*
X101815Y63052D01*
X101805Y63005D01*
X101807Y62981D01*
X101803Y62963D01*
X101803Y24399D01*
X101812Y24337D01*
X101811Y24275D01*
X101832Y24207D01*
X101843Y24136D01*
X101870Y24080D01*
X101887Y24021D01*
X101927Y23961D01*
X101958Y23896D01*
X102001Y23851D01*
X102035Y23800D01*
X102074Y23772D01*
X102140Y23702D01*
X102326Y23596D01*
X102351Y23578D01*
X103824Y22968D01*
X106468Y20324D01*
X107899Y16870D01*
X107899Y13130D01*
X106468Y9676D01*
X103824Y7032D01*
X103545Y6917D01*
X103466Y6869D01*
X103383Y6829D01*
X103353Y6801D01*
X103317Y6779D01*
X103256Y6710D01*
X103189Y6647D01*
X103168Y6612D01*
X103141Y6581D01*
X103102Y6497D01*
X103057Y6417D01*
X103048Y6376D01*
X103031Y6339D01*
X103019Y6247D01*
X102999Y6157D01*
X103002Y6116D01*
X102997Y6075D01*
X103013Y5984D01*
X103020Y5892D01*
X103036Y5854D01*
X103043Y5813D01*
X103085Y5731D01*
X103119Y5645D01*
X103145Y5613D01*
X103164Y5577D01*
X103229Y5511D01*
X103287Y5439D01*
X103321Y5416D01*
X103350Y5387D01*
X103431Y5343D01*
X103508Y5292D01*
X103539Y5285D01*
X103584Y5260D01*
X103845Y5209D01*
X103865Y5212D01*
X103885Y5208D01*
X118515Y5208D01*
X118606Y5222D01*
G37*
%LPC*%
G36*
X126413Y148491D02*
X126413Y148491D01*
X125371Y149533D01*
X125371Y171552D01*
X125368Y171573D01*
X125370Y171594D01*
X125348Y171705D01*
X125331Y171815D01*
X125322Y171834D01*
X125318Y171855D01*
X125294Y171893D01*
X125216Y172055D01*
X125139Y172137D01*
X125111Y172181D01*
X124507Y172785D01*
X124466Y172815D01*
X124430Y172853D01*
X124359Y172894D01*
X124293Y172942D01*
X124244Y172959D01*
X124200Y172985D01*
X124120Y173003D01*
X124042Y173030D01*
X123990Y173031D01*
X123940Y173043D01*
X123858Y173036D01*
X123776Y173039D01*
X123727Y173025D01*
X123675Y173021D01*
X123599Y172991D01*
X123520Y172969D01*
X123476Y172941D01*
X123428Y172922D01*
X123365Y172870D01*
X123296Y172826D01*
X123262Y172787D01*
X123222Y172754D01*
X123177Y172686D01*
X123124Y172624D01*
X123103Y172576D01*
X123075Y172533D01*
X123063Y172483D01*
X123019Y172379D01*
X123001Y172201D01*
X122991Y172157D01*
X122991Y163199D01*
X118061Y163199D01*
X117960Y163184D01*
X117857Y163176D01*
X117829Y163164D01*
X117798Y163159D01*
X117706Y163115D01*
X117611Y163077D01*
X117587Y163057D01*
X117559Y163044D01*
X117484Y162974D01*
X117453Y162948D01*
X117437Y162968D01*
X117411Y162985D01*
X117390Y163007D01*
X117301Y163058D01*
X117216Y163115D01*
X117192Y163121D01*
X117159Y163139D01*
X116900Y163197D01*
X116862Y163194D01*
X116839Y163199D01*
X111909Y163199D01*
X111909Y173465D01*
X112082Y174111D01*
X112417Y174690D01*
X112486Y174759D01*
X112516Y174800D01*
X112554Y174836D01*
X112595Y174907D01*
X112644Y174973D01*
X112661Y175022D01*
X112686Y175066D01*
X112704Y175146D01*
X112731Y175224D01*
X112733Y175275D01*
X112744Y175326D01*
X112737Y175408D01*
X112740Y175490D01*
X112726Y175539D01*
X112722Y175591D01*
X112692Y175667D01*
X112670Y175746D01*
X112643Y175790D01*
X112623Y175838D01*
X112572Y175901D01*
X112528Y175970D01*
X112488Y176004D01*
X112456Y176044D01*
X112387Y176089D01*
X112325Y176142D01*
X112278Y176163D01*
X112235Y176191D01*
X112184Y176203D01*
X112081Y176247D01*
X111902Y176265D01*
X111858Y176275D01*
X94320Y176275D01*
X94218Y176260D01*
X94116Y176252D01*
X94088Y176240D01*
X94057Y176235D01*
X93965Y176191D01*
X93869Y176153D01*
X93846Y176133D01*
X93818Y176120D01*
X93743Y176050D01*
X93663Y175985D01*
X93646Y175959D01*
X93624Y175938D01*
X93573Y175849D01*
X93516Y175764D01*
X93510Y175740D01*
X93492Y175708D01*
X93434Y175448D01*
X93437Y175410D01*
X93432Y175387D01*
X93432Y169409D01*
X91739Y167716D01*
X90891Y167716D01*
X90789Y167701D01*
X90687Y167693D01*
X90659Y167681D01*
X90628Y167676D01*
X90536Y167632D01*
X90440Y167594D01*
X90417Y167574D01*
X90389Y167561D01*
X90314Y167491D01*
X90234Y167426D01*
X90217Y167400D01*
X90195Y167379D01*
X90144Y167290D01*
X90087Y167205D01*
X90081Y167181D01*
X90063Y167149D01*
X90005Y166889D01*
X90008Y166851D01*
X90003Y166828D01*
X90003Y166350D01*
X90018Y166248D01*
X90026Y166146D01*
X90038Y166118D01*
X90043Y166087D01*
X90087Y165995D01*
X90125Y165899D01*
X90145Y165876D01*
X90158Y165848D01*
X90228Y165773D01*
X90293Y165693D01*
X90319Y165676D01*
X90340Y165654D01*
X90429Y165603D01*
X90514Y165546D01*
X90538Y165540D01*
X90570Y165522D01*
X90830Y165464D01*
X90868Y165467D01*
X90891Y165462D01*
X91701Y165462D01*
X93394Y163769D01*
X93394Y154707D01*
X91701Y153014D01*
X82639Y153014D01*
X80946Y154707D01*
X80946Y163769D01*
X82639Y165462D01*
X83525Y165462D01*
X83627Y165477D01*
X83729Y165485D01*
X83757Y165497D01*
X83788Y165502D01*
X83880Y165546D01*
X83976Y165584D01*
X83999Y165604D01*
X84027Y165617D01*
X84102Y165687D01*
X84182Y165752D01*
X84199Y165778D01*
X84221Y165799D01*
X84272Y165888D01*
X84329Y165973D01*
X84335Y165997D01*
X84353Y166029D01*
X84411Y166289D01*
X84408Y166327D01*
X84413Y166350D01*
X84413Y166828D01*
X84398Y166930D01*
X84390Y167032D01*
X84378Y167060D01*
X84373Y167091D01*
X84329Y167183D01*
X84291Y167279D01*
X84271Y167302D01*
X84258Y167330D01*
X84188Y167405D01*
X84123Y167485D01*
X84097Y167502D01*
X84076Y167524D01*
X83987Y167575D01*
X83902Y167632D01*
X83878Y167638D01*
X83846Y167656D01*
X83586Y167714D01*
X83548Y167711D01*
X83525Y167716D01*
X82677Y167716D01*
X80984Y169409D01*
X80984Y178471D01*
X82677Y180164D01*
X89111Y180164D01*
X89132Y180167D01*
X89153Y180165D01*
X89264Y180187D01*
X89374Y180204D01*
X89393Y180213D01*
X89414Y180217D01*
X89452Y180241D01*
X89614Y180319D01*
X89696Y180396D01*
X89740Y180424D01*
X91180Y181865D01*
X123332Y181865D01*
X125229Y179968D01*
X125229Y179967D01*
X130027Y175169D01*
X130044Y175156D01*
X130058Y175140D01*
X130151Y175078D01*
X130241Y175011D01*
X130261Y175004D01*
X130279Y174993D01*
X130323Y174983D01*
X130492Y174924D01*
X130605Y174920D01*
X130656Y174909D01*
X133887Y174909D01*
X134929Y173867D01*
X134929Y149533D01*
X133887Y148491D01*
X126413Y148491D01*
G37*
%LPD*%
%LPC*%
G36*
X151813Y148491D02*
X151813Y148491D01*
X150771Y149533D01*
X150771Y173867D01*
X151813Y174909D01*
X159287Y174909D01*
X160329Y173867D01*
X160329Y165383D01*
X160344Y165281D01*
X160352Y165179D01*
X160364Y165151D01*
X160369Y165120D01*
X160413Y165028D01*
X160451Y164932D01*
X160471Y164909D01*
X160484Y164881D01*
X160554Y164806D01*
X160619Y164726D01*
X160645Y164709D01*
X160666Y164687D01*
X160755Y164636D01*
X160840Y164579D01*
X160864Y164573D01*
X160896Y164555D01*
X161156Y164497D01*
X161194Y164500D01*
X161217Y164495D01*
X171724Y164495D01*
X171826Y164510D01*
X171928Y164518D01*
X171956Y164530D01*
X171987Y164535D01*
X172079Y164579D01*
X172175Y164617D01*
X172198Y164637D01*
X172226Y164650D01*
X172301Y164720D01*
X172381Y164785D01*
X172398Y164811D01*
X172420Y164832D01*
X172471Y164921D01*
X172528Y165006D01*
X172534Y165030D01*
X172552Y165062D01*
X172610Y165322D01*
X172607Y165360D01*
X172612Y165383D01*
X172612Y166885D01*
X174305Y168578D01*
X183367Y168578D01*
X185060Y166885D01*
X185060Y165989D01*
X185075Y165887D01*
X185083Y165785D01*
X185095Y165757D01*
X185100Y165726D01*
X185144Y165634D01*
X185182Y165538D01*
X185202Y165515D01*
X185215Y165487D01*
X185285Y165412D01*
X185350Y165332D01*
X185376Y165315D01*
X185397Y165293D01*
X185486Y165242D01*
X185571Y165185D01*
X185595Y165179D01*
X185627Y165161D01*
X185887Y165103D01*
X185925Y165106D01*
X185948Y165101D01*
X195753Y165101D01*
X195773Y165104D01*
X195794Y165102D01*
X195905Y165124D01*
X196016Y165141D01*
X196034Y165150D01*
X196055Y165154D01*
X196094Y165178D01*
X196255Y165256D01*
X196337Y165333D01*
X196381Y165361D01*
X198153Y167133D01*
X202151Y167133D01*
X204979Y164305D01*
X204979Y160307D01*
X202151Y157479D01*
X198153Y157479D01*
X196381Y159251D01*
X196364Y159264D01*
X196351Y159280D01*
X196257Y159342D01*
X196167Y159409D01*
X196147Y159416D01*
X196130Y159427D01*
X196085Y159437D01*
X195916Y159496D01*
X195803Y159500D01*
X195753Y159511D01*
X185948Y159511D01*
X185846Y159496D01*
X185744Y159488D01*
X185716Y159476D01*
X185685Y159471D01*
X185593Y159427D01*
X185497Y159389D01*
X185474Y159369D01*
X185446Y159356D01*
X185371Y159286D01*
X185291Y159221D01*
X185274Y159195D01*
X185252Y159174D01*
X185201Y159085D01*
X185144Y159000D01*
X185138Y158976D01*
X185120Y158944D01*
X185062Y158684D01*
X185065Y158646D01*
X185060Y158623D01*
X185060Y157823D01*
X183367Y156130D01*
X174305Y156130D01*
X172612Y157823D01*
X172612Y158017D01*
X172597Y158119D01*
X172589Y158221D01*
X172577Y158249D01*
X172572Y158280D01*
X172528Y158372D01*
X172490Y158468D01*
X172470Y158491D01*
X172457Y158519D01*
X172387Y158594D01*
X172322Y158674D01*
X172296Y158691D01*
X172275Y158713D01*
X172186Y158764D01*
X172101Y158821D01*
X172077Y158827D01*
X172045Y158845D01*
X171785Y158903D01*
X171747Y158900D01*
X171724Y158905D01*
X161217Y158905D01*
X161115Y158890D01*
X161013Y158882D01*
X160985Y158870D01*
X160954Y158865D01*
X160862Y158821D01*
X160766Y158783D01*
X160743Y158763D01*
X160715Y158750D01*
X160640Y158680D01*
X160560Y158615D01*
X160543Y158589D01*
X160521Y158568D01*
X160470Y158479D01*
X160413Y158394D01*
X160407Y158370D01*
X160389Y158338D01*
X160331Y158078D01*
X160333Y158056D01*
X160331Y158048D01*
X160332Y158032D01*
X160329Y158017D01*
X160329Y149533D01*
X159287Y148491D01*
X151813Y148491D01*
G37*
%LPD*%
%LPC*%
G36*
X71929Y159237D02*
X71929Y159237D01*
X71929Y160127D01*
X71914Y160228D01*
X71905Y160331D01*
X71894Y160359D01*
X71889Y160390D01*
X71845Y160482D01*
X71806Y160577D01*
X71787Y160601D01*
X71774Y160629D01*
X71704Y160704D01*
X71639Y160784D01*
X71613Y160801D01*
X71592Y160823D01*
X71503Y160874D01*
X71418Y160931D01*
X71394Y160936D01*
X71361Y160955D01*
X71102Y161013D01*
X71064Y161010D01*
X71041Y161015D01*
X64944Y161015D01*
X64944Y163053D01*
X65193Y163981D01*
X65674Y164814D01*
X66354Y165494D01*
X67187Y165975D01*
X67271Y165998D01*
X67334Y166025D01*
X67401Y166043D01*
X67456Y166078D01*
X67515Y166104D01*
X67567Y166149D01*
X67625Y166186D01*
X67667Y166235D01*
X67716Y166278D01*
X67753Y166336D01*
X67797Y166388D01*
X67823Y166448D01*
X67857Y166503D01*
X67875Y166570D01*
X67902Y166633D01*
X67908Y166697D01*
X67925Y166760D01*
X67922Y166829D01*
X67929Y166897D01*
X67916Y166961D01*
X67913Y167026D01*
X67890Y167090D01*
X67877Y167158D01*
X67853Y167196D01*
X67824Y167276D01*
X67796Y167313D01*
X67794Y167320D01*
X67765Y167356D01*
X67677Y167472D01*
X67670Y167484D01*
X65744Y169409D01*
X65744Y178471D01*
X67437Y180164D01*
X67847Y180164D01*
X67949Y180179D01*
X68051Y180187D01*
X68079Y180199D01*
X68110Y180204D01*
X68202Y180248D01*
X68298Y180286D01*
X68321Y180306D01*
X68349Y180319D01*
X68424Y180389D01*
X68504Y180454D01*
X68521Y180480D01*
X68543Y180501D01*
X68594Y180590D01*
X68651Y180675D01*
X68657Y180699D01*
X68675Y180731D01*
X68733Y180991D01*
X68731Y181012D01*
X68733Y181020D01*
X68732Y181037D01*
X68735Y181052D01*
X68735Y183713D01*
X68720Y183815D01*
X68712Y183917D01*
X68700Y183945D01*
X68695Y183976D01*
X68651Y184068D01*
X68613Y184164D01*
X68593Y184187D01*
X68580Y184215D01*
X68510Y184290D01*
X68445Y184370D01*
X68419Y184387D01*
X68398Y184409D01*
X68309Y184460D01*
X68224Y184517D01*
X68200Y184523D01*
X68168Y184541D01*
X67908Y184599D01*
X67870Y184596D01*
X67847Y184601D01*
X66301Y184601D01*
X65259Y185643D01*
X65259Y198117D01*
X66301Y199159D01*
X77775Y199159D01*
X78817Y198117D01*
X78817Y185643D01*
X77775Y184601D01*
X76229Y184601D01*
X76127Y184586D01*
X76025Y184578D01*
X75997Y184566D01*
X75966Y184561D01*
X75874Y184517D01*
X75778Y184479D01*
X75755Y184459D01*
X75727Y184446D01*
X75652Y184376D01*
X75572Y184311D01*
X75555Y184285D01*
X75533Y184264D01*
X75482Y184175D01*
X75425Y184090D01*
X75419Y184066D01*
X75401Y184034D01*
X75343Y183774D01*
X75346Y183736D01*
X75341Y183713D01*
X75341Y181052D01*
X75356Y180950D01*
X75364Y180848D01*
X75376Y180820D01*
X75381Y180789D01*
X75425Y180697D01*
X75463Y180601D01*
X75483Y180578D01*
X75496Y180550D01*
X75566Y180475D01*
X75631Y180395D01*
X75657Y180378D01*
X75678Y180356D01*
X75767Y180305D01*
X75852Y180248D01*
X75876Y180242D01*
X75908Y180224D01*
X76168Y180166D01*
X76206Y180169D01*
X76229Y180164D01*
X76499Y180164D01*
X78192Y178471D01*
X78192Y169409D01*
X76250Y167468D01*
X76224Y167432D01*
X76212Y167421D01*
X76203Y167406D01*
X76161Y167364D01*
X76131Y167306D01*
X76092Y167254D01*
X76070Y167189D01*
X76038Y167128D01*
X76026Y167064D01*
X76005Y167003D01*
X76003Y166934D01*
X75990Y166866D01*
X75998Y166802D01*
X75996Y166737D01*
X76014Y166671D01*
X76022Y166603D01*
X76049Y166543D01*
X76066Y166480D01*
X76103Y166423D01*
X76131Y166360D01*
X76174Y166311D01*
X76208Y166256D01*
X76261Y166212D01*
X76306Y166160D01*
X76346Y166139D01*
X76411Y166084D01*
X76636Y165988D01*
X76648Y165982D01*
X76673Y165975D01*
X77506Y165494D01*
X78186Y164814D01*
X78667Y163981D01*
X78916Y163053D01*
X78916Y161015D01*
X72819Y161015D01*
X72718Y161000D01*
X72615Y160991D01*
X72587Y160980D01*
X72556Y160975D01*
X72464Y160931D01*
X72369Y160892D01*
X72345Y160873D01*
X72317Y160860D01*
X72242Y160790D01*
X72162Y160725D01*
X72145Y160699D01*
X72123Y160678D01*
X72072Y160589D01*
X72015Y160504D01*
X72010Y160480D01*
X71991Y160447D01*
X71933Y160188D01*
X71936Y160150D01*
X71931Y160127D01*
X71931Y159237D01*
X71929Y159237D01*
G37*
%LPD*%
%LPC*%
G36*
X128049Y69595D02*
X128049Y69595D01*
X125221Y72423D01*
X125221Y76421D01*
X126993Y78193D01*
X127006Y78210D01*
X127022Y78223D01*
X127084Y78317D01*
X127151Y78407D01*
X127158Y78427D01*
X127169Y78444D01*
X127179Y78489D01*
X127238Y78658D01*
X127242Y78771D01*
X127253Y78821D01*
X127253Y81003D01*
X127238Y81105D01*
X127230Y81207D01*
X127218Y81235D01*
X127213Y81266D01*
X127169Y81358D01*
X127131Y81454D01*
X127111Y81477D01*
X127098Y81505D01*
X127028Y81580D01*
X126963Y81660D01*
X126937Y81677D01*
X126916Y81699D01*
X126827Y81750D01*
X126742Y81807D01*
X126718Y81813D01*
X126686Y81831D01*
X126426Y81889D01*
X126416Y81888D01*
X125371Y82933D01*
X125371Y107267D01*
X126413Y108309D01*
X133887Y108309D01*
X134929Y107267D01*
X134929Y82933D01*
X133887Y81891D01*
X133731Y81891D01*
X133629Y81876D01*
X133527Y81868D01*
X133499Y81856D01*
X133468Y81851D01*
X133376Y81807D01*
X133280Y81769D01*
X133257Y81749D01*
X133229Y81736D01*
X133154Y81666D01*
X133074Y81601D01*
X133057Y81575D01*
X133035Y81554D01*
X132984Y81465D01*
X132927Y81380D01*
X132921Y81356D01*
X132903Y81324D01*
X132845Y81064D01*
X132848Y81026D01*
X132843Y81003D01*
X132843Y78821D01*
X132846Y78801D01*
X132844Y78780D01*
X132866Y78669D01*
X132883Y78558D01*
X132892Y78540D01*
X132896Y78519D01*
X132920Y78480D01*
X132998Y78319D01*
X133075Y78237D01*
X133103Y78193D01*
X134875Y76421D01*
X134875Y72423D01*
X132047Y69595D01*
X128049Y69595D01*
G37*
%LPD*%
%LPC*%
G36*
X139113Y148491D02*
X139113Y148491D01*
X138071Y149533D01*
X138071Y173867D01*
X139113Y174909D01*
X146587Y174909D01*
X147629Y173867D01*
X147629Y149533D01*
X146587Y148491D01*
X139113Y148491D01*
G37*
%LPD*%
%LPC*%
G36*
X17027Y158277D02*
X17027Y158277D01*
X17027Y165041D01*
X25585Y165041D01*
X26231Y164868D01*
X26810Y164533D01*
X27283Y164060D01*
X27618Y163481D01*
X27791Y162835D01*
X27791Y158277D01*
X17027Y158277D01*
G37*
%LPD*%
%LPC*%
G36*
X17027Y102277D02*
X17027Y102277D01*
X17027Y109041D01*
X25585Y109041D01*
X26231Y108868D01*
X26810Y108533D01*
X27283Y108060D01*
X27618Y107481D01*
X27791Y106835D01*
X27791Y102277D01*
X17027Y102277D01*
G37*
%LPD*%
%LPC*%
G36*
X245409Y102277D02*
X245409Y102277D01*
X245409Y106835D01*
X245582Y107481D01*
X245917Y108060D01*
X246390Y108533D01*
X246969Y108868D01*
X247615Y109041D01*
X256173Y109041D01*
X256173Y102277D01*
X245409Y102277D01*
G37*
%LPD*%
%LPC*%
G36*
X245409Y158277D02*
X245409Y158277D01*
X245409Y162835D01*
X245582Y163481D01*
X245917Y164060D01*
X246390Y164533D01*
X246969Y164868D01*
X247615Y165041D01*
X256173Y165041D01*
X256173Y158277D01*
X245409Y158277D01*
G37*
%LPD*%
%LPC*%
G36*
X17027Y147959D02*
X17027Y147959D01*
X17027Y154723D01*
X27791Y154723D01*
X27791Y150165D01*
X27618Y149519D01*
X27283Y148940D01*
X26810Y148467D01*
X26231Y148132D01*
X25585Y147959D01*
X17027Y147959D01*
G37*
%LPD*%
%LPC*%
G36*
X17027Y91959D02*
X17027Y91959D01*
X17027Y98723D01*
X27791Y98723D01*
X27791Y94165D01*
X27618Y93519D01*
X27283Y92940D01*
X26810Y92467D01*
X26231Y92132D01*
X25585Y91959D01*
X17027Y91959D01*
G37*
%LPD*%
%LPC*%
G36*
X247615Y147959D02*
X247615Y147959D01*
X246969Y148132D01*
X246390Y148467D01*
X245917Y148940D01*
X245582Y149519D01*
X245409Y150165D01*
X245409Y154723D01*
X256173Y154723D01*
X256173Y147959D01*
X247615Y147959D01*
G37*
%LPD*%
%LPC*%
G36*
X247615Y91959D02*
X247615Y91959D01*
X246969Y92132D01*
X246390Y92467D01*
X245917Y92940D01*
X245582Y93519D01*
X245409Y94165D01*
X245409Y98723D01*
X256173Y98723D01*
X256173Y91959D01*
X247615Y91959D01*
G37*
%LPD*%
%LPC*%
G36*
X74877Y16777D02*
X74877Y16777D01*
X74877Y25161D01*
X81055Y25161D01*
X81701Y24988D01*
X82280Y24653D01*
X82753Y24180D01*
X83088Y23601D01*
X83261Y22955D01*
X83261Y16777D01*
X74877Y16777D01*
G37*
%LPD*%
%LPC*%
G36*
X62939Y16777D02*
X62939Y16777D01*
X62939Y22955D01*
X63112Y23601D01*
X63447Y24180D01*
X63920Y24653D01*
X64499Y24988D01*
X65145Y25161D01*
X71323Y25161D01*
X71323Y16777D01*
X62939Y16777D01*
G37*
%LPD*%
%LPC*%
G36*
X118949Y147729D02*
X118949Y147729D01*
X118949Y160201D01*
X122991Y160201D01*
X122991Y149935D01*
X122818Y149289D01*
X122483Y148710D01*
X122010Y148237D01*
X121431Y147902D01*
X120785Y147729D01*
X118949Y147729D01*
G37*
%LPD*%
%LPC*%
G36*
X114115Y147729D02*
X114115Y147729D01*
X113469Y147902D01*
X112890Y148237D01*
X112417Y148710D01*
X112082Y149289D01*
X111909Y149935D01*
X111909Y160201D01*
X115951Y160201D01*
X115951Y147729D01*
X114115Y147729D01*
G37*
%LPD*%
%LPC*%
G36*
X92815Y193657D02*
X92815Y193657D01*
X92815Y199921D01*
X96373Y199921D01*
X97019Y199748D01*
X97598Y199413D01*
X98071Y198940D01*
X98406Y198361D01*
X98579Y197715D01*
X98579Y193657D01*
X92815Y193657D01*
G37*
%LPD*%
%LPC*%
G36*
X83497Y193657D02*
X83497Y193657D01*
X83497Y197715D01*
X83670Y198361D01*
X84005Y198940D01*
X84478Y199413D01*
X85057Y199748D01*
X85703Y199921D01*
X89261Y199921D01*
X89261Y193657D01*
X83497Y193657D01*
G37*
%LPD*%
%LPC*%
G36*
X92815Y183839D02*
X92815Y183839D01*
X92815Y190103D01*
X98579Y190103D01*
X98579Y186045D01*
X98406Y185399D01*
X98071Y184820D01*
X97598Y184347D01*
X97019Y184012D01*
X96373Y183839D01*
X92815Y183839D01*
G37*
%LPD*%
%LPC*%
G36*
X85703Y183839D02*
X85703Y183839D01*
X85057Y184012D01*
X84478Y184347D01*
X84005Y184820D01*
X83670Y185399D01*
X83497Y186045D01*
X83497Y190103D01*
X89261Y190103D01*
X89261Y183839D01*
X85703Y183839D01*
G37*
%LPD*%
%LPC*%
G36*
X53499Y144999D02*
X53499Y144999D01*
X53499Y149041D01*
X59085Y149041D01*
X59731Y148868D01*
X60310Y148533D01*
X60783Y148060D01*
X61118Y147481D01*
X61291Y146835D01*
X61291Y144999D01*
X53499Y144999D01*
G37*
%LPD*%
%LPC*%
G36*
X222699Y107959D02*
X222699Y107959D01*
X222699Y112001D01*
X230491Y112001D01*
X230491Y110165D01*
X230318Y109519D01*
X229983Y108940D01*
X229510Y108467D01*
X228931Y108132D01*
X228285Y107959D01*
X222699Y107959D01*
G37*
%LPD*%
%LPC*%
G36*
X214115Y107959D02*
X214115Y107959D01*
X213469Y108132D01*
X212890Y108467D01*
X212417Y108940D01*
X212082Y109519D01*
X211909Y110165D01*
X211909Y112001D01*
X219701Y112001D01*
X219701Y107959D01*
X214115Y107959D01*
G37*
%LPD*%
%LPC*%
G36*
X180959Y81725D02*
X180959Y81725D01*
X180959Y86934D01*
X182997Y86934D01*
X183925Y86685D01*
X184758Y86204D01*
X185438Y85524D01*
X185919Y84691D01*
X186168Y83763D01*
X186168Y81725D01*
X180959Y81725D01*
G37*
%LPD*%
%LPC*%
G36*
X73707Y152252D02*
X73707Y152252D01*
X73707Y157461D01*
X78916Y157461D01*
X78916Y155423D01*
X78667Y154495D01*
X78186Y153662D01*
X77506Y152982D01*
X76673Y152501D01*
X75745Y152252D01*
X73707Y152252D01*
G37*
%LPD*%
%LPC*%
G36*
X172196Y81725D02*
X172196Y81725D01*
X172196Y83763D01*
X172445Y84691D01*
X172926Y85524D01*
X173606Y86204D01*
X174439Y86685D01*
X175367Y86934D01*
X177405Y86934D01*
X177405Y81725D01*
X172196Y81725D01*
G37*
%LPD*%
%LPC*%
G36*
X180959Y72962D02*
X180959Y72962D01*
X180959Y78171D01*
X186168Y78171D01*
X186168Y76133D01*
X185919Y75205D01*
X185438Y74372D01*
X184758Y73692D01*
X183925Y73211D01*
X182997Y72962D01*
X180959Y72962D01*
G37*
%LPD*%
%LPC*%
G36*
X68115Y152252D02*
X68115Y152252D01*
X67187Y152501D01*
X66354Y152982D01*
X65674Y153662D01*
X65193Y154495D01*
X64944Y155423D01*
X64944Y157461D01*
X70153Y157461D01*
X70153Y152252D01*
X68115Y152252D01*
G37*
%LPD*%
%LPC*%
G36*
X175367Y72962D02*
X175367Y72962D01*
X174439Y73211D01*
X173606Y73692D01*
X172926Y74372D01*
X172445Y75205D01*
X172196Y76133D01*
X172196Y78171D01*
X177405Y78171D01*
X177405Y72962D01*
X175367Y72962D01*
G37*
%LPD*%
%LPC*%
G36*
X91037Y191879D02*
X91037Y191879D01*
X91037Y191881D01*
X91039Y191881D01*
X91039Y191879D01*
X91037Y191879D01*
G37*
%LPD*%
%LPC*%
G36*
X179181Y79947D02*
X179181Y79947D01*
X179181Y79949D01*
X179183Y79949D01*
X179183Y79947D01*
X179181Y79947D01*
G37*
%LPD*%
D10*
X182516Y83282D02*
X182516Y76614D01*
X175848Y76614D01*
X175848Y83282D01*
X182516Y83282D01*
X182516Y78726D02*
X175848Y78726D01*
X175848Y80838D02*
X182516Y80838D01*
X182516Y82950D02*
X175848Y82950D01*
X182516Y91854D02*
X182516Y98522D01*
X182516Y91854D02*
X175848Y91854D01*
X175848Y98522D01*
X182516Y98522D01*
X182516Y93966D02*
X175848Y93966D01*
X175848Y96078D02*
X182516Y96078D01*
X182516Y98190D02*
X175848Y98190D01*
D11*
X30496Y192670D02*
X25734Y192670D01*
X30496Y192670D02*
X30496Y186258D01*
X25734Y186258D01*
X25734Y192670D01*
X25734Y187767D02*
X30496Y187767D01*
X30496Y189276D02*
X25734Y189276D01*
X25734Y190785D02*
X30496Y190785D01*
X30496Y192294D02*
X25734Y192294D01*
X16526Y192670D02*
X11764Y192670D01*
X16526Y192670D02*
X16526Y186258D01*
X11764Y186258D01*
X11764Y192670D01*
X11764Y187767D02*
X16526Y187767D01*
X16526Y189276D02*
X11764Y189276D01*
X11764Y190785D02*
X16526Y190785D01*
X16526Y192294D02*
X11764Y192294D01*
D12*
X120192Y202212D02*
X128192Y202212D01*
X120192Y202212D02*
X120192Y208212D01*
X128192Y208212D01*
X128192Y202212D01*
X128192Y204112D02*
X120192Y204112D01*
X120192Y206012D02*
X128192Y206012D01*
X128192Y207912D02*
X120192Y207912D01*
X144192Y202212D02*
X152192Y202212D01*
X144192Y202212D02*
X144192Y208212D01*
X152192Y208212D01*
X152192Y202212D01*
X152192Y204112D02*
X144192Y204112D01*
X144192Y206012D02*
X152192Y206012D01*
X152192Y207912D02*
X144192Y207912D01*
D13*
X85800Y480000D03*
X136600Y480000D03*
X187400Y480000D03*
D14*
X52000Y143500D03*
X52000Y133500D03*
X52000Y123500D03*
X52000Y113500D03*
D15*
X15250Y100500D03*
X15250Y156500D03*
D14*
X221200Y113500D03*
X221200Y123500D03*
X221200Y133500D03*
X221200Y143500D03*
D15*
X257950Y156500D03*
X257950Y100500D03*
D16*
X73100Y15000D03*
D17*
X98500Y15000D03*
X123900Y15000D03*
X149300Y15000D03*
X174700Y15000D03*
X200100Y15000D03*
D18*
X230584Y206776D03*
X222456Y206776D03*
X214328Y206776D03*
D19*
X222456Y206776D02*
X230838Y206776D01*
X222456Y206776D02*
X213820Y206776D01*
D20*
X72038Y191880D03*
X91038Y191880D03*
X81538Y213880D03*
D10*
X160290Y201878D02*
X166958Y201878D01*
X160290Y201878D02*
X160290Y208546D01*
X166958Y208546D01*
X166958Y201878D01*
X166958Y203990D02*
X160290Y203990D01*
X160290Y206102D02*
X166958Y206102D01*
X166958Y208214D02*
X160290Y208214D01*
X175530Y201878D02*
X182198Y201878D01*
X175530Y201878D02*
X175530Y208546D01*
X182198Y208546D01*
X182198Y201878D01*
X182198Y203990D02*
X175530Y203990D01*
X175530Y206102D02*
X182198Y206102D01*
X182198Y208214D02*
X175530Y208214D01*
X32750Y208332D02*
X26082Y208332D01*
X32750Y208332D02*
X32750Y201664D01*
X26082Y201664D01*
X26082Y208332D01*
X26082Y203776D02*
X32750Y203776D01*
X32750Y205888D02*
X26082Y205888D01*
X26082Y208000D02*
X32750Y208000D01*
X17510Y208332D02*
X10842Y208332D01*
X17510Y208332D02*
X17510Y201664D01*
X10842Y201664D01*
X10842Y208332D01*
X10842Y203776D02*
X17510Y203776D01*
X17510Y205888D02*
X10842Y205888D01*
X10842Y208000D02*
X17510Y208000D01*
X68596Y155904D02*
X75264Y155904D01*
X68596Y155904D02*
X68596Y162572D01*
X75264Y162572D01*
X75264Y155904D01*
X75264Y158016D02*
X68596Y158016D01*
X68596Y160128D02*
X75264Y160128D01*
X75264Y162240D02*
X68596Y162240D01*
X83836Y155904D02*
X90504Y155904D01*
X83836Y155904D02*
X83836Y162572D01*
X90504Y162572D01*
X90504Y155904D01*
X90504Y158016D02*
X83836Y158016D01*
X83836Y160128D02*
X90504Y160128D01*
X90504Y162240D02*
X83836Y162240D01*
X219000Y168672D02*
X219000Y175340D01*
X219000Y168672D02*
X212332Y168672D01*
X212332Y175340D01*
X219000Y175340D01*
X219000Y170784D02*
X212332Y170784D01*
X212332Y172896D02*
X219000Y172896D01*
X219000Y175008D02*
X212332Y175008D01*
X219000Y183912D02*
X219000Y190580D01*
X219000Y183912D02*
X212332Y183912D01*
X212332Y190580D01*
X219000Y190580D01*
X219000Y186024D02*
X212332Y186024D01*
X212332Y188136D02*
X219000Y188136D01*
X219000Y190248D02*
X212332Y190248D01*
X233732Y175340D02*
X233732Y168672D01*
X227064Y168672D01*
X227064Y175340D01*
X233732Y175340D01*
X233732Y170784D02*
X227064Y170784D01*
X227064Y172896D02*
X233732Y172896D01*
X233732Y175008D02*
X227064Y175008D01*
X233732Y183912D02*
X233732Y190580D01*
X233732Y183912D02*
X227064Y183912D01*
X227064Y190580D01*
X233732Y190580D01*
X233732Y186024D02*
X227064Y186024D01*
X227064Y188136D02*
X233732Y188136D01*
X233732Y190248D02*
X227064Y190248D01*
X182170Y165688D02*
X182170Y159020D01*
X175502Y159020D01*
X175502Y165688D01*
X182170Y165688D01*
X182170Y161132D02*
X175502Y161132D01*
X175502Y163244D02*
X182170Y163244D01*
X182170Y165356D02*
X175502Y165356D01*
X182170Y174260D02*
X182170Y180928D01*
X182170Y174260D02*
X175502Y174260D01*
X175502Y180928D01*
X182170Y180928D01*
X182170Y176372D02*
X175502Y176372D01*
X175502Y178484D02*
X182170Y178484D01*
X182170Y180596D02*
X175502Y180596D01*
X75302Y170606D02*
X68634Y170606D01*
X68634Y177274D01*
X75302Y177274D01*
X75302Y170606D01*
X75302Y172718D02*
X68634Y172718D01*
X68634Y174830D02*
X75302Y174830D01*
X75302Y176942D02*
X68634Y176942D01*
X83874Y170606D02*
X90542Y170606D01*
X83874Y170606D02*
X83874Y177274D01*
X90542Y177274D01*
X90542Y170606D01*
X90542Y172718D02*
X83874Y172718D01*
X83874Y174830D02*
X90542Y174830D01*
X90542Y176942D02*
X83874Y176942D01*
D21*
X136600Y240000D03*
X76600Y382000D03*
X196600Y382000D03*
D22*
X76600Y260000D03*
X196600Y260000D03*
D23*
X142850Y161700D03*
X142850Y95100D03*
X155550Y161700D03*
X130150Y161700D03*
X117450Y161700D03*
X155550Y95100D03*
X130150Y95100D03*
X117450Y95100D03*
D24*
X111252Y9144D03*
D19*
X215666Y205438D02*
X214328Y206776D01*
X215666Y205438D02*
X215666Y187246D01*
X230584Y187432D02*
X230584Y206776D01*
X230584Y187432D02*
X230398Y187246D01*
X117450Y95100D02*
X117450Y21450D01*
X123900Y15000D01*
X235458Y166946D02*
X230398Y172006D01*
X225956Y133500D02*
X221200Y133500D01*
X235458Y143002D02*
X235458Y166946D01*
X235458Y143002D02*
X225956Y133500D01*
X221200Y133500D02*
X181506Y133500D01*
X181356Y133350D01*
X181744Y133350D01*
X181804Y133410D01*
D24*
X181804Y133410D03*
X117602Y133350D03*
D19*
X117602Y125222D01*
X117602Y121666D01*
X117602Y95252D01*
X117450Y95100D01*
X115880Y123500D02*
X52000Y123500D01*
X115880Y123500D02*
X117602Y125222D01*
X115880Y123500D02*
X117602Y121778D01*
X117602Y121666D01*
X142850Y95100D02*
X142850Y93218D01*
X142850Y21450D01*
X149300Y15000D01*
X221200Y166472D02*
X215666Y172006D01*
X221200Y166472D02*
X221200Y143500D01*
X100876Y113500D02*
X52000Y113500D01*
X100876Y113500D02*
X101092Y113284D01*
D24*
X101092Y113284D03*
X143002Y113284D03*
D19*
X143002Y93370D01*
X142850Y93218D01*
X143002Y113284D02*
X173218Y143500D01*
X221200Y143500D01*
D25*
X40386Y127762D02*
X40386Y107188D01*
X49022Y98552D01*
X191064Y123500D02*
X221200Y123500D01*
X191064Y123500D02*
X179182Y111618D01*
X179182Y95188D02*
X155638Y95188D01*
X155550Y95100D01*
X40386Y127762D02*
X40386Y130810D01*
X40386Y135128D01*
X40386Y177193D01*
X28115Y189464D01*
X178864Y177622D02*
X178864Y205212D01*
X178864Y177622D02*
X178836Y177594D01*
X178864Y205212D02*
X194632Y220980D01*
X222456Y215948D02*
X222456Y206776D01*
X217424Y220980D02*
X194632Y220980D01*
X217424Y220980D02*
X222456Y215948D01*
X179182Y111618D02*
X179182Y95188D01*
D24*
X179182Y111618D03*
D25*
X66802Y98552D02*
X49022Y98552D01*
X66802Y98552D02*
X98500Y66854D01*
X52000Y133500D02*
X42014Y133500D01*
X40386Y135128D01*
X42014Y133500D02*
X40386Y131872D01*
X40386Y130810D01*
D24*
X98500Y66854D03*
D25*
X98500Y15000D01*
X178836Y177594D02*
X179042Y177800D01*
X189484Y177800D01*
D24*
X189484Y177800D03*
D25*
X163624Y205212D02*
X148192Y205212D01*
X163624Y205212D02*
X196600Y238188D01*
X196600Y260000D01*
D19*
X130150Y171094D02*
X130150Y161700D01*
X130150Y171094D02*
X122174Y179070D01*
X92338Y179070D01*
X87208Y173940D01*
X87208Y159276D01*
X87170Y159238D01*
X14145Y189464D02*
X14145Y204967D01*
X14176Y204998D01*
D26*
X136600Y240000D02*
X136600Y480000D01*
X187400Y480000D02*
X187400Y391200D01*
X196600Y382000D01*
X85800Y391200D02*
X85800Y480000D01*
X85800Y391200D02*
X76600Y382000D01*
D19*
X155550Y161700D02*
X178182Y161700D01*
X178836Y162354D01*
X200100Y104700D02*
X200100Y15000D01*
X178182Y161700D02*
X178788Y162306D01*
D24*
X200100Y104700D03*
X200152Y162306D03*
D19*
X178788Y162306D01*
D24*
X130048Y74422D03*
D19*
X130048Y94998D01*
X130150Y95100D01*
D25*
X72038Y174010D02*
X72038Y191880D01*
X72038Y174010D02*
X71968Y173940D01*
X81538Y255062D02*
X76600Y260000D01*
X81538Y255062D02*
X81538Y213880D01*
X38298Y213880D02*
X29416Y204998D01*
X38298Y213880D02*
X81538Y213880D01*
X90206Y205212D01*
X124192Y205212D01*
M02*
