G04 EAGLE Gerber RS-274X export*
G75*
%MOMM*%
%FSLAX34Y34*%
%LPD*%
%AMOC8*
5,1,8,0,0,1.08239X$1,22.5*%
G01*
%ADD10C,0.177800*%
%ADD11R,0.120000X0.020000*%
%ADD12R,0.340000X0.020000*%
%ADD13R,0.320000X0.020000*%
%ADD14R,0.140000X0.020000*%
%ADD15R,0.280000X0.020000*%
%ADD16R,0.360000X0.020000*%
%ADD17R,0.420000X0.020000*%
%ADD18R,0.380000X0.020000*%
%ADD19R,0.480000X0.020000*%
%ADD20R,0.540000X0.020000*%
%ADD21R,0.560000X0.020000*%
%ADD22R,0.400000X0.020000*%
%ADD23R,0.640000X0.020000*%
%ADD24R,0.620000X0.020000*%
%ADD25R,0.700000X0.020000*%
%ADD26R,0.660000X0.020000*%
%ADD27R,0.740000X0.020000*%
%ADD28R,1.080000X0.020000*%
%ADD29R,0.800000X0.020000*%
%ADD30R,1.100000X0.020000*%
%ADD31R,0.440000X0.020000*%
%ADD32R,0.840000X0.020000*%
%ADD33R,1.120000X0.020000*%
%ADD34R,0.460000X0.020000*%
%ADD35R,0.860000X0.020000*%
%ADD36R,0.900000X0.020000*%
%ADD37R,1.140000X0.020000*%
%ADD38R,0.920000X0.020000*%
%ADD39R,1.160000X0.020000*%
%ADD40R,0.960000X0.020000*%
%ADD41R,0.500000X0.020000*%
%ADD42R,0.520000X0.020000*%
%ADD43R,0.940000X0.020000*%
%ADD44R,0.260000X0.020000*%
%ADD45R,0.180000X0.020000*%
%ADD46R,0.580000X0.020000*%
%ADD47R,0.060000X0.020000*%
%ADD48R,0.600000X0.020000*%
%ADD49R,0.300000X0.020000*%
%ADD50R,0.040000X0.020000*%
%ADD51R,0.100000X0.020000*%
%ADD52R,0.160000X0.020000*%
%ADD53R,0.220000X0.020000*%
%ADD54R,0.980000X0.020000*%
%ADD55R,0.880000X0.020000*%
%ADD56R,0.760000X0.020000*%
%ADD57R,1.060000X0.020000*%
%ADD58R,0.720000X0.020000*%
%ADD59R,0.820000X0.020000*%
%ADD60R,1.180000X0.020000*%
%ADD61R,1.340000X0.020000*%
%ADD62R,1.460000X0.020000*%
%ADD63R,1.600000X0.020000*%
%ADD64R,1.700000X0.020000*%
%ADD65R,1.820000X0.020000*%
%ADD66R,1.900000X0.020000*%
%ADD67R,1.980000X0.020000*%
%ADD68R,2.100000X0.020000*%
%ADD69R,2.160000X0.020000*%
%ADD70R,2.260000X0.020000*%
%ADD71R,2.340000X0.020000*%
%ADD72R,2.400000X0.020000*%
%ADD73R,2.480000X0.020000*%
%ADD74R,2.540000X0.020000*%
%ADD75R,2.600000X0.020000*%
%ADD76R,2.680000X0.020000*%
%ADD77R,2.720000X0.020000*%
%ADD78R,2.800000X0.020000*%
%ADD79R,2.840000X0.020000*%
%ADD80R,2.900000X0.020000*%
%ADD81R,2.960000X0.020000*%
%ADD82R,3.000000X0.020000*%
%ADD83R,3.060000X0.020000*%
%ADD84R,3.120000X0.020000*%
%ADD85R,3.160000X0.020000*%
%ADD86R,3.200000X0.020000*%
%ADD87R,3.260000X0.020000*%
%ADD88R,3.300000X0.020000*%
%ADD89R,3.340000X0.020000*%
%ADD90R,3.380000X0.020000*%
%ADD91R,3.420000X0.020000*%
%ADD92R,3.460000X0.020000*%
%ADD93R,3.520000X0.020000*%
%ADD94R,3.540000X0.020000*%
%ADD95R,3.580000X0.020000*%
%ADD96R,3.620000X0.020000*%
%ADD97R,3.660000X0.020000*%
%ADD98R,3.700000X0.020000*%
%ADD99R,3.740000X0.020000*%
%ADD100R,3.780000X0.020000*%
%ADD101R,3.800000X0.020000*%
%ADD102R,3.840000X0.020000*%
%ADD103R,3.860000X0.020000*%
%ADD104R,3.900000X0.020000*%
%ADD105R,3.940000X0.020000*%
%ADD106R,3.960000X0.020000*%
%ADD107R,3.980000X0.020000*%
%ADD108R,4.020000X0.020000*%
%ADD109R,4.060000X0.020000*%
%ADD110R,4.080000X0.020000*%
%ADD111R,4.100000X0.020000*%
%ADD112R,4.120000X0.020000*%
%ADD113R,4.160000X0.020000*%
%ADD114R,4.180000X0.020000*%
%ADD115R,4.200000X0.020000*%
%ADD116R,4.240000X0.020000*%
%ADD117R,4.260000X0.020000*%
%ADD118R,4.280000X0.020000*%
%ADD119R,4.300000X0.020000*%
%ADD120R,4.320000X0.020000*%
%ADD121R,4.340000X0.020000*%
%ADD122R,4.380000X0.020000*%
%ADD123R,4.400000X0.020000*%
%ADD124R,4.440000X0.020000*%
%ADD125R,4.460000X0.020000*%
%ADD126R,4.500000X0.020000*%
%ADD127R,4.520000X0.020000*%
%ADD128R,4.540000X0.020000*%
%ADD129R,4.560000X0.020000*%
%ADD130R,4.580000X0.020000*%
%ADD131R,4.600000X0.020000*%
%ADD132R,4.620000X0.020000*%
%ADD133R,4.640000X0.020000*%
%ADD134R,4.660000X0.020000*%
%ADD135R,4.680000X0.020000*%
%ADD136R,4.700000X0.020000*%
%ADD137R,4.720000X0.020000*%
%ADD138R,4.740000X0.020000*%
%ADD139R,0.680000X0.020000*%
%ADD140R,1.480000X0.020000*%
%ADD141R,1.580000X0.020000*%
%ADD142R,1.560000X0.020000*%
%ADD143R,1.540000X0.020000*%
%ADD144R,1.520000X0.020000*%
%ADD145R,1.500000X0.020000*%
%ADD146R,1.440000X0.020000*%
%ADD147R,1.400000X0.020000*%
%ADD148R,1.420000X0.020000*%
%ADD149R,1.380000X0.020000*%
%ADD150R,1.360000X0.020000*%
%ADD151R,1.320000X0.020000*%
%ADD152R,1.300000X0.020000*%
%ADD153R,1.260000X0.020000*%
%ADD154R,1.220000X0.020000*%
%ADD155R,1.200000X0.020000*%
%ADD156R,1.040000X0.020000*%
%ADD157R,1.020000X0.020000*%
%ADD158R,1.000000X0.020000*%
%ADD159R,1.280000X0.020000*%
%ADD160R,0.780000X0.020000*%
%ADD161R,1.240000X0.020000*%
%ADD162R,0.020000X0.020000*%
%ADD163R,1.840000X0.020000*%
%ADD164R,1.800000X0.020000*%
%ADD165R,1.780000X0.020000*%
%ADD166R,1.760000X0.020000*%
%ADD167R,1.740000X0.020000*%
%ADD168R,1.680000X0.020000*%
%ADD169R,1.660000X0.020000*%
%ADD170R,1.620000X0.020000*%
%ADD171C,0.152400*%

G36*
X176211Y286914D02*
X176211Y286914D01*
X176210Y286914D01*
X176211Y286915D01*
X176208Y289305D01*
X176203Y291692D01*
X176200Y294081D01*
X176195Y296471D01*
X176192Y298858D01*
X176187Y301247D01*
X176184Y303634D01*
X176184Y303637D01*
X176179Y306024D01*
X176176Y308414D01*
X176174Y310801D01*
X176168Y313190D01*
X176166Y315577D01*
X176160Y317967D01*
X176158Y320354D01*
X176153Y320360D01*
X176152Y320364D01*
X173850Y321698D01*
X171548Y323031D01*
X169249Y324365D01*
X164646Y327032D01*
X162347Y328365D01*
X157744Y331032D01*
X155445Y332366D01*
X153143Y333699D01*
X150836Y335038D01*
X148530Y336374D01*
X146225Y337710D01*
X143918Y339049D01*
X141611Y340388D01*
X139307Y341724D01*
X137000Y343063D01*
X134696Y344402D01*
X132389Y345743D01*
X130108Y347076D01*
X132502Y348112D01*
X134927Y349141D01*
X137351Y350168D01*
X139778Y351192D01*
X142205Y352213D01*
X144632Y353235D01*
X147059Y354254D01*
X149488Y355275D01*
X151915Y356291D01*
X154222Y357259D01*
X156526Y358228D01*
X158833Y359193D01*
X161138Y360161D01*
X163445Y361127D01*
X165749Y362095D01*
X168056Y363063D01*
X170360Y364031D01*
X172667Y364999D01*
X174971Y365967D01*
X174972Y365967D01*
X176150Y366469D01*
X176153Y366474D01*
X176157Y366478D01*
X176156Y366480D01*
X176157Y366483D01*
X176150Y366486D01*
X176146Y366492D01*
X170844Y366492D01*
X168193Y366494D01*
X144336Y366494D01*
X141685Y366497D01*
X120483Y366497D01*
X117832Y366500D01*
X96626Y366500D01*
X96615Y366489D01*
X96615Y366488D01*
X96614Y366488D01*
X96617Y364095D01*
X96622Y361700D01*
X96625Y359308D01*
X96630Y356913D01*
X96633Y354521D01*
X96636Y352126D01*
X96641Y349731D01*
X96644Y347339D01*
X96649Y344944D01*
X96652Y342551D01*
X96657Y340156D01*
X96660Y337764D01*
X96665Y335369D01*
X96668Y332974D01*
X96673Y332968D01*
X96674Y332964D01*
X98970Y331636D01*
X101264Y330305D01*
X103560Y328977D01*
X105856Y327646D01*
X108150Y326315D01*
X110446Y324987D01*
X112740Y323656D01*
X115036Y322325D01*
X117332Y320997D01*
X119626Y319666D01*
X126531Y315666D01*
X128832Y314329D01*
X133436Y311662D01*
X135735Y310326D01*
X138036Y308993D01*
X140335Y307654D01*
X142614Y306327D01*
X140190Y305272D01*
X137734Y304230D01*
X135280Y303192D01*
X132824Y302155D01*
X130365Y301120D01*
X127906Y300085D01*
X125447Y299053D01*
X122988Y298021D01*
X120683Y297055D01*
X118376Y296087D01*
X116070Y295119D01*
X113763Y294154D01*
X111458Y293186D01*
X109151Y292217D01*
X106844Y291252D01*
X104540Y290284D01*
X102233Y289316D01*
X99929Y288348D01*
X98249Y287641D01*
X96568Y286934D01*
X96566Y286929D01*
X96561Y286925D01*
X96563Y286923D01*
X96562Y286920D01*
X96568Y286917D01*
X96573Y286911D01*
X101880Y286911D01*
X104534Y286908D01*
X139040Y286908D01*
X141693Y286906D01*
X173545Y286906D01*
X176199Y286903D01*
X176211Y286914D01*
G37*
G36*
X144996Y265762D02*
X144996Y265762D01*
X146385Y265831D01*
X146387Y265833D01*
X146388Y265832D01*
X148573Y266581D01*
X148574Y266583D01*
X148576Y266583D01*
X150475Y267892D01*
X150475Y267894D01*
X150477Y267894D01*
X151933Y269684D01*
X151933Y269686D01*
X151935Y269687D01*
X152807Y271821D01*
X152806Y271823D01*
X152808Y271824D01*
X152989Y273843D01*
X152988Y273844D01*
X152989Y273845D01*
X152760Y275856D01*
X152758Y275858D01*
X152759Y275860D01*
X151732Y278156D01*
X151730Y278157D01*
X151730Y278159D01*
X150074Y280053D01*
X150072Y280053D01*
X150071Y280055D01*
X148540Y280994D01*
X148539Y280994D01*
X148539Y280995D01*
X146869Y281664D01*
X146867Y281663D01*
X146866Y281665D01*
X144996Y281836D01*
X144682Y281865D01*
X144680Y281864D01*
X144679Y281865D01*
X142492Y281673D01*
X142491Y281671D01*
X142489Y281672D01*
X140611Y280907D01*
X140611Y280905D01*
X140609Y280906D01*
X138929Y279775D01*
X138928Y279773D01*
X138927Y279773D01*
X137502Y278084D01*
X137502Y278082D01*
X137500Y278081D01*
X136634Y276052D01*
X136634Y276050D01*
X136633Y276048D01*
X136369Y273854D01*
X136370Y273852D01*
X136369Y273851D01*
X136510Y272038D01*
X136512Y272036D01*
X136511Y272034D01*
X137135Y270328D01*
X137137Y270327D01*
X137136Y270325D01*
X138403Y268405D01*
X138405Y268404D01*
X138405Y268402D01*
X140165Y266925D01*
X140168Y266925D01*
X140168Y266923D01*
X142278Y266000D01*
X142280Y266001D01*
X142281Y265999D01*
X144324Y265727D01*
X144325Y265728D01*
X144326Y265727D01*
X144996Y265762D01*
G37*
G36*
X176211Y266010D02*
X176211Y266010D01*
X176210Y266010D01*
X176211Y266011D01*
X176206Y267318D01*
X176200Y268625D01*
X176197Y268629D01*
X176197Y268633D01*
X174771Y270286D01*
X171917Y273593D01*
X170490Y275247D01*
X167653Y278534D01*
X169689Y278547D01*
X171753Y278561D01*
X173815Y278574D01*
X175879Y278590D01*
X175891Y278601D01*
X175890Y278601D01*
X175891Y278602D01*
X175891Y281584D01*
X175880Y281596D01*
X175880Y281595D01*
X175879Y281596D01*
X163077Y281596D01*
X163066Y281585D01*
X163066Y281584D01*
X163065Y281584D01*
X163065Y279074D01*
X163069Y279070D01*
X163068Y279066D01*
X164506Y277397D01*
X165943Y275727D01*
X167378Y274055D01*
X168816Y272385D01*
X170251Y270716D01*
X171671Y269063D01*
X171034Y269055D01*
X171032Y269055D01*
X170075Y269043D01*
X170073Y269043D01*
X169555Y269037D01*
X169116Y269031D01*
X169114Y269031D01*
X168157Y269019D01*
X168155Y269019D01*
X168154Y269019D01*
X167414Y269010D01*
X167198Y269007D01*
X167196Y269007D01*
X166240Y268995D01*
X166238Y268995D01*
X165282Y268984D01*
X165280Y268984D01*
X165280Y268983D01*
X165272Y268983D01*
X164323Y268972D01*
X164321Y268972D01*
X163364Y268960D01*
X163362Y268960D01*
X163131Y268957D01*
X163119Y268946D01*
X163119Y268945D01*
X163089Y267478D01*
X163060Y266011D01*
X163070Y265999D01*
X163071Y266000D01*
X163072Y265999D01*
X176199Y265999D01*
X176211Y266010D01*
G37*
G36*
X121174Y265842D02*
X121174Y265842D01*
X121176Y265844D01*
X121178Y265843D01*
X123498Y266701D01*
X123499Y266704D01*
X123501Y266703D01*
X125443Y268234D01*
X125443Y268236D01*
X125445Y268237D01*
X126816Y270296D01*
X126816Y270298D01*
X126817Y270298D01*
X127380Y271973D01*
X127380Y271974D01*
X127379Y271975D01*
X127381Y271976D01*
X127509Y273745D01*
X127508Y273746D01*
X127509Y273746D01*
X127354Y275675D01*
X127352Y275676D01*
X127353Y275678D01*
X126668Y277483D01*
X126666Y277484D01*
X126667Y277486D01*
X125523Y279249D01*
X125520Y279249D01*
X125520Y279251D01*
X123923Y280614D01*
X123921Y280614D01*
X123920Y280616D01*
X122016Y281507D01*
X122014Y281506D01*
X122014Y281507D01*
X120675Y281833D01*
X120673Y281832D01*
X120672Y281833D01*
X120443Y281836D01*
X120441Y281836D01*
X119561Y281848D01*
X119559Y281848D01*
X119293Y281852D01*
X119293Y281851D01*
X119293Y281852D01*
X119141Y281848D01*
X119140Y281848D01*
X118638Y281836D01*
X118637Y281836D01*
X118135Y281824D01*
X118133Y281824D01*
X117943Y281820D01*
X117942Y281819D01*
X117941Y281819D01*
X116624Y281553D01*
X116623Y281552D01*
X116622Y281552D01*
X115144Y280963D01*
X115143Y280961D01*
X115142Y280962D01*
X113825Y280073D01*
X113824Y280070D01*
X113821Y280070D01*
X113341Y279304D01*
X113343Y279295D01*
X113342Y279290D01*
X114331Y278128D01*
X114332Y278127D01*
X115356Y276991D01*
X115362Y276990D01*
X115363Y276989D01*
X115368Y276989D01*
X115368Y276990D01*
X115372Y276989D01*
X115372Y276990D01*
X115963Y277424D01*
X117689Y278406D01*
X119650Y278667D01*
X121083Y278369D01*
X122309Y277572D01*
X123507Y275853D01*
X123916Y273799D01*
X123507Y271742D01*
X122309Y270026D01*
X121073Y269225D01*
X119626Y268928D01*
X117657Y269159D01*
X115939Y270166D01*
X115247Y270706D01*
X115231Y270705D01*
X114137Y269620D01*
X113047Y268532D01*
X113046Y268528D01*
X113046Y268527D01*
X113046Y268516D01*
X113047Y268516D01*
X113047Y268515D01*
X113551Y267998D01*
X113552Y267998D01*
X113552Y267997D01*
X114765Y267018D01*
X114767Y267018D01*
X114767Y267017D01*
X116132Y266262D01*
X116135Y266263D01*
X116136Y266261D01*
X118627Y265733D01*
X118628Y265734D01*
X118630Y265732D01*
X121174Y265842D01*
G37*
G36*
X104148Y265756D02*
X104148Y265756D01*
X104149Y265758D01*
X104151Y265757D01*
X106495Y266474D01*
X106496Y266476D01*
X106498Y266476D01*
X108579Y267905D01*
X108579Y267908D01*
X108581Y267908D01*
X110086Y269932D01*
X110085Y269935D01*
X110087Y269936D01*
X110890Y272331D01*
X110889Y272333D01*
X110891Y272334D01*
X110947Y274857D01*
X110945Y274859D01*
X110946Y274859D01*
X110945Y274859D01*
X110946Y274861D01*
X110240Y277285D01*
X110237Y277287D01*
X110238Y277289D01*
X108811Y279369D01*
X108809Y279369D01*
X108809Y279371D01*
X106904Y280881D01*
X106902Y280881D01*
X106901Y280883D01*
X104624Y281728D01*
X104621Y281727D01*
X104620Y281729D01*
X102193Y281886D01*
X102192Y281885D01*
X102190Y281886D01*
X99590Y281390D01*
X99588Y281388D01*
X99586Y281389D01*
X97287Y280079D01*
X97286Y280076D01*
X97284Y280076D01*
X96750Y279364D01*
X96751Y279352D01*
X96751Y279349D01*
X97767Y278154D01*
X98815Y276991D01*
X98831Y276989D01*
X99535Y277496D01*
X100919Y278324D01*
X102492Y278667D01*
X104439Y278417D01*
X106053Y277303D01*
X107221Y275102D01*
X107242Y272607D01*
X106122Y270380D01*
X104612Y269265D01*
X102766Y268906D01*
X100959Y269220D01*
X99380Y270168D01*
X98693Y270696D01*
X98677Y270695D01*
X97647Y269663D01*
X97647Y269662D01*
X96617Y268513D01*
X96617Y268497D01*
X96618Y268497D01*
X96618Y268496D01*
X98325Y266930D01*
X98328Y266930D01*
X98328Y266928D01*
X100155Y266096D01*
X100157Y266097D01*
X100158Y266095D01*
X102134Y265717D01*
X102136Y265718D01*
X102137Y265716D01*
X104148Y265756D01*
G37*
%LPC*%
G36*
X145547Y269033D02*
X145547Y269033D01*
X145169Y269045D01*
X144995Y269050D01*
X144759Y269058D01*
X144387Y269070D01*
X144386Y269070D01*
X144014Y269082D01*
X143642Y269093D01*
X143641Y269093D01*
X143270Y269105D01*
X143269Y269105D01*
X143252Y269106D01*
X141087Y270545D01*
X140110Y272546D01*
X140065Y274770D01*
X140959Y276805D01*
X142667Y278228D01*
X144683Y278694D01*
X144993Y278628D01*
X146710Y278258D01*
X148332Y276973D01*
X149296Y274799D01*
X149197Y272423D01*
X148032Y270354D01*
X145837Y269024D01*
X145547Y269033D01*
G37*
%LPD*%
G36*
X159678Y266010D02*
X159678Y266010D01*
X159677Y266010D01*
X159678Y266011D01*
X159678Y281584D01*
X159668Y281596D01*
X159667Y281595D01*
X159666Y281596D01*
X156252Y281596D01*
X156241Y281585D01*
X156241Y281584D01*
X156241Y266011D01*
X156251Y265999D01*
X156252Y266000D01*
X156252Y265999D01*
X159666Y265999D01*
X159678Y266010D01*
G37*
G36*
X133758Y266010D02*
X133758Y266010D01*
X133757Y266010D01*
X133758Y266011D01*
X133758Y269532D01*
X133747Y269543D01*
X133746Y269543D01*
X130119Y269543D01*
X130107Y269533D01*
X130107Y269532D01*
X130107Y266011D01*
X130117Y265999D01*
X130118Y266000D01*
X130119Y265999D01*
X133746Y265999D01*
X133758Y266010D01*
G37*
D10*
X244475Y212485D02*
X233798Y212485D01*
X233798Y209815D01*
X244475Y199138D01*
X244475Y196469D01*
X233798Y196469D01*
X228103Y207146D02*
X225434Y207146D01*
X225434Y196469D01*
X228103Y196469D02*
X222765Y196469D01*
X225434Y212485D02*
X225434Y215154D01*
X214520Y196469D02*
X209181Y196469D01*
X206512Y199138D01*
X206512Y204477D01*
X209181Y207146D01*
X214520Y207146D01*
X217189Y204477D01*
X217189Y199138D01*
X214520Y196469D01*
X184446Y199138D02*
X184446Y209815D01*
X181777Y212485D01*
X176438Y212485D01*
X173769Y209815D01*
X173769Y199138D01*
X176438Y196469D01*
X181777Y196469D01*
X184446Y199138D01*
X179107Y201808D02*
X173769Y196469D01*
X168074Y199138D02*
X168074Y207146D01*
X168074Y199138D02*
X165405Y196469D01*
X162736Y199138D01*
X160067Y196469D01*
X157397Y199138D01*
X157397Y207146D01*
X151703Y207146D02*
X149034Y207146D01*
X149034Y196469D01*
X151703Y196469D02*
X146364Y196469D01*
X149034Y212485D02*
X149034Y215154D01*
X140788Y207146D02*
X138119Y207146D01*
X138119Y196469D01*
X140788Y196469D02*
X135450Y196469D01*
X138119Y212485D02*
X138119Y215154D01*
X127205Y207146D02*
X119197Y207146D01*
X127205Y207146D02*
X129874Y204477D01*
X129874Y199138D01*
X127205Y196469D01*
X119197Y196469D01*
X97131Y196469D02*
X97131Y212485D01*
X89123Y212485D01*
X86454Y209815D01*
X86454Y204477D01*
X89123Y201808D01*
X97131Y201808D01*
X91792Y201808D02*
X86454Y196469D01*
X78090Y196469D02*
X72752Y196469D01*
X78090Y196469D02*
X80759Y199138D01*
X80759Y204477D01*
X78090Y207146D01*
X72752Y207146D01*
X70082Y204477D01*
X70082Y201808D01*
X80759Y201808D01*
X64388Y212485D02*
X61719Y212485D01*
X61719Y196469D01*
X64388Y196469D02*
X59049Y196469D01*
X50804Y207146D02*
X45466Y207146D01*
X42796Y204477D01*
X42796Y196469D01*
X50804Y196469D01*
X53473Y199138D01*
X50804Y201808D01*
X42796Y201808D01*
X37102Y199138D02*
X37102Y207146D01*
X37102Y199138D02*
X34433Y196469D01*
X26425Y196469D01*
X26425Y193800D02*
X26425Y207146D01*
X26425Y193800D02*
X29094Y191130D01*
X31763Y191130D01*
D11*
X260530Y553900D03*
D12*
X255230Y553900D03*
X251030Y553900D03*
D13*
X243130Y553900D03*
X235530Y553900D03*
D12*
X231430Y553900D03*
X227230Y553900D03*
D14*
X219430Y553900D03*
D15*
X260530Y553700D03*
D16*
X255130Y553700D03*
X250930Y553700D03*
X243130Y553700D03*
D12*
X235430Y553700D03*
D16*
X231530Y553700D03*
X227130Y553700D03*
D13*
X219330Y553700D03*
D17*
X260630Y553500D03*
D16*
X255130Y553500D03*
X250930Y553500D03*
D18*
X243230Y553500D03*
D16*
X235530Y553500D03*
X231530Y553500D03*
X227130Y553500D03*
D19*
X219330Y553500D03*
X260530Y553300D03*
D16*
X255130Y553300D03*
X250930Y553300D03*
D18*
X243230Y553300D03*
D12*
X235630Y553300D03*
D16*
X231530Y553300D03*
X227130Y553300D03*
D20*
X219430Y553300D03*
D21*
X260530Y553100D03*
D16*
X255130Y553100D03*
X250730Y553100D03*
D22*
X243130Y553100D03*
D12*
X235630Y553100D03*
D16*
X231530Y553100D03*
X227130Y553100D03*
D23*
X219330Y553100D03*
D24*
X260630Y552900D03*
D16*
X255130Y552900D03*
X250730Y552900D03*
D22*
X243130Y552900D03*
D16*
X235730Y552900D03*
X231530Y552900D03*
X227130Y552900D03*
D25*
X219430Y552900D03*
D26*
X260630Y552700D03*
D18*
X255230Y552700D03*
D12*
X250630Y552700D03*
D17*
X243230Y552700D03*
D12*
X235830Y552700D03*
D16*
X231530Y552700D03*
X227130Y552700D03*
D27*
X219430Y552700D03*
D28*
X258730Y552500D03*
D16*
X250530Y552500D03*
D17*
X243230Y552500D03*
D12*
X235830Y552500D03*
D16*
X231530Y552500D03*
X227130Y552500D03*
D29*
X219330Y552500D03*
D30*
X258830Y552300D03*
D16*
X250530Y552300D03*
D31*
X243130Y552300D03*
D12*
X235830Y552300D03*
D16*
X231530Y552300D03*
X227130Y552300D03*
D32*
X219330Y552300D03*
D33*
X258930Y552100D03*
D12*
X250430Y552100D03*
D34*
X243230Y552100D03*
D12*
X236030Y552100D03*
D16*
X231530Y552100D03*
X227130Y552100D03*
D35*
X219430Y552100D03*
D33*
X258930Y551900D03*
D12*
X250430Y551900D03*
D34*
X243230Y551900D03*
D12*
X236030Y551900D03*
D16*
X231530Y551900D03*
X227130Y551900D03*
D36*
X219430Y551900D03*
D37*
X259030Y551700D03*
D16*
X250330Y551700D03*
D19*
X243130Y551700D03*
D13*
X236130Y551700D03*
D16*
X231530Y551700D03*
X227130Y551700D03*
D38*
X219330Y551700D03*
D39*
X259130Y551500D03*
D12*
X250230Y551500D03*
D19*
X243130Y551500D03*
D12*
X236230Y551500D03*
D16*
X231530Y551500D03*
X227130Y551500D03*
D40*
X219330Y551500D03*
D39*
X259130Y551300D03*
D12*
X250230Y551300D03*
D41*
X243230Y551300D03*
D12*
X236230Y551300D03*
D16*
X231530Y551300D03*
X227130Y551300D03*
D40*
X219530Y551300D03*
D39*
X259130Y551100D03*
D16*
X250130Y551100D03*
D42*
X243130Y551100D03*
D12*
X236230Y551100D03*
D16*
X231530Y551100D03*
X227130Y551100D03*
D43*
X219630Y551100D03*
D19*
X262730Y550900D03*
D20*
X256030Y550900D03*
D12*
X250030Y550900D03*
D42*
X243130Y550900D03*
D13*
X236330Y550900D03*
D16*
X231530Y550900D03*
X227130Y550900D03*
D19*
X222130Y550900D03*
D13*
X216930Y550900D03*
D34*
X263030Y550700D03*
D41*
X255830Y550700D03*
D12*
X250030Y550700D03*
D42*
X243130Y550700D03*
D12*
X236430Y550700D03*
D16*
X231530Y550700D03*
X227130Y550700D03*
D31*
X222330Y550700D03*
D44*
X216830Y550700D03*
D17*
X263230Y550500D03*
D34*
X255630Y550500D03*
D16*
X249930Y550500D03*
D20*
X243230Y550500D03*
D13*
X236530Y550500D03*
D16*
X231530Y550500D03*
X227130Y550500D03*
D17*
X222630Y550500D03*
D45*
X216830Y550500D03*
D22*
X263330Y550300D03*
D31*
X255530Y550300D03*
D12*
X249830Y550300D03*
D20*
X243230Y550300D03*
D13*
X236530Y550300D03*
D16*
X231530Y550300D03*
X227130Y550300D03*
D22*
X222730Y550300D03*
D11*
X216930Y550300D03*
D22*
X263330Y550100D03*
D17*
X255430Y550100D03*
D12*
X249830Y550100D03*
D46*
X243230Y550100D03*
D12*
X236630Y550100D03*
D16*
X231530Y550100D03*
X227130Y550100D03*
D18*
X222830Y550100D03*
D47*
X217030Y550100D03*
D18*
X263430Y549900D03*
D22*
X255330Y549900D03*
D13*
X249730Y549900D03*
D46*
X243230Y549900D03*
D13*
X236730Y549900D03*
D16*
X231530Y549900D03*
X227130Y549900D03*
X222930Y549900D03*
D18*
X263630Y549700D03*
D22*
X255330Y549700D03*
D12*
X249630Y549700D03*
D48*
X243130Y549700D03*
D13*
X236730Y549700D03*
D16*
X231530Y549700D03*
X227130Y549700D03*
D18*
X223030Y549700D03*
X263630Y549500D03*
D22*
X255330Y549500D03*
D12*
X249630Y549500D03*
D48*
X243130Y549500D03*
D13*
X236930Y549500D03*
D16*
X231530Y549500D03*
X227130Y549500D03*
D18*
X223030Y549500D03*
X263630Y549300D03*
X255230Y549300D03*
D13*
X249530Y549300D03*
D15*
X244730Y549300D03*
D49*
X241630Y549300D03*
D13*
X236930Y549300D03*
D16*
X231530Y549300D03*
X227130Y549300D03*
X223130Y549300D03*
X263730Y549100D03*
D18*
X255230Y549100D03*
D12*
X249430Y549100D03*
D15*
X244930Y549100D03*
D49*
X241630Y549100D03*
D13*
X236930Y549100D03*
D16*
X231530Y549100D03*
X227130Y549100D03*
X223130Y549100D03*
X263730Y548900D03*
D18*
X255230Y548900D03*
D12*
X249430Y548900D03*
D15*
X244930Y548900D03*
D49*
X241430Y548900D03*
X237030Y548900D03*
D16*
X231530Y548900D03*
X227130Y548900D03*
X223130Y548900D03*
X263730Y548700D03*
X255130Y548700D03*
D13*
X249330Y548700D03*
D49*
X245030Y548700D03*
X241430Y548700D03*
D13*
X237130Y548700D03*
D16*
X231530Y548700D03*
X227130Y548700D03*
X223130Y548700D03*
X263730Y548500D03*
X255130Y548500D03*
D12*
X249230Y548500D03*
D49*
X245030Y548500D03*
X241430Y548500D03*
D13*
X237130Y548500D03*
D16*
X231530Y548500D03*
X227130Y548500D03*
X223130Y548500D03*
X263730Y548300D03*
X255130Y548300D03*
D13*
X249130Y548300D03*
D15*
X245130Y548300D03*
X241330Y548300D03*
D49*
X237230Y548300D03*
D16*
X231530Y548300D03*
X227130Y548300D03*
X223130Y548300D03*
X263730Y548100D03*
X255130Y548100D03*
D13*
X249130Y548100D03*
D15*
X245130Y548100D03*
D49*
X241230Y548100D03*
D13*
X237330Y548100D03*
D16*
X231530Y548100D03*
X227130Y548100D03*
X223130Y548100D03*
X263730Y547900D03*
X255130Y547900D03*
D13*
X249130Y547900D03*
D15*
X245330Y547900D03*
D49*
X241230Y547900D03*
X237430Y547900D03*
D16*
X231530Y547900D03*
X227130Y547900D03*
X223130Y547900D03*
X263730Y547700D03*
D18*
X255230Y547700D03*
D12*
X249030Y547700D03*
D15*
X245330Y547700D03*
D49*
X241030Y547700D03*
X237430Y547700D03*
D16*
X231530Y547700D03*
X227130Y547700D03*
X223130Y547700D03*
X263730Y547500D03*
D18*
X255230Y547500D03*
D13*
X248930Y547500D03*
D15*
X245330Y547500D03*
D49*
X241030Y547500D03*
X237430Y547500D03*
D16*
X231530Y547500D03*
X227130Y547500D03*
X223130Y547500D03*
D18*
X263630Y547300D03*
X255230Y547300D03*
D13*
X248930Y547300D03*
D15*
X245330Y547300D03*
D49*
X241030Y547300D03*
D13*
X237530Y547300D03*
D16*
X231530Y547300D03*
X227130Y547300D03*
D18*
X223030Y547300D03*
X263630Y547100D03*
D22*
X255330Y547100D03*
D13*
X248730Y547100D03*
D15*
X245530Y547100D03*
D49*
X241030Y547100D03*
X237630Y547100D03*
D16*
X231530Y547100D03*
X227130Y547100D03*
D18*
X223030Y547100D03*
X263630Y546900D03*
D22*
X255330Y546900D03*
D24*
X247230Y546900D03*
X239230Y546900D03*
D16*
X231530Y546900D03*
X227130Y546900D03*
D18*
X222830Y546900D03*
D50*
X216930Y546900D03*
D18*
X263430Y546700D03*
D22*
X255330Y546700D03*
D24*
X247230Y546700D03*
D48*
X239330Y546700D03*
D16*
X231530Y546700D03*
X227130Y546700D03*
D18*
X222830Y546700D03*
D51*
X216830Y546700D03*
D22*
X263330Y546500D03*
D17*
X255430Y546500D03*
D46*
X247230Y546500D03*
X239230Y546500D03*
D16*
X231530Y546500D03*
X227130Y546500D03*
D22*
X222730Y546500D03*
D52*
X216730Y546500D03*
D22*
X263330Y546300D03*
D31*
X255530Y546300D03*
D46*
X247230Y546300D03*
X239230Y546300D03*
D16*
X231530Y546300D03*
X227130Y546300D03*
D17*
X222630Y546300D03*
D53*
X216630Y546300D03*
D17*
X263230Y546100D03*
D34*
X255630Y546100D03*
D46*
X247230Y546100D03*
D21*
X239330Y546100D03*
D16*
X231530Y546100D03*
X227130Y546100D03*
D31*
X222330Y546100D03*
D15*
X216730Y546100D03*
D31*
X262930Y545900D03*
D19*
X255730Y545900D03*
D20*
X247230Y545900D03*
D21*
X239330Y545900D03*
D16*
X231530Y545900D03*
X227130Y545900D03*
D40*
X219730Y545900D03*
D34*
X262830Y545700D03*
D42*
X255930Y545700D03*
D20*
X247230Y545700D03*
X239230Y545700D03*
D16*
X231530Y545700D03*
X227130Y545700D03*
D40*
X219530Y545700D03*
D42*
X262330Y545500D03*
D48*
X256330Y545500D03*
D42*
X247130Y545500D03*
X239330Y545500D03*
D16*
X231530Y545500D03*
X227130Y545500D03*
D54*
X219430Y545500D03*
D39*
X259130Y545300D03*
D41*
X247230Y545300D03*
D42*
X239330Y545300D03*
D16*
X231530Y545300D03*
X227130Y545300D03*
D43*
X219430Y545300D03*
D39*
X259130Y545100D03*
D41*
X247230Y545100D03*
D19*
X239330Y545100D03*
D16*
X231530Y545100D03*
X227130Y545100D03*
D38*
X219330Y545100D03*
D37*
X259030Y544900D03*
D19*
X247130Y544900D03*
X239330Y544900D03*
D16*
X231530Y544900D03*
X227130Y544900D03*
D55*
X219330Y544900D03*
D33*
X258930Y544700D03*
D19*
X247130Y544700D03*
X239330Y544700D03*
D16*
X231530Y544700D03*
X227130Y544700D03*
D32*
X219330Y544700D03*
D30*
X258830Y544500D03*
D34*
X247230Y544500D03*
D31*
X239330Y544500D03*
D16*
X231530Y544500D03*
X227130Y544500D03*
D29*
X219330Y544500D03*
D28*
X258730Y544300D03*
D31*
X247130Y544300D03*
X239330Y544300D03*
D16*
X231530Y544300D03*
X227130Y544300D03*
D56*
X219330Y544300D03*
D57*
X258630Y544100D03*
D17*
X247230Y544100D03*
D31*
X239330Y544100D03*
D16*
X231530Y544100D03*
X227130Y544100D03*
D58*
X219330Y544100D03*
D23*
X260530Y543900D03*
D18*
X255230Y543900D03*
D22*
X247130Y543900D03*
D17*
X239430Y543900D03*
D16*
X231530Y543900D03*
X227130Y543900D03*
D23*
X219330Y543900D03*
D48*
X260530Y543700D03*
D16*
X255130Y543700D03*
D22*
X247130Y543700D03*
X239330Y543700D03*
D16*
X231530Y543700D03*
X227130Y543700D03*
D48*
X219330Y543700D03*
D21*
X260530Y543500D03*
D16*
X255130Y543500D03*
D22*
X247130Y543500D03*
D18*
X239430Y543500D03*
D16*
X231530Y543500D03*
X227130Y543500D03*
D41*
X219430Y543500D03*
D19*
X260530Y543300D03*
D16*
X255130Y543300D03*
X247130Y543300D03*
D18*
X239430Y543300D03*
D16*
X231530Y543300D03*
X227130Y543300D03*
X219330Y543300D03*
D22*
X260530Y543100D03*
D16*
X255130Y543100D03*
X247130Y543100D03*
X239330Y543100D03*
D12*
X231430Y543100D03*
D16*
X227130Y543100D03*
D53*
X219430Y543100D03*
D15*
X260530Y542900D03*
D16*
X255130Y542900D03*
D51*
X260430Y542700D03*
D16*
X255130Y542700D03*
X255130Y542500D03*
X255130Y542300D03*
X255130Y542100D03*
X255130Y541900D03*
X255130Y541700D03*
X255130Y541500D03*
X255130Y541300D03*
X255130Y541100D03*
X255130Y540900D03*
X255130Y540700D03*
X255130Y540500D03*
D17*
X239430Y540500D03*
D16*
X255130Y540300D03*
D59*
X239430Y540300D03*
D16*
X255130Y540100D03*
D54*
X239430Y540100D03*
D16*
X255130Y539900D03*
D60*
X239430Y539900D03*
D16*
X255130Y539700D03*
D61*
X239430Y539700D03*
D16*
X255130Y539500D03*
D62*
X239430Y539500D03*
D16*
X255130Y539300D03*
D63*
X239330Y539300D03*
D12*
X255230Y539100D03*
D64*
X239430Y539100D03*
D65*
X239430Y538900D03*
D66*
X239430Y538700D03*
D67*
X239430Y538500D03*
D68*
X239430Y538300D03*
D69*
X239330Y538100D03*
D70*
X239430Y537900D03*
D71*
X239430Y537700D03*
D72*
X239330Y537500D03*
D73*
X239330Y537300D03*
D74*
X239430Y537100D03*
D75*
X239330Y536900D03*
D76*
X239330Y536700D03*
D77*
X239330Y536500D03*
D78*
X239330Y536300D03*
D79*
X239330Y536100D03*
D80*
X239430Y535900D03*
D81*
X239330Y535700D03*
D82*
X239330Y535500D03*
D83*
X239430Y535300D03*
D84*
X239330Y535100D03*
D85*
X239330Y534900D03*
D86*
X239330Y534700D03*
D87*
X239430Y534500D03*
D88*
X239430Y534300D03*
D89*
X239430Y534100D03*
D90*
X239430Y533900D03*
D91*
X239430Y533700D03*
D92*
X239430Y533500D03*
D93*
X239330Y533300D03*
D94*
X239430Y533100D03*
D95*
X239430Y532900D03*
D96*
X239430Y532700D03*
D97*
X239430Y532500D03*
D98*
X239430Y532300D03*
D99*
X239430Y532100D03*
D100*
X239430Y531900D03*
D101*
X239330Y531700D03*
D102*
X239330Y531500D03*
D103*
X239430Y531300D03*
D104*
X239430Y531100D03*
D105*
X239430Y530900D03*
D106*
X239330Y530700D03*
D107*
X239430Y530500D03*
D108*
X239430Y530300D03*
D109*
X239430Y530100D03*
D110*
X239330Y529900D03*
D111*
X239430Y529700D03*
D112*
X239330Y529500D03*
D113*
X239330Y529300D03*
D114*
X239430Y529100D03*
D115*
X239330Y528900D03*
D116*
X239330Y528700D03*
D117*
X239430Y528500D03*
D118*
X239330Y528300D03*
D119*
X239430Y528100D03*
D120*
X239330Y527900D03*
D121*
X239430Y527700D03*
D122*
X239430Y527500D03*
X239430Y527300D03*
D123*
X239330Y527100D03*
D124*
X239330Y526900D03*
D125*
X239430Y526700D03*
X239430Y526500D03*
D126*
X239430Y526300D03*
D127*
X239330Y526100D03*
X239330Y525900D03*
D128*
X239430Y525700D03*
D129*
X239330Y525500D03*
D130*
X239430Y525300D03*
D131*
X239330Y525100D03*
X239330Y524900D03*
D132*
X239430Y524700D03*
D133*
X239330Y524500D03*
D134*
X239430Y524300D03*
X239430Y524100D03*
D135*
X239330Y523900D03*
D136*
X239430Y523700D03*
D137*
X239330Y523500D03*
X239330Y523300D03*
D138*
X239430Y523100D03*
X239430Y522900D03*
D48*
X260130Y522700D03*
D23*
X218730Y522700D03*
D48*
X260330Y522500D03*
D24*
X218630Y522500D03*
D46*
X260430Y522300D03*
D24*
X218630Y522300D03*
D46*
X260430Y522100D03*
D24*
X218630Y522100D03*
D46*
X260430Y521900D03*
D23*
X218530Y521900D03*
D48*
X260530Y521700D03*
D23*
X218530Y521700D03*
D48*
X260530Y521500D03*
D23*
X218530Y521500D03*
D48*
X260530Y521300D03*
D26*
X218430Y521300D03*
D48*
X260530Y521100D03*
D26*
X218430Y521100D03*
D24*
X260630Y520900D03*
D26*
X218430Y520900D03*
D24*
X260630Y520700D03*
D26*
X218430Y520700D03*
D24*
X260630Y520500D03*
D26*
X218430Y520500D03*
D24*
X260630Y520300D03*
D26*
X218430Y520300D03*
D24*
X260630Y520100D03*
D139*
X218330Y520100D03*
D23*
X260730Y519900D03*
D139*
X218330Y519900D03*
D23*
X260730Y519700D03*
D139*
X218330Y519700D03*
D23*
X260730Y519500D03*
D139*
X218330Y519500D03*
D23*
X260730Y519300D03*
D139*
X218330Y519300D03*
D23*
X260730Y519100D03*
D25*
X218230Y519100D03*
D23*
X260730Y518900D03*
D25*
X218230Y518900D03*
D23*
X260730Y518700D03*
D25*
X218230Y518700D03*
D23*
X260730Y518500D03*
D25*
X218230Y518500D03*
D23*
X260730Y518300D03*
D25*
X218230Y518300D03*
D23*
X260730Y518100D03*
D25*
X218230Y518100D03*
D26*
X260830Y517900D03*
D34*
X250430Y517900D03*
D19*
X243330Y517900D03*
X236130Y517900D03*
D34*
X229030Y517900D03*
D25*
X218230Y517900D03*
D26*
X260830Y517700D03*
D19*
X250530Y517700D03*
X243330Y517700D03*
D41*
X236030Y517700D03*
D19*
X228930Y517700D03*
D25*
X218230Y517700D03*
D26*
X260830Y517500D03*
D19*
X250530Y517500D03*
X243330Y517500D03*
D41*
X236030Y517500D03*
D19*
X228930Y517500D03*
D25*
X218230Y517500D03*
D26*
X260830Y517300D03*
D19*
X250530Y517300D03*
X243330Y517300D03*
D41*
X236030Y517300D03*
D19*
X228930Y517300D03*
D25*
X218230Y517300D03*
D26*
X260830Y517100D03*
D19*
X250530Y517100D03*
X243330Y517100D03*
D41*
X236030Y517100D03*
D19*
X228930Y517100D03*
D25*
X218230Y517100D03*
D26*
X260830Y516900D03*
D19*
X250530Y516900D03*
X243330Y516900D03*
D41*
X236030Y516900D03*
D19*
X228930Y516900D03*
D25*
X218230Y516900D03*
D26*
X260830Y516700D03*
D19*
X250530Y516700D03*
X243330Y516700D03*
D41*
X236030Y516700D03*
D19*
X228930Y516700D03*
D25*
X218230Y516700D03*
D26*
X260830Y516500D03*
D19*
X250530Y516500D03*
X243330Y516500D03*
D41*
X236030Y516500D03*
D19*
X228930Y516500D03*
D58*
X218130Y516500D03*
D26*
X260830Y516300D03*
D19*
X250530Y516300D03*
X243330Y516300D03*
D41*
X236030Y516300D03*
D19*
X228930Y516300D03*
D58*
X218130Y516300D03*
D26*
X260830Y516100D03*
D19*
X250530Y516100D03*
X243330Y516100D03*
D41*
X236030Y516100D03*
D19*
X228930Y516100D03*
D58*
X218130Y516100D03*
D26*
X260830Y515900D03*
D19*
X250530Y515900D03*
X243330Y515900D03*
D41*
X236030Y515900D03*
D19*
X228930Y515900D03*
D58*
X218130Y515900D03*
D26*
X260830Y515700D03*
D19*
X250530Y515700D03*
X243330Y515700D03*
D41*
X236030Y515700D03*
D19*
X228930Y515700D03*
D58*
X218130Y515700D03*
D26*
X260830Y515500D03*
D19*
X250530Y515500D03*
X243330Y515500D03*
D41*
X236030Y515500D03*
D19*
X228930Y515500D03*
D58*
X218130Y515500D03*
D26*
X260830Y515300D03*
D19*
X250530Y515300D03*
X243330Y515300D03*
D41*
X236030Y515300D03*
D19*
X228930Y515300D03*
D58*
X218130Y515300D03*
D26*
X260830Y515100D03*
D19*
X250530Y515100D03*
X243330Y515100D03*
D41*
X236030Y515100D03*
D19*
X228930Y515100D03*
D58*
X218130Y515100D03*
D26*
X260830Y514900D03*
D19*
X250530Y514900D03*
X243330Y514900D03*
D41*
X236030Y514900D03*
D19*
X228930Y514900D03*
D25*
X218230Y514900D03*
D26*
X260830Y514700D03*
D19*
X250530Y514700D03*
X243330Y514700D03*
D41*
X236030Y514700D03*
D19*
X228930Y514700D03*
D25*
X218230Y514700D03*
D26*
X260830Y514500D03*
D19*
X250530Y514500D03*
X243330Y514500D03*
D41*
X236030Y514500D03*
D19*
X228930Y514500D03*
D25*
X218230Y514500D03*
D26*
X260830Y514300D03*
D19*
X250530Y514300D03*
X243330Y514300D03*
D41*
X236030Y514300D03*
D19*
X228930Y514300D03*
D25*
X218230Y514300D03*
D26*
X260830Y514100D03*
D19*
X250530Y514100D03*
X243330Y514100D03*
D41*
X236030Y514100D03*
D19*
X228930Y514100D03*
D25*
X218230Y514100D03*
D26*
X260830Y513900D03*
D19*
X250530Y513900D03*
X243330Y513900D03*
D41*
X236030Y513900D03*
D19*
X228930Y513900D03*
D25*
X218230Y513900D03*
D26*
X260830Y513700D03*
D19*
X250530Y513700D03*
X243330Y513700D03*
D41*
X236030Y513700D03*
D19*
X228930Y513700D03*
D25*
X218230Y513700D03*
D23*
X260730Y513500D03*
D19*
X250530Y513500D03*
X243330Y513500D03*
D41*
X236030Y513500D03*
D19*
X228930Y513500D03*
D25*
X218230Y513500D03*
D23*
X260730Y513300D03*
D34*
X250430Y513300D03*
D19*
X243330Y513300D03*
X236130Y513300D03*
D34*
X229030Y513300D03*
D25*
X218230Y513300D03*
D23*
X260730Y513100D03*
D25*
X218230Y513100D03*
D23*
X260730Y512900D03*
D25*
X218230Y512900D03*
D23*
X260730Y512700D03*
D25*
X218230Y512700D03*
D23*
X260730Y512500D03*
D25*
X218230Y512500D03*
D23*
X260730Y512300D03*
D25*
X218230Y512300D03*
D23*
X260730Y512100D03*
D139*
X218330Y512100D03*
D23*
X260730Y511900D03*
D139*
X218330Y511900D03*
D23*
X260730Y511700D03*
D139*
X218330Y511700D03*
D24*
X260630Y511500D03*
D139*
X218330Y511500D03*
D24*
X260630Y511300D03*
D26*
X218430Y511300D03*
D24*
X260630Y511100D03*
D26*
X218430Y511100D03*
D24*
X260630Y510900D03*
D26*
X218430Y510900D03*
D24*
X260630Y510700D03*
D26*
X218430Y510700D03*
D48*
X260530Y510500D03*
D26*
X218430Y510500D03*
D48*
X260530Y510300D03*
D26*
X218430Y510300D03*
D48*
X260530Y510100D03*
D23*
X218530Y510100D03*
D48*
X260530Y509900D03*
D23*
X218530Y509900D03*
D46*
X260430Y509700D03*
D23*
X218530Y509700D03*
D46*
X260430Y509500D03*
D23*
X218530Y509500D03*
D46*
X260430Y509300D03*
D24*
X218630Y509300D03*
D46*
X260430Y509100D03*
D24*
X218630Y509100D03*
D21*
X260330Y508900D03*
D24*
X218630Y508900D03*
D21*
X260330Y508700D03*
D48*
X218730Y508700D03*
D46*
X260230Y508500D03*
D24*
X218830Y508500D03*
D140*
X255530Y508300D03*
D26*
X239830Y508300D03*
D141*
X223630Y508300D03*
D140*
X255530Y508100D03*
D26*
X239830Y508100D03*
D141*
X223630Y508100D03*
D140*
X255530Y507900D03*
D26*
X239830Y507900D03*
D142*
X223730Y507900D03*
D140*
X255530Y507700D03*
D139*
X239730Y507700D03*
D143*
X223630Y507700D03*
D62*
X255430Y507500D03*
D139*
X239730Y507500D03*
D144*
X223730Y507500D03*
D140*
X255330Y507300D03*
D139*
X239730Y507300D03*
D144*
X223730Y507300D03*
D62*
X255230Y507100D03*
D139*
X239730Y507100D03*
D144*
X223730Y507100D03*
D62*
X255230Y506900D03*
D25*
X239630Y506900D03*
D145*
X223630Y506900D03*
D62*
X255230Y506700D03*
D139*
X239530Y506700D03*
D140*
X223730Y506700D03*
D146*
X255130Y506500D03*
D139*
X239530Y506500D03*
D62*
X223630Y506500D03*
D146*
X255130Y506300D03*
D139*
X239530Y506300D03*
D146*
X223730Y506300D03*
X254930Y506100D03*
D25*
X239430Y506100D03*
D146*
X223730Y506100D03*
X254930Y505900D03*
D25*
X239430Y505900D03*
D147*
X223730Y505900D03*
D148*
X254830Y505700D03*
D139*
X239330Y505700D03*
D147*
X223730Y505700D03*
D148*
X254830Y505500D03*
D25*
X239230Y505500D03*
D149*
X223630Y505500D03*
D148*
X254830Y505300D03*
D25*
X239230Y505300D03*
D150*
X223730Y505300D03*
D147*
X254730Y505100D03*
D25*
X239230Y505100D03*
D151*
X223730Y505100D03*
D148*
X254630Y504900D03*
D25*
X239030Y504900D03*
D151*
X223730Y504900D03*
D147*
X254530Y504700D03*
D25*
X239030Y504700D03*
D152*
X223630Y504700D03*
D147*
X254530Y504500D03*
D25*
X239030Y504500D03*
D153*
X223630Y504500D03*
D149*
X254430Y504300D03*
D58*
X238930Y504300D03*
D153*
X223630Y504300D03*
D147*
X254330Y504100D03*
D25*
X238830Y504100D03*
D154*
X223630Y504100D03*
D149*
X254230Y503900D03*
D58*
X238730Y503900D03*
D155*
X223730Y503900D03*
D150*
X254130Y503700D03*
D58*
X238730Y503700D03*
D60*
X223630Y503700D03*
D150*
X254130Y503500D03*
D58*
X238530Y503500D03*
D37*
X223630Y503500D03*
D150*
X253930Y503300D03*
D58*
X238530Y503300D03*
D37*
X223630Y503300D03*
D150*
X253930Y503100D03*
D27*
X238430Y503100D03*
D30*
X223630Y503100D03*
D61*
X253830Y502900D03*
D58*
X238330Y502900D03*
D28*
X223530Y502900D03*
D151*
X253730Y502700D03*
D27*
X238230Y502700D03*
D156*
X223530Y502700D03*
D61*
X253630Y502500D03*
D27*
X238230Y502500D03*
D157*
X223630Y502500D03*
D151*
X253530Y502300D03*
D27*
X238030Y502300D03*
D158*
X223530Y502300D03*
D61*
X253430Y502100D03*
D27*
X238030Y502100D03*
D40*
X223530Y502100D03*
D151*
X253330Y501900D03*
D27*
X237830Y501900D03*
D38*
X223530Y501900D03*
D152*
X253230Y501700D03*
D56*
X237730Y501700D03*
D36*
X223430Y501700D03*
D152*
X253230Y501500D03*
D56*
X237730Y501500D03*
D35*
X223430Y501500D03*
D152*
X253030Y501300D03*
D56*
X237530Y501300D03*
D59*
X223430Y501300D03*
D159*
X252930Y501100D03*
D56*
X237530Y501100D03*
D29*
X223330Y501100D03*
D159*
X252730Y500900D03*
D56*
X237330Y500900D03*
X223330Y500900D03*
D159*
X252730Y500700D03*
D160*
X237230Y500700D03*
D25*
X223230Y500700D03*
D153*
X252630Y500500D03*
D160*
X237030Y500500D03*
D26*
X223230Y500500D03*
D153*
X252430Y500300D03*
D160*
X237030Y500300D03*
D23*
X223130Y500300D03*
D153*
X252430Y500100D03*
D160*
X236830Y500100D03*
D48*
X223130Y500100D03*
D154*
X252230Y499900D03*
D29*
X236730Y499900D03*
D20*
X223030Y499900D03*
D161*
X252130Y499700D03*
D29*
X236530Y499700D03*
D19*
X222930Y499700D03*
D154*
X252030Y499500D03*
D29*
X236530Y499500D03*
D31*
X222930Y499500D03*
D154*
X251830Y499300D03*
D29*
X236330Y499300D03*
D18*
X222830Y499300D03*
D155*
X251730Y499100D03*
D59*
X236230Y499100D03*
D13*
X222730Y499100D03*
D155*
X251530Y498900D03*
D59*
X236030Y498900D03*
D15*
X222530Y498900D03*
D60*
X251430Y498700D03*
D32*
X235930Y498700D03*
D53*
X222430Y498700D03*
D60*
X251230Y498500D03*
D32*
X235730Y498500D03*
D14*
X222230Y498500D03*
D39*
X251130Y498300D03*
D32*
X235530Y498300D03*
D162*
X222230Y498300D03*
D39*
X250930Y498100D03*
D35*
X235430Y498100D03*
D37*
X250830Y497900D03*
D35*
X235230Y497900D03*
D37*
X250630Y497700D03*
D55*
X235130Y497700D03*
D33*
X250530Y497500D03*
D55*
X234930Y497500D03*
D33*
X250330Y497300D03*
D55*
X234730Y497300D03*
D30*
X250230Y497100D03*
D55*
X234530Y497100D03*
D30*
X250030Y496900D03*
D38*
X234330Y496900D03*
D28*
X249930Y496700D03*
D38*
X234130Y496700D03*
D28*
X249730Y496500D03*
D38*
X233930Y496500D03*
D156*
X249530Y496300D03*
D40*
X233730Y496300D03*
D156*
X249330Y496100D03*
D40*
X233530Y496100D03*
D156*
X249130Y495900D03*
D40*
X233330Y495900D03*
D158*
X248930Y495700D03*
D54*
X233030Y495700D03*
D158*
X248730Y495500D03*
D157*
X232830Y495500D03*
D40*
X248530Y495300D03*
D157*
X232630Y495300D03*
D40*
X248330Y495100D03*
D156*
X232330Y495100D03*
D43*
X248030Y494900D03*
D57*
X232030Y494900D03*
D43*
X247830Y494700D03*
D28*
X231730Y494700D03*
D36*
X247630Y494500D03*
D30*
X231430Y494500D03*
D55*
X247330Y494300D03*
D33*
X231130Y494300D03*
D35*
X247230Y494100D03*
D39*
X230730Y494100D03*
D32*
X246930Y493900D03*
D60*
X230430Y493900D03*
D59*
X246630Y493700D03*
D161*
X229930Y493700D03*
D29*
X246330Y493500D03*
D159*
X229530Y493500D03*
D56*
X246130Y493300D03*
D61*
X229030Y493300D03*
D27*
X245830Y493100D03*
D148*
X228430Y493100D03*
D58*
X245530Y492900D03*
D143*
X227630Y492900D03*
D47*
X218630Y492900D03*
D139*
X245130Y492700D03*
D163*
X225930Y492700D03*
D26*
X244830Y492500D03*
D65*
X225830Y492500D03*
D46*
X244430Y492300D03*
D164*
X225730Y492300D03*
D20*
X244030Y492100D03*
D165*
X225630Y492100D03*
D41*
X243630Y491900D03*
D166*
X225530Y491900D03*
D31*
X243130Y491700D03*
D167*
X225430Y491700D03*
D22*
X242730Y491500D03*
D64*
X225230Y491500D03*
D49*
X242030Y491300D03*
D168*
X225130Y491300D03*
D11*
X241330Y491100D03*
D169*
X225030Y491100D03*
D170*
X224830Y490900D03*
D63*
X224730Y490700D03*
D142*
X224530Y490500D03*
D143*
X224430Y490300D03*
D144*
X224330Y490100D03*
D140*
X224130Y489900D03*
D146*
X223930Y489700D03*
D148*
X223830Y489500D03*
D149*
X223630Y489300D03*
D61*
X223430Y489100D03*
D152*
X223230Y488900D03*
D153*
X223030Y488700D03*
D154*
X222830Y488500D03*
D60*
X222630Y488300D03*
D33*
X222330Y488100D03*
D28*
X222130Y487900D03*
D157*
X221830Y487700D03*
D54*
X221630Y487500D03*
D36*
X221230Y487300D03*
D32*
X220930Y487100D03*
D160*
X220630Y486900D03*
D139*
X220130Y486700D03*
D48*
X219730Y486500D03*
D31*
X218930Y486300D03*
D171*
X36830Y512572D02*
X33020Y521208D01*
X36830Y512572D02*
X38608Y513588D01*
X43180Y510540D01*
X46736Y514096D01*
X43688Y518668D01*
X45720Y523748D02*
X51308Y524764D01*
X51308Y529844D01*
X45466Y530860D01*
X43434Y535686D02*
X46736Y540512D01*
X43180Y544068D01*
X38354Y540766D01*
X33782Y542544D02*
X32512Y548640D01*
X27686Y548640D01*
X26416Y542544D01*
X21844Y540766D02*
X16764Y544068D01*
X13208Y540512D01*
X16764Y535686D01*
X14478Y530860D02*
X8890Y529844D01*
X8890Y524764D01*
X14478Y523748D01*
X16510Y518668D02*
X13208Y514096D01*
X16764Y510540D01*
X21336Y513588D01*
X23368Y512572D01*
X26924Y521208D01*
X26772Y521285D01*
X26623Y521365D01*
X26475Y521449D01*
X26329Y521537D01*
X26186Y521628D01*
X26045Y521723D01*
X25906Y521821D01*
X25769Y521922D01*
X25635Y522027D01*
X25504Y522135D01*
X25376Y522246D01*
X25250Y522360D01*
X25127Y522478D01*
X25007Y522598D01*
X24890Y522721D01*
X24776Y522847D01*
X24665Y522976D01*
X24557Y523108D01*
X24453Y523242D01*
X24352Y523378D01*
X24254Y523517D01*
X24160Y523659D01*
X24069Y523803D01*
X23982Y523948D01*
X23898Y524096D01*
X23818Y524246D01*
X23742Y524398D01*
X23669Y524552D01*
X23601Y524708D01*
X23536Y524865D01*
X23475Y525023D01*
X23418Y525183D01*
X23365Y525345D01*
X23315Y525508D01*
X23270Y525671D01*
X23229Y525836D01*
X23192Y526002D01*
X23159Y526169D01*
X23130Y526336D01*
X23105Y526505D01*
X23085Y526673D01*
X23068Y526842D01*
X23056Y527012D01*
X23047Y527182D01*
X23043Y527352D01*
X23044Y527522D01*
X23048Y527692D01*
X23056Y527861D01*
X23069Y528031D01*
X23086Y528200D01*
X23107Y528369D01*
X23132Y528537D01*
X23161Y528704D01*
X23194Y528871D01*
X23232Y529037D01*
X23273Y529202D01*
X23318Y529365D01*
X23368Y529528D01*
X23421Y529689D01*
X23479Y529849D01*
X23540Y530008D01*
X23605Y530165D01*
X23674Y530320D01*
X23747Y530474D01*
X23823Y530626D01*
X23904Y530775D01*
X23987Y530923D01*
X24075Y531069D01*
X24166Y531213D01*
X24260Y531354D01*
X24358Y531493D01*
X24460Y531629D01*
X24564Y531763D01*
X24672Y531895D01*
X24783Y532023D01*
X24897Y532149D01*
X25015Y532272D01*
X25135Y532392D01*
X25258Y532509D01*
X25384Y532623D01*
X25513Y532734D01*
X25644Y532842D01*
X25778Y532947D01*
X25915Y533048D01*
X26054Y533146D01*
X26195Y533240D01*
X26339Y533331D01*
X26485Y533418D01*
X26633Y533502D01*
X26782Y533582D01*
X26934Y533659D01*
X27088Y533731D01*
X27243Y533800D01*
X27400Y533865D01*
X27559Y533926D01*
X27719Y533984D01*
X27880Y534037D01*
X28043Y534086D01*
X28207Y534131D01*
X28372Y534173D01*
X28538Y534210D01*
X28704Y534243D01*
X28872Y534272D01*
X29040Y534297D01*
X29209Y534318D01*
X29378Y534334D01*
X29547Y534347D01*
X29717Y534355D01*
X29887Y534359D01*
X30057Y534359D01*
X30227Y534355D01*
X30397Y534347D01*
X30566Y534334D01*
X30735Y534318D01*
X30904Y534297D01*
X31072Y534272D01*
X31240Y534243D01*
X31406Y534210D01*
X31572Y534173D01*
X31737Y534131D01*
X31901Y534086D01*
X32064Y534037D01*
X32225Y533984D01*
X32385Y533926D01*
X32544Y533865D01*
X32701Y533800D01*
X32856Y533731D01*
X33010Y533659D01*
X33162Y533582D01*
X33311Y533502D01*
X33459Y533418D01*
X33605Y533331D01*
X33749Y533240D01*
X33890Y533146D01*
X34029Y533048D01*
X34166Y532947D01*
X34300Y532842D01*
X34431Y532734D01*
X34560Y532623D01*
X34686Y532509D01*
X34809Y532392D01*
X34929Y532272D01*
X35047Y532149D01*
X35161Y532023D01*
X35272Y531895D01*
X35380Y531763D01*
X35484Y531629D01*
X35586Y531493D01*
X35684Y531354D01*
X35778Y531213D01*
X35869Y531069D01*
X35957Y530923D01*
X36040Y530775D01*
X36121Y530626D01*
X36197Y530474D01*
X36270Y530320D01*
X36339Y530165D01*
X36404Y530008D01*
X36465Y529849D01*
X36523Y529689D01*
X36576Y529528D01*
X36626Y529365D01*
X36671Y529202D01*
X36712Y529037D01*
X36750Y528871D01*
X36783Y528704D01*
X36812Y528537D01*
X36837Y528369D01*
X36858Y528200D01*
X36875Y528031D01*
X36888Y527861D01*
X36896Y527692D01*
X36900Y527522D01*
X36901Y527352D01*
X36897Y527182D01*
X36888Y527012D01*
X36876Y526842D01*
X36859Y526673D01*
X36839Y526505D01*
X36814Y526336D01*
X36785Y526169D01*
X36752Y526002D01*
X36715Y525836D01*
X36674Y525671D01*
X36629Y525508D01*
X36579Y525345D01*
X36526Y525183D01*
X36469Y525023D01*
X36408Y524865D01*
X36343Y524708D01*
X36275Y524552D01*
X36202Y524398D01*
X36126Y524246D01*
X36046Y524096D01*
X35962Y523948D01*
X35875Y523803D01*
X35784Y523659D01*
X35690Y523517D01*
X35592Y523378D01*
X35491Y523242D01*
X35387Y523108D01*
X35279Y522976D01*
X35168Y522847D01*
X35054Y522721D01*
X34937Y522598D01*
X34817Y522478D01*
X34694Y522360D01*
X34568Y522246D01*
X34440Y522135D01*
X34309Y522027D01*
X34175Y521922D01*
X34038Y521821D01*
X33899Y521723D01*
X33758Y521628D01*
X33615Y521537D01*
X33469Y521449D01*
X33321Y521365D01*
X33172Y521285D01*
X33020Y521208D01*
X43627Y518790D02*
X43819Y519092D01*
X44004Y519397D01*
X44183Y519707D01*
X44354Y520021D01*
X44518Y520339D01*
X44674Y520660D01*
X44823Y520985D01*
X44965Y521313D01*
X45099Y521644D01*
X45225Y521979D01*
X45344Y522316D01*
X45455Y522655D01*
X45558Y522998D01*
X45654Y523342D01*
X45512Y530916D02*
X45417Y531276D01*
X45314Y531634D01*
X45203Y531990D01*
X45083Y532342D01*
X44956Y532692D01*
X44820Y533039D01*
X44676Y533383D01*
X44524Y533723D01*
X44364Y534059D01*
X44196Y534392D01*
X44021Y534721D01*
X43837Y535045D01*
X43647Y535365D01*
X43449Y535681D01*
X38293Y540659D02*
X37970Y540847D01*
X37643Y541026D01*
X37312Y541198D01*
X36977Y541362D01*
X36638Y541519D01*
X36295Y541667D01*
X35949Y541807D01*
X35600Y541939D01*
X35247Y542063D01*
X34892Y542178D01*
X34535Y542285D01*
X34175Y542383D01*
X33812Y542473D01*
X26416Y542580D02*
X26048Y542492D01*
X25682Y542394D01*
X25319Y542289D01*
X24958Y542174D01*
X24601Y542051D01*
X24246Y541919D01*
X23894Y541779D01*
X23546Y541631D01*
X23202Y541474D01*
X22861Y541309D01*
X22524Y541136D01*
X22192Y540955D01*
X21864Y540766D01*
X16637Y535645D02*
X16440Y535354D01*
X16250Y535058D01*
X16067Y534758D01*
X15890Y534453D01*
X15721Y534145D01*
X15559Y533833D01*
X15404Y533517D01*
X15256Y533198D01*
X15116Y532876D01*
X14983Y532550D01*
X14857Y532221D01*
X14740Y531890D01*
X14629Y531556D01*
X14527Y531219D01*
X14432Y530880D01*
X14503Y523768D02*
X14583Y523412D01*
X14671Y523058D01*
X14767Y522707D01*
X14872Y522357D01*
X14984Y522011D01*
X15104Y521667D01*
X15232Y521325D01*
X15368Y520987D01*
X15511Y520652D01*
X15662Y520320D01*
X15821Y519992D01*
X15987Y519668D01*
X16161Y519347D01*
X16342Y519031D01*
X16530Y518719D01*
M02*
