G04 EAGLE Gerber RS-274X export*
G75*
%MOMM*%
%FSLAX34Y34*%
%LPD*%
%AMOC8*
5,1,8,0,0,1.08239X$1,22.5*%
G01*
%ADD10C,3.101600*%
%ADD11C,0.326897*%
%ADD12C,0.257809*%
%ADD13C,0.297525*%
%ADD14C,2.641600*%
%ADD15R,1.451600X0.701600*%
%ADD16R,2.101600X1.301600*%
%ADD17R,1.625600X1.625600*%
%ADD18C,1.625600*%
%ADD19R,0.736600X1.371600*%
%ADD20C,0.203200*%
%ADD21R,1.101600X1.201600*%
%ADD22C,2.351600*%
%ADD23C,2.051600*%
%ADD24R,0.701600X2.387600*%


D10*
X35000Y60000D03*
X238200Y60000D03*
D11*
X182501Y76629D02*
X182501Y83267D01*
X182501Y76629D02*
X175863Y76629D01*
X175863Y83267D01*
X182501Y83267D01*
X182501Y79735D02*
X175863Y79735D01*
X175863Y82841D02*
X182501Y82841D01*
X182501Y91869D02*
X182501Y98507D01*
X182501Y91869D02*
X175863Y91869D01*
X175863Y98507D01*
X182501Y98507D01*
X182501Y94975D02*
X175863Y94975D01*
X175863Y98081D02*
X182501Y98081D01*
D12*
X30509Y192683D02*
X25721Y192683D01*
X30509Y192683D02*
X30509Y186245D01*
X25721Y186245D01*
X25721Y192683D01*
X25721Y188694D02*
X30509Y188694D01*
X30509Y191143D02*
X25721Y191143D01*
X16539Y192683D02*
X11751Y192683D01*
X16539Y192683D02*
X16539Y186245D01*
X11751Y186245D01*
X11751Y192683D01*
X11751Y188694D02*
X16539Y188694D01*
X16539Y191143D02*
X11751Y191143D01*
D13*
X120171Y202191D02*
X128213Y202191D01*
X120171Y202191D02*
X120171Y208233D01*
X128213Y208233D01*
X128213Y202191D01*
X128213Y205017D02*
X120171Y205017D01*
X120171Y207843D02*
X128213Y207843D01*
X144171Y202191D02*
X152213Y202191D01*
X144171Y202191D02*
X144171Y208233D01*
X152213Y208233D01*
X152213Y202191D01*
X152213Y205017D02*
X144171Y205017D01*
X144171Y207843D02*
X152213Y207843D01*
D14*
X85800Y480000D03*
X136600Y480000D03*
X187400Y480000D03*
D15*
X52000Y143500D03*
X52000Y133500D03*
X52000Y123500D03*
X52000Y113500D03*
D16*
X15250Y100500D03*
X15250Y156500D03*
D15*
X221200Y113500D03*
X221200Y123500D03*
X221200Y133500D03*
X221200Y143500D03*
D16*
X257950Y156500D03*
X257950Y100500D03*
D17*
X73100Y15000D03*
D18*
X98500Y15000D03*
X123900Y15000D03*
X149300Y15000D03*
X174700Y15000D03*
X200100Y15000D03*
D19*
X230584Y206776D03*
X222456Y206776D03*
X214328Y206776D03*
D20*
X213566Y206776D02*
X231092Y206776D01*
D21*
X72038Y191880D03*
X91038Y191880D03*
X81538Y213880D03*
D11*
X160305Y201893D02*
X166943Y201893D01*
X160305Y201893D02*
X160305Y208531D01*
X166943Y208531D01*
X166943Y201893D01*
X166943Y204999D02*
X160305Y204999D01*
X160305Y208105D02*
X166943Y208105D01*
X175545Y201893D02*
X182183Y201893D01*
X175545Y201893D02*
X175545Y208531D01*
X182183Y208531D01*
X182183Y201893D01*
X182183Y204999D02*
X175545Y204999D01*
X175545Y208105D02*
X182183Y208105D01*
X32735Y208317D02*
X26097Y208317D01*
X32735Y208317D02*
X32735Y201679D01*
X26097Y201679D01*
X26097Y208317D01*
X26097Y204785D02*
X32735Y204785D01*
X32735Y207891D02*
X26097Y207891D01*
X17495Y208317D02*
X10857Y208317D01*
X17495Y208317D02*
X17495Y201679D01*
X10857Y201679D01*
X10857Y208317D01*
X10857Y204785D02*
X17495Y204785D01*
X17495Y207891D02*
X10857Y207891D01*
X68611Y155919D02*
X75249Y155919D01*
X68611Y155919D02*
X68611Y162557D01*
X75249Y162557D01*
X75249Y155919D01*
X75249Y159025D02*
X68611Y159025D01*
X68611Y162131D02*
X75249Y162131D01*
X83851Y155919D02*
X90489Y155919D01*
X83851Y155919D02*
X83851Y162557D01*
X90489Y162557D01*
X90489Y155919D01*
X90489Y159025D02*
X83851Y159025D01*
X83851Y162131D02*
X90489Y162131D01*
X218985Y168687D02*
X218985Y175325D01*
X218985Y168687D02*
X212347Y168687D01*
X212347Y175325D01*
X218985Y175325D01*
X218985Y171793D02*
X212347Y171793D01*
X212347Y174899D02*
X218985Y174899D01*
X218985Y183927D02*
X218985Y190565D01*
X218985Y183927D02*
X212347Y183927D01*
X212347Y190565D01*
X218985Y190565D01*
X218985Y187033D02*
X212347Y187033D01*
X212347Y190139D02*
X218985Y190139D01*
X233717Y175325D02*
X233717Y168687D01*
X227079Y168687D01*
X227079Y175325D01*
X233717Y175325D01*
X233717Y171793D02*
X227079Y171793D01*
X227079Y174899D02*
X233717Y174899D01*
X233717Y183927D02*
X233717Y190565D01*
X233717Y183927D02*
X227079Y183927D01*
X227079Y190565D01*
X233717Y190565D01*
X233717Y187033D02*
X227079Y187033D01*
X227079Y190139D02*
X233717Y190139D01*
X182155Y165673D02*
X182155Y159035D01*
X175517Y159035D01*
X175517Y165673D01*
X182155Y165673D01*
X182155Y162141D02*
X175517Y162141D01*
X175517Y165247D02*
X182155Y165247D01*
X182155Y174275D02*
X182155Y180913D01*
X182155Y174275D02*
X175517Y174275D01*
X175517Y180913D01*
X182155Y180913D01*
X182155Y177381D02*
X175517Y177381D01*
X175517Y180487D02*
X182155Y180487D01*
X75287Y170621D02*
X68649Y170621D01*
X68649Y177259D01*
X75287Y177259D01*
X75287Y170621D01*
X75287Y173727D02*
X68649Y173727D01*
X68649Y176833D02*
X75287Y176833D01*
X83889Y170621D02*
X90527Y170621D01*
X83889Y170621D02*
X83889Y177259D01*
X90527Y177259D01*
X90527Y170621D01*
X90527Y173727D02*
X83889Y173727D01*
X83889Y176833D02*
X90527Y176833D01*
D22*
X136600Y240000D03*
X76600Y382000D03*
X196600Y382000D03*
D23*
X76600Y260000D03*
X196600Y260000D03*
D24*
X142850Y161700D03*
X142850Y95100D03*
X155550Y161700D03*
X130150Y161700D03*
X117450Y161700D03*
X155550Y95100D03*
X130150Y95100D03*
X117450Y95100D03*
M02*
