G04 EAGLE Gerber RS-274X export*
G75*
%MOMM*%
%FSLAX34Y34*%
%LPD*%
%AMOC8*
5,1,8,0,0,1.08239X$1,22.5*%
G01*
%ADD10C,2.540000*%
%ADD11R,1.524000X1.524000*%
%ADD12C,1.524000*%
%ADD13C,2.250000*%
%ADD14C,1.950000*%
%ADD15C,0.609600*%
%ADD16C,0.203200*%
%ADD17C,0.304800*%

G36*
X62359Y5221D02*
X62359Y5221D01*
X62445Y5224D01*
X62490Y5240D01*
X62537Y5248D01*
X62614Y5285D01*
X62695Y5314D01*
X62733Y5342D01*
X62776Y5363D01*
X62839Y5422D01*
X62907Y5473D01*
X62936Y5512D01*
X62971Y5545D01*
X63013Y5619D01*
X63063Y5688D01*
X63079Y5734D01*
X63103Y5775D01*
X63121Y5859D01*
X63149Y5940D01*
X63147Y5976D01*
X63160Y6035D01*
X63139Y6300D01*
X63133Y6315D01*
X63132Y6326D01*
X62939Y7045D01*
X62939Y13223D01*
X72211Y13223D01*
X72312Y13238D01*
X72415Y13246D01*
X72443Y13258D01*
X72474Y13263D01*
X72566Y13307D01*
X72661Y13345D01*
X72685Y13365D01*
X72713Y13378D01*
X72788Y13448D01*
X72868Y13513D01*
X72885Y13539D01*
X72907Y13560D01*
X72958Y13649D01*
X73015Y13734D01*
X73020Y13758D01*
X73039Y13790D01*
X73097Y14050D01*
X73094Y14088D01*
X73099Y14111D01*
X73099Y15001D01*
X73101Y15001D01*
X73101Y14111D01*
X73116Y14009D01*
X73125Y13907D01*
X73136Y13879D01*
X73141Y13848D01*
X73185Y13756D01*
X73224Y13660D01*
X73243Y13637D01*
X73256Y13609D01*
X73326Y13534D01*
X73391Y13454D01*
X73417Y13437D01*
X73438Y13415D01*
X73527Y13364D01*
X73612Y13307D01*
X73636Y13301D01*
X73669Y13283D01*
X73928Y13225D01*
X73966Y13228D01*
X73989Y13223D01*
X83261Y13223D01*
X83261Y7045D01*
X83068Y6326D01*
X83058Y6241D01*
X83040Y6157D01*
X83044Y6109D01*
X83038Y6062D01*
X83054Y5977D01*
X83061Y5892D01*
X83079Y5848D01*
X83088Y5801D01*
X83128Y5725D01*
X83160Y5645D01*
X83191Y5608D01*
X83213Y5566D01*
X83274Y5506D01*
X83328Y5439D01*
X83368Y5412D01*
X83402Y5379D01*
X83478Y5339D01*
X83549Y5292D01*
X83584Y5284D01*
X83637Y5256D01*
X83899Y5208D01*
X83915Y5210D01*
X83926Y5208D01*
X93115Y5208D01*
X93207Y5222D01*
X93299Y5227D01*
X93337Y5241D01*
X93378Y5248D01*
X93461Y5288D01*
X93548Y5320D01*
X93580Y5345D01*
X93617Y5363D01*
X93685Y5426D01*
X93758Y5483D01*
X93781Y5516D01*
X93812Y5545D01*
X93857Y5625D01*
X93910Y5700D01*
X93923Y5740D01*
X93943Y5775D01*
X93964Y5866D01*
X93992Y5954D01*
X93992Y5995D01*
X94001Y6035D01*
X93994Y6127D01*
X93995Y6219D01*
X93983Y6259D01*
X93980Y6300D01*
X93945Y6386D01*
X93919Y6474D01*
X93896Y6508D01*
X93881Y6547D01*
X93822Y6618D01*
X93771Y6695D01*
X93746Y6713D01*
X93713Y6753D01*
X93492Y6900D01*
X93472Y6905D01*
X93455Y6917D01*
X93176Y7032D01*
X90532Y9676D01*
X89101Y13130D01*
X89101Y16870D01*
X90532Y20324D01*
X93176Y22968D01*
X96630Y24399D01*
X100370Y24399D01*
X103824Y22968D01*
X106468Y20324D01*
X107899Y16870D01*
X107899Y13130D01*
X106468Y9676D01*
X103824Y7032D01*
X103545Y6917D01*
X103466Y6869D01*
X103383Y6829D01*
X103353Y6801D01*
X103317Y6779D01*
X103256Y6710D01*
X103188Y6647D01*
X103168Y6612D01*
X103141Y6581D01*
X103102Y6497D01*
X103057Y6417D01*
X103048Y6376D01*
X103031Y6339D01*
X103019Y6247D01*
X102999Y6157D01*
X103002Y6116D01*
X102997Y6075D01*
X103013Y5984D01*
X103020Y5892D01*
X103036Y5854D01*
X103043Y5813D01*
X103085Y5731D01*
X103119Y5645D01*
X103145Y5613D01*
X103164Y5577D01*
X103229Y5511D01*
X103287Y5439D01*
X103321Y5416D01*
X103350Y5387D01*
X103431Y5343D01*
X103508Y5292D01*
X103539Y5285D01*
X103584Y5260D01*
X103845Y5209D01*
X103865Y5212D01*
X103885Y5208D01*
X118515Y5208D01*
X118607Y5222D01*
X118699Y5227D01*
X118737Y5241D01*
X118778Y5248D01*
X118861Y5288D01*
X118948Y5320D01*
X118980Y5345D01*
X119017Y5363D01*
X119085Y5426D01*
X119158Y5483D01*
X119181Y5516D01*
X119212Y5545D01*
X119257Y5625D01*
X119310Y5700D01*
X119323Y5740D01*
X119343Y5775D01*
X119364Y5866D01*
X119392Y5954D01*
X119392Y5995D01*
X119401Y6035D01*
X119394Y6127D01*
X119395Y6219D01*
X119383Y6259D01*
X119380Y6300D01*
X119345Y6386D01*
X119319Y6474D01*
X119296Y6508D01*
X119281Y6547D01*
X119222Y6618D01*
X119171Y6695D01*
X119146Y6713D01*
X119113Y6753D01*
X118892Y6900D01*
X118872Y6905D01*
X118855Y6917D01*
X118576Y7032D01*
X115932Y9676D01*
X114501Y13130D01*
X114501Y16870D01*
X115932Y20324D01*
X118576Y22968D01*
X122030Y24399D01*
X125770Y24399D01*
X129224Y22968D01*
X131868Y20324D01*
X133299Y16870D01*
X133299Y13130D01*
X131868Y9676D01*
X129224Y7032D01*
X128945Y6917D01*
X128866Y6869D01*
X128783Y6829D01*
X128753Y6801D01*
X128717Y6779D01*
X128656Y6710D01*
X128588Y6647D01*
X128568Y6612D01*
X128541Y6581D01*
X128502Y6497D01*
X128457Y6417D01*
X128448Y6376D01*
X128431Y6339D01*
X128419Y6247D01*
X128399Y6157D01*
X128402Y6116D01*
X128397Y6075D01*
X128413Y5984D01*
X128420Y5892D01*
X128436Y5854D01*
X128443Y5813D01*
X128485Y5731D01*
X128519Y5645D01*
X128545Y5613D01*
X128564Y5577D01*
X128629Y5511D01*
X128687Y5439D01*
X128721Y5416D01*
X128750Y5387D01*
X128831Y5343D01*
X128908Y5292D01*
X128939Y5285D01*
X128984Y5260D01*
X129245Y5209D01*
X129265Y5212D01*
X129285Y5208D01*
X143915Y5208D01*
X144007Y5222D01*
X144099Y5227D01*
X144137Y5241D01*
X144178Y5248D01*
X144261Y5288D01*
X144348Y5320D01*
X144380Y5345D01*
X144417Y5363D01*
X144485Y5426D01*
X144558Y5483D01*
X144581Y5516D01*
X144612Y5545D01*
X144657Y5625D01*
X144710Y5700D01*
X144723Y5740D01*
X144743Y5775D01*
X144764Y5866D01*
X144792Y5954D01*
X144792Y5995D01*
X144801Y6035D01*
X144794Y6127D01*
X144795Y6219D01*
X144783Y6259D01*
X144780Y6300D01*
X144745Y6386D01*
X144719Y6474D01*
X144696Y6508D01*
X144681Y6547D01*
X144622Y6618D01*
X144571Y6695D01*
X144546Y6713D01*
X144513Y6753D01*
X144292Y6900D01*
X144272Y6905D01*
X144255Y6917D01*
X143976Y7032D01*
X141332Y9676D01*
X139901Y13130D01*
X139901Y16870D01*
X141332Y20324D01*
X143976Y22968D01*
X147430Y24399D01*
X151170Y24399D01*
X154624Y22968D01*
X157268Y20324D01*
X158699Y16870D01*
X158699Y13130D01*
X157268Y9676D01*
X154624Y7032D01*
X154345Y6917D01*
X154266Y6869D01*
X154183Y6829D01*
X154153Y6801D01*
X154117Y6779D01*
X154056Y6710D01*
X153988Y6647D01*
X153968Y6612D01*
X153941Y6581D01*
X153902Y6497D01*
X153857Y6417D01*
X153848Y6376D01*
X153831Y6339D01*
X153819Y6247D01*
X153799Y6157D01*
X153802Y6116D01*
X153797Y6075D01*
X153813Y5984D01*
X153820Y5892D01*
X153836Y5854D01*
X153843Y5813D01*
X153885Y5731D01*
X153919Y5645D01*
X153945Y5613D01*
X153964Y5577D01*
X154029Y5511D01*
X154087Y5439D01*
X154121Y5416D01*
X154150Y5387D01*
X154231Y5343D01*
X154308Y5292D01*
X154339Y5285D01*
X154384Y5260D01*
X154645Y5209D01*
X154665Y5212D01*
X154685Y5208D01*
X169315Y5208D01*
X169407Y5222D01*
X169499Y5227D01*
X169537Y5241D01*
X169578Y5248D01*
X169661Y5288D01*
X169748Y5320D01*
X169780Y5345D01*
X169817Y5363D01*
X169885Y5426D01*
X169958Y5483D01*
X169981Y5516D01*
X170012Y5545D01*
X170057Y5625D01*
X170110Y5700D01*
X170123Y5740D01*
X170143Y5775D01*
X170164Y5866D01*
X170192Y5954D01*
X170192Y5995D01*
X170201Y6035D01*
X170194Y6127D01*
X170195Y6219D01*
X170183Y6259D01*
X170180Y6300D01*
X170145Y6386D01*
X170119Y6474D01*
X170096Y6508D01*
X170081Y6547D01*
X170022Y6618D01*
X169971Y6695D01*
X169946Y6713D01*
X169913Y6753D01*
X169692Y6900D01*
X169672Y6905D01*
X169655Y6917D01*
X169376Y7032D01*
X166732Y9676D01*
X165301Y13130D01*
X165301Y16870D01*
X166122Y18850D01*
X166137Y18911D01*
X166161Y18968D01*
X166168Y19039D01*
X166186Y19108D01*
X166182Y19170D01*
X166188Y19232D01*
X166174Y19302D01*
X166170Y19374D01*
X166149Y19432D01*
X166136Y19493D01*
X166111Y19533D01*
X166077Y19623D01*
X165946Y19792D01*
X165929Y19818D01*
X129151Y56597D01*
X127253Y58494D01*
X127253Y70023D01*
X127250Y70043D01*
X127252Y70064D01*
X127230Y70175D01*
X127213Y70286D01*
X127204Y70304D01*
X127200Y70325D01*
X127176Y70364D01*
X127098Y70525D01*
X127021Y70607D01*
X126993Y70651D01*
X125221Y72423D01*
X125221Y76421D01*
X128049Y79249D01*
X132047Y79249D01*
X134875Y76421D01*
X134875Y72423D01*
X133103Y70651D01*
X133090Y70634D01*
X133074Y70621D01*
X133012Y70527D01*
X132945Y70437D01*
X132938Y70417D01*
X132927Y70400D01*
X132917Y70355D01*
X132858Y70186D01*
X132854Y70073D01*
X132843Y70023D01*
X132843Y61178D01*
X132846Y61157D01*
X132844Y61136D01*
X132866Y61026D01*
X132883Y60915D01*
X132892Y60896D01*
X132896Y60875D01*
X132920Y60837D01*
X132963Y60749D01*
X132976Y60717D01*
X132982Y60709D01*
X132998Y60675D01*
X133075Y60593D01*
X133103Y60549D01*
X169882Y23771D01*
X169931Y23734D01*
X169975Y23690D01*
X170038Y23656D01*
X170096Y23613D01*
X170154Y23593D01*
X170209Y23563D01*
X170279Y23549D01*
X170347Y23526D01*
X170408Y23524D01*
X170469Y23512D01*
X170517Y23520D01*
X170612Y23517D01*
X170819Y23573D01*
X170850Y23578D01*
X172830Y24399D01*
X176570Y24399D01*
X180024Y22968D01*
X182668Y20324D01*
X184099Y16870D01*
X184099Y13130D01*
X182668Y9676D01*
X180024Y7032D01*
X179745Y6917D01*
X179666Y6869D01*
X179583Y6829D01*
X179553Y6801D01*
X179517Y6779D01*
X179456Y6710D01*
X179388Y6647D01*
X179368Y6612D01*
X179341Y6581D01*
X179302Y6497D01*
X179257Y6417D01*
X179248Y6376D01*
X179231Y6339D01*
X179219Y6247D01*
X179199Y6157D01*
X179202Y6116D01*
X179197Y6075D01*
X179213Y5984D01*
X179220Y5892D01*
X179236Y5854D01*
X179243Y5813D01*
X179285Y5731D01*
X179319Y5645D01*
X179345Y5613D01*
X179364Y5577D01*
X179429Y5511D01*
X179487Y5439D01*
X179521Y5416D01*
X179550Y5387D01*
X179631Y5343D01*
X179708Y5292D01*
X179739Y5285D01*
X179784Y5260D01*
X180045Y5209D01*
X180065Y5212D01*
X180085Y5208D01*
X194715Y5208D01*
X194807Y5222D01*
X194899Y5227D01*
X194937Y5241D01*
X194978Y5248D01*
X195061Y5288D01*
X195148Y5320D01*
X195180Y5345D01*
X195217Y5363D01*
X195285Y5426D01*
X195358Y5483D01*
X195381Y5516D01*
X195412Y5545D01*
X195457Y5625D01*
X195510Y5700D01*
X195523Y5740D01*
X195543Y5775D01*
X195564Y5866D01*
X195592Y5954D01*
X195592Y5995D01*
X195601Y6035D01*
X195594Y6127D01*
X195595Y6219D01*
X195583Y6259D01*
X195580Y6300D01*
X195545Y6386D01*
X195519Y6474D01*
X195496Y6508D01*
X195481Y6547D01*
X195422Y6618D01*
X195371Y6695D01*
X195346Y6713D01*
X195313Y6753D01*
X195092Y6900D01*
X195072Y6905D01*
X195055Y6917D01*
X194776Y7032D01*
X192132Y9676D01*
X190701Y13130D01*
X190701Y16870D01*
X192132Y20324D01*
X194776Y22968D01*
X198230Y24399D01*
X201970Y24399D01*
X205424Y22968D01*
X208068Y20324D01*
X209499Y16870D01*
X209499Y13130D01*
X208068Y9676D01*
X205424Y7032D01*
X205145Y6917D01*
X205066Y6869D01*
X204983Y6829D01*
X204953Y6801D01*
X204917Y6779D01*
X204856Y6710D01*
X204788Y6647D01*
X204768Y6612D01*
X204741Y6581D01*
X204702Y6497D01*
X204657Y6417D01*
X204648Y6376D01*
X204631Y6339D01*
X204619Y6247D01*
X204599Y6157D01*
X204602Y6116D01*
X204597Y6075D01*
X204613Y5984D01*
X204620Y5892D01*
X204636Y5854D01*
X204643Y5813D01*
X204685Y5731D01*
X204719Y5645D01*
X204745Y5613D01*
X204764Y5577D01*
X204829Y5511D01*
X204887Y5439D01*
X204921Y5416D01*
X204950Y5387D01*
X205031Y5343D01*
X205108Y5292D01*
X205139Y5285D01*
X205184Y5260D01*
X205445Y5209D01*
X205465Y5212D01*
X205485Y5208D01*
X267104Y5208D01*
X267206Y5223D01*
X267308Y5231D01*
X267336Y5243D01*
X267367Y5248D01*
X267459Y5292D01*
X267555Y5330D01*
X267578Y5350D01*
X267606Y5363D01*
X267681Y5433D01*
X267761Y5498D01*
X267778Y5524D01*
X267800Y5545D01*
X267851Y5634D01*
X267908Y5719D01*
X267914Y5743D01*
X267932Y5775D01*
X267990Y6035D01*
X267987Y6073D01*
X267992Y6096D01*
X267992Y47723D01*
X267987Y47757D01*
X267990Y47791D01*
X267967Y47888D01*
X267952Y47986D01*
X267937Y48017D01*
X267930Y48050D01*
X267880Y48136D01*
X267837Y48225D01*
X267813Y48250D01*
X267796Y48280D01*
X267723Y48347D01*
X267655Y48419D01*
X267625Y48437D01*
X267600Y48460D01*
X267510Y48502D01*
X267425Y48551D01*
X267391Y48559D01*
X267360Y48574D01*
X267262Y48588D01*
X267165Y48609D01*
X267131Y48606D01*
X267097Y48611D01*
X266999Y48596D01*
X266900Y48588D01*
X266868Y48575D01*
X266834Y48569D01*
X266745Y48525D01*
X266653Y48489D01*
X266627Y48467D01*
X266596Y48451D01*
X266560Y48413D01*
X266447Y48321D01*
X266371Y48206D01*
X266335Y48167D01*
X261755Y40235D01*
X253575Y33371D01*
X243539Y29718D01*
X232861Y29718D01*
X222825Y33371D01*
X214645Y40235D01*
X209305Y49483D01*
X207451Y60000D01*
X209305Y70517D01*
X214645Y79765D01*
X222825Y86629D01*
X232861Y90282D01*
X243539Y90282D01*
X253575Y86629D01*
X261755Y79765D01*
X266335Y71833D01*
X266356Y71806D01*
X266371Y71775D01*
X266439Y71702D01*
X266501Y71625D01*
X266529Y71606D01*
X266553Y71581D01*
X266639Y71531D01*
X266721Y71476D01*
X266754Y71466D01*
X266783Y71449D01*
X266880Y71427D01*
X266975Y71398D01*
X267009Y71398D01*
X267043Y71391D01*
X267142Y71399D01*
X267241Y71399D01*
X267274Y71410D01*
X267308Y71412D01*
X267400Y71449D01*
X267494Y71479D01*
X267522Y71499D01*
X267555Y71511D01*
X267631Y71574D01*
X267713Y71630D01*
X267734Y71657D01*
X267761Y71679D01*
X267816Y71762D01*
X267877Y71839D01*
X267889Y71871D01*
X267908Y71900D01*
X267920Y71952D01*
X267972Y72088D01*
X267981Y72225D01*
X267992Y72277D01*
X267992Y211836D01*
X267977Y211938D01*
X267969Y212040D01*
X267957Y212068D01*
X267952Y212099D01*
X267908Y212191D01*
X267870Y212287D01*
X267850Y212310D01*
X267837Y212338D01*
X267767Y212413D01*
X267702Y212493D01*
X267676Y212510D01*
X267655Y212532D01*
X267566Y212583D01*
X267481Y212640D01*
X267457Y212646D01*
X267425Y212664D01*
X267165Y212722D01*
X267127Y212719D01*
X267104Y212724D01*
X6096Y212724D01*
X5994Y212709D01*
X5892Y212701D01*
X5864Y212689D01*
X5833Y212684D01*
X5741Y212640D01*
X5645Y212602D01*
X5622Y212582D01*
X5594Y212569D01*
X5519Y212499D01*
X5439Y212434D01*
X5422Y212408D01*
X5400Y212387D01*
X5349Y212298D01*
X5292Y212213D01*
X5286Y212189D01*
X5268Y212157D01*
X5210Y211897D01*
X5213Y211859D01*
X5208Y211836D01*
X5208Y72277D01*
X5213Y72243D01*
X5210Y72209D01*
X5233Y72112D01*
X5248Y72014D01*
X5263Y71983D01*
X5270Y71950D01*
X5320Y71864D01*
X5363Y71775D01*
X5387Y71750D01*
X5404Y71720D01*
X5477Y71653D01*
X5545Y71581D01*
X5575Y71563D01*
X5600Y71540D01*
X5690Y71498D01*
X5775Y71449D01*
X5809Y71441D01*
X5840Y71426D01*
X5938Y71412D01*
X6035Y71391D01*
X6069Y71394D01*
X6103Y71389D01*
X6201Y71404D01*
X6300Y71412D01*
X6332Y71425D01*
X6366Y71431D01*
X6455Y71475D01*
X6547Y71511D01*
X6573Y71533D01*
X6604Y71549D01*
X6640Y71587D01*
X6753Y71679D01*
X6829Y71794D01*
X6865Y71833D01*
X11445Y79765D01*
X19625Y86629D01*
X29661Y90282D01*
X40339Y90282D01*
X50375Y86629D01*
X58555Y79765D01*
X63895Y70517D01*
X65749Y60000D01*
X63895Y49483D01*
X58555Y40235D01*
X50375Y33371D01*
X40339Y29718D01*
X29661Y29718D01*
X19625Y33371D01*
X11445Y40235D01*
X6865Y48167D01*
X6844Y48194D01*
X6829Y48225D01*
X6761Y48298D01*
X6699Y48375D01*
X6671Y48394D01*
X6647Y48419D01*
X6561Y48469D01*
X6479Y48524D01*
X6446Y48534D01*
X6417Y48551D01*
X6320Y48573D01*
X6225Y48602D01*
X6191Y48602D01*
X6157Y48609D01*
X6058Y48601D01*
X5959Y48601D01*
X5926Y48590D01*
X5892Y48588D01*
X5800Y48551D01*
X5706Y48521D01*
X5678Y48501D01*
X5645Y48489D01*
X5569Y48426D01*
X5487Y48370D01*
X5466Y48343D01*
X5439Y48321D01*
X5384Y48238D01*
X5323Y48161D01*
X5311Y48129D01*
X5292Y48100D01*
X5280Y48048D01*
X5228Y47912D01*
X5219Y47775D01*
X5208Y47723D01*
X5208Y6096D01*
X5223Y5994D01*
X5231Y5892D01*
X5243Y5864D01*
X5248Y5833D01*
X5292Y5741D01*
X5330Y5645D01*
X5350Y5622D01*
X5363Y5594D01*
X5433Y5519D01*
X5498Y5439D01*
X5524Y5422D01*
X5545Y5400D01*
X5634Y5349D01*
X5719Y5292D01*
X5743Y5286D01*
X5775Y5268D01*
X6035Y5210D01*
X6073Y5213D01*
X6096Y5208D01*
X62274Y5208D01*
X62359Y5221D01*
G37*
%LPC*%
G36*
X96501Y62027D02*
X96501Y62027D01*
X93673Y64855D01*
X93673Y68853D01*
X96501Y71681D01*
X98288Y71681D01*
X98309Y71684D01*
X98330Y71682D01*
X98440Y71704D01*
X98551Y71721D01*
X98570Y71730D01*
X98590Y71734D01*
X98629Y71758D01*
X98790Y71836D01*
X98873Y71913D01*
X98916Y71941D01*
X125528Y98553D01*
X161078Y98553D01*
X161099Y98556D01*
X161120Y98554D01*
X161230Y98576D01*
X161341Y98593D01*
X161360Y98602D01*
X161380Y98606D01*
X161419Y98630D01*
X161580Y98708D01*
X161663Y98785D01*
X161706Y98813D01*
X174095Y111202D01*
X174108Y111219D01*
X174124Y111232D01*
X174186Y111326D01*
X174253Y111416D01*
X174260Y111436D01*
X174271Y111453D01*
X174281Y111498D01*
X174340Y111667D01*
X174344Y111780D01*
X174355Y111830D01*
X174355Y113617D01*
X177183Y116445D01*
X178970Y116445D01*
X178991Y116448D01*
X179012Y116446D01*
X179122Y116468D01*
X179233Y116485D01*
X179252Y116494D01*
X179272Y116498D01*
X179311Y116522D01*
X179472Y116600D01*
X179555Y116677D01*
X179598Y116705D01*
X185921Y123028D01*
X185934Y123045D01*
X185950Y123058D01*
X186012Y123152D01*
X186079Y123242D01*
X186086Y123262D01*
X186097Y123279D01*
X186107Y123324D01*
X186166Y123493D01*
X186170Y123606D01*
X186181Y123656D01*
X186181Y128817D01*
X186174Y128868D01*
X186175Y128920D01*
X186154Y128999D01*
X186141Y129080D01*
X186119Y129126D01*
X186105Y129176D01*
X186061Y129245D01*
X186026Y129319D01*
X185991Y129357D01*
X185963Y129400D01*
X185900Y129453D01*
X185844Y129513D01*
X185800Y129539D01*
X185760Y129572D01*
X185685Y129605D01*
X185614Y129645D01*
X185563Y129657D01*
X185516Y129677D01*
X185434Y129685D01*
X185354Y129703D01*
X185303Y129699D01*
X185251Y129704D01*
X185171Y129688D01*
X185089Y129681D01*
X185041Y129662D01*
X184991Y129652D01*
X184947Y129624D01*
X184842Y129582D01*
X184703Y129469D01*
X184665Y129445D01*
X183803Y128583D01*
X179805Y128583D01*
X178033Y130355D01*
X178016Y130368D01*
X178003Y130384D01*
X177909Y130446D01*
X177819Y130513D01*
X177799Y130520D01*
X177782Y130531D01*
X177737Y130541D01*
X177568Y130600D01*
X177455Y130604D01*
X177405Y130615D01*
X122061Y130615D01*
X122041Y130612D01*
X122020Y130614D01*
X121909Y130592D01*
X121798Y130576D01*
X121780Y130566D01*
X121759Y130562D01*
X121720Y130538D01*
X121559Y130460D01*
X121477Y130383D01*
X121433Y130355D01*
X119601Y128523D01*
X115603Y128523D01*
X112775Y131351D01*
X112775Y135349D01*
X115603Y138177D01*
X119601Y138177D01*
X121313Y136465D01*
X121330Y136453D01*
X121343Y136436D01*
X121437Y136374D01*
X121527Y136307D01*
X121547Y136300D01*
X121564Y136289D01*
X121609Y136279D01*
X121778Y136220D01*
X121891Y136216D01*
X121941Y136205D01*
X177405Y136205D01*
X177425Y136208D01*
X177446Y136206D01*
X177557Y136228D01*
X177668Y136245D01*
X177686Y136254D01*
X177707Y136258D01*
X177746Y136282D01*
X177907Y136360D01*
X177989Y136437D01*
X178033Y136465D01*
X179805Y138237D01*
X183803Y138237D01*
X184665Y137375D01*
X184706Y137344D01*
X184742Y137307D01*
X184813Y137266D01*
X184879Y137217D01*
X184928Y137200D01*
X184972Y137175D01*
X185052Y137157D01*
X185130Y137130D01*
X185182Y137128D01*
X185232Y137117D01*
X185314Y137124D01*
X185396Y137121D01*
X185445Y137134D01*
X185497Y137139D01*
X185573Y137169D01*
X185652Y137191D01*
X185696Y137218D01*
X185744Y137238D01*
X185807Y137289D01*
X185876Y137333D01*
X185910Y137373D01*
X185950Y137405D01*
X185995Y137474D01*
X186048Y137536D01*
X186069Y137583D01*
X186097Y137626D01*
X186109Y137677D01*
X186153Y137780D01*
X186171Y137959D01*
X186181Y138003D01*
X186181Y173909D01*
X186178Y173929D01*
X186180Y173950D01*
X186158Y174061D01*
X186141Y174172D01*
X186132Y174190D01*
X186128Y174211D01*
X186104Y174250D01*
X186026Y174411D01*
X185949Y174493D01*
X185921Y174537D01*
X184657Y175801D01*
X184657Y179799D01*
X187485Y182627D01*
X191483Y182627D01*
X194311Y179799D01*
X194311Y175801D01*
X193047Y174537D01*
X193034Y174520D01*
X193018Y174507D01*
X192956Y174413D01*
X192889Y174323D01*
X192882Y174303D01*
X192871Y174286D01*
X192861Y174241D01*
X192802Y174072D01*
X192798Y173959D01*
X192787Y173909D01*
X192787Y120552D01*
X184269Y112034D01*
X184256Y112017D01*
X184240Y112004D01*
X184178Y111910D01*
X184111Y111820D01*
X184104Y111800D01*
X184093Y111783D01*
X184083Y111738D01*
X184024Y111569D01*
X184020Y111456D01*
X184009Y111406D01*
X184009Y109619D01*
X181181Y106791D01*
X179394Y106791D01*
X179373Y106788D01*
X179352Y106790D01*
X179242Y106768D01*
X179131Y106751D01*
X179112Y106742D01*
X179092Y106738D01*
X179053Y106714D01*
X178892Y106636D01*
X178809Y106559D01*
X178766Y106531D01*
X164182Y91947D01*
X128632Y91947D01*
X128611Y91944D01*
X128590Y91946D01*
X128480Y91924D01*
X128369Y91907D01*
X128350Y91898D01*
X128330Y91894D01*
X128291Y91870D01*
X128130Y91792D01*
X128047Y91715D01*
X128004Y91687D01*
X103587Y67270D01*
X103574Y67253D01*
X103558Y67240D01*
X103496Y67146D01*
X103429Y67056D01*
X103422Y67036D01*
X103411Y67019D01*
X103401Y66974D01*
X103342Y66805D01*
X103338Y66692D01*
X103327Y66642D01*
X103327Y64855D01*
X100499Y62027D01*
X96501Y62027D01*
G37*
%LPD*%
%LPC*%
G36*
X198101Y99873D02*
X198101Y99873D01*
X195273Y102701D01*
X195273Y106699D01*
X197045Y108471D01*
X197058Y108488D01*
X197074Y108501D01*
X197136Y108595D01*
X197203Y108685D01*
X197210Y108705D01*
X197221Y108722D01*
X197231Y108767D01*
X197290Y108936D01*
X197293Y109028D01*
X197303Y109072D01*
X197302Y109085D01*
X197305Y109099D01*
X197305Y157959D01*
X197302Y157979D01*
X197304Y158000D01*
X197282Y158111D01*
X197265Y158222D01*
X197256Y158240D01*
X197252Y158261D01*
X197228Y158300D01*
X197150Y158461D01*
X197073Y158543D01*
X197045Y158587D01*
X195325Y160307D01*
X195325Y164305D01*
X198153Y167133D01*
X202151Y167133D01*
X204979Y164305D01*
X204979Y160307D01*
X203155Y158483D01*
X203142Y158466D01*
X203126Y158453D01*
X203064Y158359D01*
X202997Y158269D01*
X202990Y158249D01*
X202979Y158232D01*
X202969Y158187D01*
X202910Y158018D01*
X202906Y157905D01*
X202895Y157855D01*
X202895Y109099D01*
X202898Y109079D01*
X202896Y109058D01*
X202916Y108954D01*
X202918Y108929D01*
X202922Y108921D01*
X202935Y108836D01*
X202944Y108818D01*
X202948Y108797D01*
X202972Y108758D01*
X203050Y108597D01*
X203127Y108515D01*
X203155Y108471D01*
X204927Y106699D01*
X204927Y102701D01*
X202099Y99873D01*
X198101Y99873D01*
G37*
%LPD*%
%LPC*%
G36*
X99093Y108457D02*
X99093Y108457D01*
X96265Y111285D01*
X96265Y115283D01*
X99093Y118111D01*
X103091Y118111D01*
X104863Y116339D01*
X104880Y116326D01*
X104893Y116310D01*
X104987Y116248D01*
X105077Y116181D01*
X105097Y116174D01*
X105114Y116163D01*
X105159Y116153D01*
X105328Y116094D01*
X105441Y116090D01*
X105491Y116079D01*
X138603Y116079D01*
X138623Y116082D01*
X138644Y116080D01*
X138755Y116102D01*
X138866Y116119D01*
X138884Y116128D01*
X138905Y116132D01*
X138944Y116156D01*
X139105Y116234D01*
X139187Y116311D01*
X139231Y116339D01*
X141003Y118111D01*
X145001Y118111D01*
X147829Y115283D01*
X147829Y111285D01*
X145001Y108457D01*
X141003Y108457D01*
X139231Y110229D01*
X139214Y110242D01*
X139201Y110258D01*
X139107Y110320D01*
X139017Y110387D01*
X138997Y110394D01*
X138980Y110405D01*
X138935Y110415D01*
X138766Y110474D01*
X138653Y110478D01*
X138603Y110489D01*
X105491Y110489D01*
X105471Y110486D01*
X105450Y110488D01*
X105339Y110466D01*
X105228Y110449D01*
X105210Y110440D01*
X105189Y110436D01*
X105150Y110412D01*
X104989Y110334D01*
X104907Y110257D01*
X104863Y110229D01*
X103091Y108457D01*
X99093Y108457D01*
G37*
%LPD*%
%LPC*%
G36*
X74877Y16777D02*
X74877Y16777D01*
X74877Y25161D01*
X81055Y25161D01*
X81701Y24988D01*
X82280Y24653D01*
X82753Y24180D01*
X83088Y23601D01*
X83261Y22955D01*
X83261Y16777D01*
X74877Y16777D01*
G37*
%LPD*%
%LPC*%
G36*
X62939Y16777D02*
X62939Y16777D01*
X62939Y22955D01*
X63112Y23601D01*
X63447Y24180D01*
X63920Y24653D01*
X64499Y24988D01*
X65145Y25161D01*
X71323Y25161D01*
X71323Y16777D01*
X62939Y16777D01*
G37*
%LPD*%
D10*
X85800Y480000D03*
X136600Y480000D03*
X187400Y480000D03*
D11*
X73100Y15000D03*
D12*
X98500Y15000D03*
X123900Y15000D03*
X149300Y15000D03*
X174700Y15000D03*
X200100Y15000D03*
D13*
X136600Y240000D03*
X76600Y382000D03*
X196600Y382000D03*
D14*
X76600Y260000D03*
X196600Y260000D03*
D15*
X111252Y9144D03*
X181804Y133410D03*
D16*
X117662Y133410D01*
X117602Y133350D01*
D15*
X117602Y133350D03*
X101092Y113284D03*
D16*
X143002Y113284D01*
D15*
X143002Y113284D03*
X179182Y111618D03*
X98500Y66854D03*
D17*
X126896Y95250D01*
X162814Y95250D02*
X179182Y111618D01*
X162814Y95250D02*
X126896Y95250D01*
D15*
X189484Y177800D03*
D17*
X189484Y121920D01*
X179182Y111618D01*
D15*
X200100Y104700D03*
D16*
X200100Y162254D01*
X200152Y162306D01*
D15*
X200152Y162306D03*
D16*
X130048Y59652D02*
X174700Y15000D01*
X130048Y59652D02*
X130048Y74422D01*
D15*
X130048Y74422D03*
M02*
