G04 EAGLE Gerber RS-274X export*
G75*
%MOMM*%
%FSLAX34Y34*%
%LPD*%
%AMOC8*
5,1,8,0,0,1.08239X$1,22.5*%
G01*
%ADD10C,0.177800*%
%ADD11C,0.101600*%
%ADD12C,0.127000*%
%ADD13C,0.400000*%
%ADD14C,0.254000*%
%ADD15C,0.152400*%
%ADD16C,0.304800*%
%ADD17C,1.016000*%
%ADD18C,0.203200*%
%ADD19R,0.490200X1.519900*%

G36*
X29808Y374819D02*
X29808Y374819D01*
X29809Y374820D01*
X29809Y374819D01*
X30337Y374855D01*
X30863Y374917D01*
X31385Y375005D01*
X31385Y375006D01*
X31385Y375005D01*
X31902Y375121D01*
X32412Y375263D01*
X32412Y375264D01*
X32412Y375263D01*
X32914Y375432D01*
X32914Y375433D01*
X33406Y375628D01*
X33406Y375629D01*
X33887Y375851D01*
X34355Y376098D01*
X34355Y376099D01*
X34808Y376372D01*
X34809Y376372D01*
X35247Y376670D01*
X35667Y376991D01*
X35667Y376992D01*
X35668Y376992D01*
X36070Y377335D01*
X36070Y377336D01*
X36071Y377336D01*
X36453Y377701D01*
X36815Y378087D01*
X36815Y378088D01*
X36816Y378088D01*
X37156Y378493D01*
X37156Y378494D01*
X37474Y378916D01*
X37474Y378917D01*
X37475Y378917D01*
X37769Y379357D01*
X38040Y379812D01*
X38041Y379812D01*
X38287Y380280D01*
X38513Y380759D01*
X38514Y380759D01*
X38719Y381246D01*
X38719Y381247D01*
X38898Y381744D01*
X38898Y381745D01*
X38899Y381745D01*
X39049Y382252D01*
X39048Y382253D01*
X39049Y382253D01*
X39163Y382723D01*
X39174Y382767D01*
X39173Y382767D01*
X39174Y382767D01*
X39280Y383286D01*
X39279Y383286D01*
X39280Y383286D01*
X39348Y383786D01*
X39347Y383786D01*
X39348Y383787D01*
X39381Y384291D01*
X39381Y384292D01*
X39393Y384797D01*
X39392Y384797D01*
X39393Y384797D01*
X39388Y385302D01*
X39369Y385807D01*
X39335Y386311D01*
X39286Y386814D01*
X39216Y387315D01*
X39117Y387810D01*
X39116Y387811D01*
X38980Y388307D01*
X38979Y388307D01*
X38980Y388307D01*
X38819Y388795D01*
X38819Y388796D01*
X38635Y389276D01*
X38634Y389276D01*
X38635Y389276D01*
X38427Y389747D01*
X38426Y389747D01*
X38195Y390206D01*
X38195Y390207D01*
X37942Y390654D01*
X37941Y390654D01*
X37941Y390655D01*
X37666Y391088D01*
X37665Y391089D01*
X37368Y391509D01*
X37051Y391913D01*
X37050Y391913D01*
X36712Y392301D01*
X36712Y392302D01*
X36355Y392672D01*
X35979Y393023D01*
X35979Y393024D01*
X35587Y393356D01*
X35586Y393356D01*
X35177Y393668D01*
X34753Y393958D01*
X34752Y393958D01*
X34752Y393959D01*
X34314Y394227D01*
X34313Y394227D01*
X33861Y394472D01*
X33860Y394472D01*
X33397Y394694D01*
X33396Y394694D01*
X32921Y394891D01*
X32921Y394892D01*
X32437Y395064D01*
X32436Y395064D01*
X31943Y395211D01*
X31942Y395211D01*
X31443Y395332D01*
X30937Y395427D01*
X30936Y395427D01*
X30438Y395487D01*
X30437Y395488D01*
X29936Y395517D01*
X29543Y395523D01*
X29541Y395523D01*
X29434Y395524D01*
X29369Y395523D01*
X29368Y395523D01*
X28932Y395512D01*
X28431Y395482D01*
X28430Y395482D01*
X27931Y395435D01*
X27930Y395435D01*
X27433Y395369D01*
X27433Y395368D01*
X27432Y395368D01*
X26939Y395279D01*
X26938Y395278D01*
X26938Y395279D01*
X26451Y395158D01*
X26450Y395157D01*
X25954Y394997D01*
X25953Y394997D01*
X25466Y394811D01*
X24988Y394601D01*
X24522Y394367D01*
X24522Y394366D01*
X24069Y394109D01*
X24068Y394109D01*
X23629Y393828D01*
X23628Y393828D01*
X23204Y393525D01*
X23204Y393524D01*
X22797Y393199D01*
X22797Y393198D01*
X22796Y393198D01*
X22407Y392852D01*
X22407Y392851D01*
X22406Y392851D01*
X22038Y392483D01*
X22038Y392482D01*
X22037Y392482D01*
X21691Y392093D01*
X21690Y392093D01*
X21360Y391677D01*
X21053Y391245D01*
X21053Y391244D01*
X21052Y391244D01*
X20768Y390797D01*
X20768Y390796D01*
X20507Y390334D01*
X20270Y389859D01*
X20057Y389373D01*
X20057Y389372D01*
X19868Y388877D01*
X19868Y388876D01*
X19704Y388372D01*
X19564Y387860D01*
X19449Y387342D01*
X19449Y387341D01*
X19359Y386818D01*
X19294Y386291D01*
X19254Y385762D01*
X19239Y385231D01*
X19249Y384701D01*
X19250Y384701D01*
X19249Y384701D01*
X19285Y384172D01*
X19285Y384171D01*
X19345Y383644D01*
X19346Y383644D01*
X19346Y383643D01*
X19432Y383120D01*
X19517Y382723D01*
X19544Y382602D01*
X19544Y382601D01*
X19681Y382088D01*
X19682Y382088D01*
X19681Y382088D01*
X19844Y381583D01*
X20032Y381087D01*
X20032Y381086D01*
X20245Y380601D01*
X20245Y380600D01*
X20449Y380178D01*
X20666Y379762D01*
X20667Y379762D01*
X20667Y379761D01*
X20904Y379357D01*
X20905Y379357D01*
X20904Y379357D01*
X21167Y378968D01*
X21167Y378967D01*
X21453Y378596D01*
X21454Y378596D01*
X21454Y378595D01*
X21759Y378240D01*
X21759Y378239D01*
X22076Y377894D01*
X22077Y377894D01*
X22430Y377539D01*
X22430Y377538D01*
X22801Y377202D01*
X22801Y377201D01*
X23190Y376884D01*
X23594Y376587D01*
X24013Y376312D01*
X24013Y376311D01*
X24446Y376058D01*
X24891Y375827D01*
X25347Y375618D01*
X25813Y375433D01*
X26288Y375272D01*
X26770Y375134D01*
X27259Y375021D01*
X27752Y374932D01*
X27753Y374932D01*
X28249Y374868D01*
X28250Y374868D01*
X28750Y374828D01*
X28750Y374827D01*
X29279Y374811D01*
X29808Y374819D01*
G37*
G36*
X39109Y345983D02*
X39109Y345983D01*
X39108Y345983D01*
X39109Y345984D01*
X39109Y362210D01*
X39098Y362222D01*
X39098Y362221D01*
X39097Y362222D01*
X35363Y362222D01*
X35351Y362212D01*
X35351Y362211D01*
X35351Y362210D01*
X35348Y361724D01*
X35343Y360752D01*
X35341Y360265D01*
X35338Y359779D01*
X35336Y359294D01*
X35333Y358808D01*
X35331Y358321D01*
X35328Y357835D01*
X35325Y357349D01*
X35323Y356863D01*
X35321Y356377D01*
X35318Y355891D01*
X35315Y355405D01*
X35313Y354919D01*
X35311Y354433D01*
X35308Y353946D01*
X35305Y353460D01*
X35303Y352974D01*
X35300Y352488D01*
X35298Y352002D01*
X35296Y351542D01*
X34926Y351859D01*
X34149Y352528D01*
X33760Y352862D01*
X33372Y353196D01*
X32983Y353530D01*
X32594Y353865D01*
X32205Y354198D01*
X31816Y354533D01*
X31427Y354867D01*
X31039Y355201D01*
X30650Y355535D01*
X30261Y355870D01*
X29873Y356203D01*
X29484Y356538D01*
X29095Y356872D01*
X28707Y357206D01*
X28318Y357540D01*
X27929Y357875D01*
X27541Y358209D01*
X27152Y358543D01*
X26763Y358877D01*
X26374Y359211D01*
X25985Y359546D01*
X25596Y359880D01*
X25208Y360214D01*
X24819Y360548D01*
X24430Y360882D01*
X24041Y361216D01*
X23653Y361551D01*
X23264Y361885D01*
X22875Y362219D01*
X22870Y362219D01*
X22868Y362222D01*
X19562Y362222D01*
X19550Y362212D01*
X19550Y362211D01*
X19550Y362210D01*
X19550Y346304D01*
X19560Y346292D01*
X19561Y346293D01*
X19562Y346292D01*
X23298Y346292D01*
X23310Y346303D01*
X23309Y346303D01*
X23310Y346304D01*
X23310Y352000D01*
X23311Y352517D01*
X23312Y353035D01*
X23314Y353553D01*
X23317Y354071D01*
X23320Y354589D01*
X23325Y355107D01*
X23331Y355625D01*
X23339Y356142D01*
X23361Y356635D01*
X23739Y356323D01*
X24132Y355992D01*
X24524Y355659D01*
X24916Y355326D01*
X25307Y354993D01*
X25698Y354659D01*
X26089Y354325D01*
X26480Y353990D01*
X26870Y353656D01*
X27261Y353322D01*
X27651Y352987D01*
X28042Y352653D01*
X28432Y352318D01*
X28822Y351983D01*
X29212Y351648D01*
X29602Y351312D01*
X30379Y350646D01*
X30379Y350645D01*
X30766Y350312D01*
X31154Y349978D01*
X31543Y349644D01*
X31931Y349311D01*
X32319Y348978D01*
X32707Y348644D01*
X33095Y348310D01*
X33483Y347976D01*
X33871Y347643D01*
X34259Y347310D01*
X34647Y346976D01*
X35035Y346642D01*
X35423Y346308D01*
X35811Y345975D01*
X35816Y345975D01*
X35819Y345972D01*
X39097Y345972D01*
X39109Y345983D01*
G37*
G36*
X29642Y406517D02*
X29642Y406517D01*
X30150Y406540D01*
X30657Y406577D01*
X31162Y406631D01*
X31665Y406706D01*
X31665Y406707D01*
X31665Y406706D01*
X32161Y406817D01*
X32162Y406817D01*
X32619Y406963D01*
X32619Y406964D01*
X32619Y406963D01*
X33068Y407134D01*
X33509Y407322D01*
X33510Y407322D01*
X33944Y407527D01*
X34371Y407747D01*
X34790Y407982D01*
X35198Y408235D01*
X35198Y408236D01*
X35199Y408235D01*
X35591Y408511D01*
X35591Y408512D01*
X35592Y408512D01*
X35996Y408838D01*
X35996Y408839D01*
X36380Y409188D01*
X36380Y409189D01*
X36743Y409560D01*
X36743Y409561D01*
X37086Y409951D01*
X37086Y409952D01*
X37407Y410360D01*
X37407Y410361D01*
X37706Y410785D01*
X37984Y411224D01*
X37984Y411225D01*
X38238Y411677D01*
X38238Y411678D01*
X38239Y411678D01*
X38471Y412142D01*
X38471Y412143D01*
X38679Y412619D01*
X38680Y412619D01*
X38864Y413104D01*
X38864Y413105D01*
X39023Y413599D01*
X39023Y413600D01*
X39156Y414102D01*
X39157Y414102D01*
X39263Y414610D01*
X39262Y414611D01*
X39263Y414611D01*
X39334Y415091D01*
X39333Y415091D01*
X39334Y415091D01*
X39380Y415574D01*
X39379Y415574D01*
X39380Y415574D01*
X39405Y416058D01*
X39405Y416059D01*
X39413Y416544D01*
X39404Y417029D01*
X39378Y417513D01*
X39378Y417514D01*
X39335Y417996D01*
X39335Y417997D01*
X39274Y418478D01*
X39273Y418478D01*
X39190Y418960D01*
X39189Y418960D01*
X39190Y418961D01*
X39082Y419437D01*
X39082Y419438D01*
X38952Y419909D01*
X38951Y419909D01*
X38951Y419910D01*
X38796Y420374D01*
X38616Y420829D01*
X38615Y420829D01*
X38411Y421273D01*
X38410Y421273D01*
X38410Y421274D01*
X38181Y421706D01*
X37930Y422126D01*
X37929Y422126D01*
X37930Y422126D01*
X37656Y422532D01*
X37363Y422924D01*
X37362Y422924D01*
X37051Y423301D01*
X37051Y423302D01*
X36723Y423664D01*
X36467Y423935D01*
X36212Y424206D01*
X35956Y424477D01*
X35941Y424478D01*
X35940Y424477D01*
X35939Y424477D01*
X35593Y424144D01*
X35245Y423810D01*
X34899Y423477D01*
X34551Y423143D01*
X34205Y422809D01*
X33858Y422476D01*
X33511Y422142D01*
X33164Y421809D01*
X33164Y421804D01*
X33161Y421801D01*
X33163Y421798D01*
X33163Y421793D01*
X33402Y421487D01*
X33719Y421077D01*
X34026Y420659D01*
X34319Y420233D01*
X34595Y419794D01*
X34845Y419341D01*
X35061Y418871D01*
X35233Y418383D01*
X35352Y417880D01*
X35418Y417367D01*
X35437Y416850D01*
X35419Y416333D01*
X35364Y415804D01*
X35262Y415281D01*
X35114Y414770D01*
X34916Y414277D01*
X34669Y413806D01*
X34375Y413363D01*
X34035Y412953D01*
X33656Y412580D01*
X33241Y412247D01*
X32797Y411954D01*
X32328Y411701D01*
X31851Y411484D01*
X31361Y411301D01*
X30856Y411161D01*
X30341Y411069D01*
X29819Y411020D01*
X29817Y411020D01*
X29816Y411020D01*
X29366Y411008D01*
X29365Y411008D01*
X29296Y411006D01*
X29237Y411008D01*
X29236Y411008D01*
X28854Y411020D01*
X28853Y411020D01*
X28784Y411022D01*
X28275Y411072D01*
X27771Y411160D01*
X27275Y411286D01*
X26792Y411455D01*
X26326Y411665D01*
X25880Y411916D01*
X25458Y412206D01*
X25063Y412530D01*
X24695Y412887D01*
X24360Y413274D01*
X24062Y413690D01*
X23805Y414134D01*
X23592Y414599D01*
X23426Y415083D01*
X23308Y415582D01*
X23239Y416089D01*
X23217Y416600D01*
X23242Y417112D01*
X23311Y417619D01*
X23422Y418120D01*
X23571Y418609D01*
X23756Y419087D01*
X23974Y419551D01*
X24222Y419999D01*
X24498Y420432D01*
X24798Y420847D01*
X25079Y421213D01*
X25360Y421580D01*
X25360Y421583D01*
X25361Y421583D01*
X25360Y421584D01*
X25359Y421595D01*
X25359Y421596D01*
X25104Y421851D01*
X25103Y421851D01*
X24725Y422199D01*
X24341Y422541D01*
X23956Y422880D01*
X23569Y423218D01*
X23250Y423495D01*
X22930Y423773D01*
X22611Y424050D01*
X22292Y424328D01*
X22287Y424328D01*
X22284Y424330D01*
X22281Y424328D01*
X22276Y424328D01*
X22276Y424327D01*
X21973Y424044D01*
X21973Y424043D01*
X21624Y423684D01*
X21624Y423683D01*
X21306Y423296D01*
X21306Y423295D01*
X21015Y422887D01*
X21015Y422886D01*
X20748Y422463D01*
X20748Y422462D01*
X20502Y422026D01*
X20278Y421578D01*
X20278Y421577D01*
X20074Y421120D01*
X20074Y421119D01*
X19890Y420653D01*
X19727Y420179D01*
X19728Y420179D01*
X19727Y420179D01*
X19587Y419698D01*
X19588Y419698D01*
X19587Y419698D01*
X19470Y419227D01*
X19470Y419226D01*
X19380Y418750D01*
X19380Y418749D01*
X19330Y418267D01*
X19307Y417782D01*
X19308Y417782D01*
X19307Y417782D01*
X19298Y417297D01*
X19295Y416813D01*
X19297Y416287D01*
X19297Y416286D01*
X19311Y415761D01*
X19343Y415236D01*
X19344Y415236D01*
X19343Y415236D01*
X19399Y414713D01*
X19400Y414713D01*
X19399Y414712D01*
X19488Y414194D01*
X19613Y413683D01*
X19613Y413682D01*
X19775Y413182D01*
X19967Y412692D01*
X20182Y412212D01*
X20383Y411796D01*
X20384Y411796D01*
X20600Y411389D01*
X20601Y411389D01*
X20601Y411388D01*
X20838Y410992D01*
X20839Y410992D01*
X21100Y410612D01*
X21100Y410611D01*
X21384Y410247D01*
X21385Y410247D01*
X21687Y409898D01*
X21688Y409898D01*
X22002Y409560D01*
X22354Y409210D01*
X22723Y408877D01*
X23108Y408564D01*
X23508Y408270D01*
X23508Y408269D01*
X23921Y407996D01*
X23922Y407996D01*
X23922Y407995D01*
X24349Y407743D01*
X24349Y407742D01*
X24788Y407510D01*
X25237Y407300D01*
X25238Y407301D01*
X25238Y407300D01*
X25697Y407113D01*
X25698Y407113D01*
X26166Y406948D01*
X26166Y406949D01*
X26167Y406948D01*
X26642Y406808D01*
X27125Y406692D01*
X27613Y406600D01*
X28118Y406542D01*
X28119Y406542D01*
X28626Y406515D01*
X29134Y406508D01*
X29642Y406517D01*
G37*
G36*
X29831Y427074D02*
X29831Y427074D01*
X29832Y427074D01*
X30317Y427100D01*
X30318Y427100D01*
X30802Y427143D01*
X31285Y427205D01*
X31285Y427206D01*
X31285Y427205D01*
X31763Y427298D01*
X31763Y427299D01*
X31764Y427298D01*
X32269Y427434D01*
X32269Y427435D01*
X32270Y427435D01*
X32768Y427595D01*
X32768Y427596D01*
X32769Y427595D01*
X33259Y427780D01*
X33739Y427990D01*
X34208Y428224D01*
X34209Y428224D01*
X34664Y428482D01*
X34665Y428482D01*
X35106Y428763D01*
X35107Y428763D01*
X35533Y429067D01*
X35533Y429068D01*
X35534Y429068D01*
X35943Y429395D01*
X36334Y429743D01*
X36334Y429744D01*
X36335Y429744D01*
X36706Y430113D01*
X37058Y430501D01*
X37058Y430502D01*
X37388Y430909D01*
X37387Y430909D01*
X37388Y430909D01*
X37695Y431333D01*
X37695Y431334D01*
X37696Y431334D01*
X37979Y431774D01*
X38239Y432229D01*
X38239Y432230D01*
X38474Y432698D01*
X38684Y433178D01*
X38685Y433179D01*
X38869Y433669D01*
X39028Y434168D01*
X39028Y434169D01*
X39162Y434675D01*
X39271Y435187D01*
X39270Y435188D01*
X39271Y435188D01*
X39353Y435705D01*
X39353Y435706D01*
X39354Y435706D01*
X39402Y436205D01*
X39402Y436206D01*
X39421Y436707D01*
X39419Y437209D01*
X39418Y437209D01*
X39419Y437209D01*
X39399Y437711D01*
X39364Y438211D01*
X39364Y438212D01*
X39313Y438710D01*
X39312Y438711D01*
X39245Y439208D01*
X39160Y439702D01*
X39160Y439703D01*
X39053Y440193D01*
X39052Y440194D01*
X39053Y440194D01*
X38898Y440703D01*
X38897Y440704D01*
X38701Y441200D01*
X38701Y441201D01*
X38475Y441683D01*
X38475Y441684D01*
X38226Y442154D01*
X38225Y442154D01*
X38225Y442155D01*
X37956Y442614D01*
X37955Y442615D01*
X37667Y443063D01*
X37360Y443499D01*
X37360Y443500D01*
X37034Y443921D01*
X36686Y444326D01*
X36314Y444707D01*
X36313Y444707D01*
X35949Y445053D01*
X35934Y445053D01*
X35934Y445052D01*
X35933Y445052D01*
X35590Y444709D01*
X35248Y444366D01*
X34906Y444023D01*
X34564Y443680D01*
X34222Y443337D01*
X33879Y442995D01*
X33537Y442652D01*
X33195Y442309D01*
X33194Y442293D01*
X33494Y441925D01*
X33794Y441558D01*
X34105Y441157D01*
X34391Y440739D01*
X34649Y440303D01*
X34877Y439851D01*
X35071Y439382D01*
X35226Y438900D01*
X35340Y438407D01*
X35411Y437905D01*
X35440Y437400D01*
X35426Y436894D01*
X35373Y436390D01*
X35270Y435869D01*
X35117Y435360D01*
X34914Y434868D01*
X34663Y434400D01*
X34367Y433959D01*
X34029Y433548D01*
X33653Y433172D01*
X33245Y432832D01*
X32807Y432530D01*
X32344Y432267D01*
X31862Y432044D01*
X31362Y431861D01*
X30901Y431738D01*
X30432Y431653D01*
X29957Y431598D01*
X29480Y431570D01*
X29002Y431569D01*
X28526Y431596D01*
X28051Y431654D01*
X27584Y431751D01*
X27103Y431899D01*
X26634Y432084D01*
X26183Y432306D01*
X25751Y432566D01*
X25343Y432861D01*
X24963Y433190D01*
X24612Y433552D01*
X24296Y433943D01*
X24016Y434362D01*
X23775Y434804D01*
X23577Y435266D01*
X23421Y435746D01*
X23309Y436236D01*
X23242Y436735D01*
X23219Y437238D01*
X23240Y437741D01*
X23306Y438253D01*
X23416Y438757D01*
X23571Y439250D01*
X23768Y439727D01*
X24000Y440189D01*
X24260Y440634D01*
X24545Y441066D01*
X24848Y441485D01*
X25100Y441828D01*
X25101Y441828D01*
X25336Y442183D01*
X25336Y442185D01*
X25336Y442186D01*
X25334Y442195D01*
X25334Y442198D01*
X24973Y442553D01*
X24972Y442554D01*
X24593Y442892D01*
X24592Y442892D01*
X24210Y443227D01*
X24209Y443227D01*
X23824Y443559D01*
X23437Y443889D01*
X23048Y444216D01*
X23047Y444216D01*
X22655Y444539D01*
X22655Y444540D01*
X22249Y444844D01*
X22237Y444843D01*
X22234Y444843D01*
X21911Y444562D01*
X21911Y444561D01*
X21910Y444561D01*
X21625Y444237D01*
X21625Y444236D01*
X21353Y443902D01*
X21352Y443902D01*
X21090Y443559D01*
X21090Y443558D01*
X20841Y443206D01*
X20840Y443206D01*
X20562Y442758D01*
X20562Y442757D01*
X20317Y442291D01*
X20102Y441810D01*
X20101Y441809D01*
X19913Y441317D01*
X19913Y441316D01*
X19751Y440815D01*
X19612Y440306D01*
X19613Y440306D01*
X19612Y440306D01*
X19497Y439792D01*
X19497Y439791D01*
X19403Y439273D01*
X19331Y438750D01*
X19280Y438226D01*
X19281Y438225D01*
X19280Y438225D01*
X19250Y437699D01*
X19241Y437172D01*
X19242Y437172D01*
X19241Y437172D01*
X19255Y436645D01*
X19255Y436644D01*
X19290Y436119D01*
X19290Y436118D01*
X19349Y435594D01*
X19432Y435074D01*
X19433Y435074D01*
X19433Y435073D01*
X19542Y434559D01*
X19543Y434558D01*
X19681Y434049D01*
X19681Y434048D01*
X19844Y433559D01*
X20032Y433078D01*
X20033Y433078D01*
X20032Y433077D01*
X20246Y432608D01*
X20247Y432608D01*
X20484Y432150D01*
X20485Y432150D01*
X20485Y432149D01*
X20747Y431705D01*
X20748Y431705D01*
X20748Y431704D01*
X21033Y431275D01*
X21034Y431275D01*
X21343Y430861D01*
X21673Y430464D01*
X21674Y430464D01*
X22024Y430086D01*
X22025Y430086D01*
X22025Y430085D01*
X22395Y429726D01*
X22395Y429725D01*
X22783Y429386D01*
X22784Y429386D01*
X23190Y429067D01*
X23190Y429066D01*
X23612Y428769D01*
X24048Y428493D01*
X24049Y428493D01*
X24498Y428239D01*
X24499Y428240D01*
X24499Y428239D01*
X24960Y428008D01*
X25432Y427799D01*
X25433Y427800D01*
X25433Y427799D01*
X25914Y427614D01*
X25915Y427614D01*
X26405Y427452D01*
X26902Y427313D01*
X26903Y427313D01*
X27405Y427196D01*
X27406Y427197D01*
X27406Y427196D01*
X27887Y427123D01*
X27888Y427123D01*
X28372Y427083D01*
X28858Y427064D01*
X28859Y427065D01*
X28859Y427064D01*
X29345Y427062D01*
X29346Y427062D01*
X29831Y427074D01*
G37*
%LPC*%
G36*
X29011Y379335D02*
X29011Y379335D01*
X29010Y379335D01*
X28903Y379338D01*
X28385Y379388D01*
X27871Y379478D01*
X27367Y379609D01*
X26875Y379781D01*
X26399Y379993D01*
X25944Y380246D01*
X25512Y380538D01*
X25109Y380867D01*
X24737Y381232D01*
X24400Y381629D01*
X24101Y382055D01*
X23843Y382507D01*
X23743Y382731D01*
X23629Y382982D01*
X23459Y383475D01*
X23335Y383981D01*
X23258Y384496D01*
X23226Y385016D01*
X23239Y385537D01*
X23293Y386040D01*
X23389Y386537D01*
X23526Y387024D01*
X23705Y387497D01*
X23926Y387952D01*
X24187Y388385D01*
X24486Y388794D01*
X24820Y389173D01*
X25186Y389521D01*
X25583Y389836D01*
X26005Y390115D01*
X26449Y390357D01*
X26912Y390561D01*
X27391Y390728D01*
X27880Y390856D01*
X28378Y390946D01*
X28881Y391001D01*
X29387Y391019D01*
X29900Y391004D01*
X30411Y390951D01*
X30914Y390853D01*
X31407Y390709D01*
X31886Y390524D01*
X32351Y390306D01*
X32814Y390048D01*
X33249Y389746D01*
X33654Y389405D01*
X34024Y389025D01*
X34355Y388611D01*
X34644Y388167D01*
X34890Y387698D01*
X35090Y387207D01*
X35244Y386700D01*
X35352Y386193D01*
X35419Y385680D01*
X35442Y385163D01*
X35419Y384645D01*
X35351Y384132D01*
X35237Y383627D01*
X35078Y383135D01*
X34905Y382730D01*
X34874Y382659D01*
X34627Y382203D01*
X34341Y381773D01*
X34016Y381369D01*
X33657Y380996D01*
X33266Y380657D01*
X32847Y380353D01*
X32403Y380086D01*
X31938Y379859D01*
X31455Y379672D01*
X30958Y379524D01*
X30452Y379418D01*
X29939Y379352D01*
X29421Y379326D01*
X29011Y379335D01*
G37*
%LPD*%
G36*
X39109Y366478D02*
X39109Y366478D01*
X39108Y366479D01*
X39109Y366480D01*
X39109Y370750D01*
X39098Y370762D01*
X39098Y370761D01*
X39097Y370762D01*
X19562Y370762D01*
X19550Y370751D01*
X19550Y370750D01*
X19550Y366480D01*
X19560Y366468D01*
X19561Y366469D01*
X19562Y366468D01*
X39097Y366468D01*
X39109Y366478D01*
G37*
G36*
X39109Y398717D02*
X39109Y398717D01*
X39108Y398717D01*
X39109Y398718D01*
X39109Y403202D01*
X39098Y403214D01*
X39098Y403213D01*
X39097Y403214D01*
X34614Y403214D01*
X34602Y403203D01*
X34602Y403202D01*
X34602Y398718D01*
X34612Y398706D01*
X34613Y398707D01*
X34614Y398706D01*
X39097Y398706D01*
X39109Y398717D01*
G37*
D10*
X95793Y551819D02*
X95793Y538346D01*
X86811Y551819D01*
X86811Y538346D01*
X75023Y538346D02*
X72778Y540591D01*
X75023Y538346D02*
X79515Y538346D01*
X81760Y540591D01*
X81760Y549573D01*
X79515Y551819D01*
X75023Y551819D01*
X72778Y549573D01*
X145739Y540299D02*
X147984Y538054D01*
X152475Y538054D01*
X154721Y540299D01*
X154721Y549281D01*
X152475Y551527D01*
X147984Y551527D01*
X145739Y549281D01*
X138443Y538054D02*
X133951Y538054D01*
X138443Y538054D02*
X140688Y540299D01*
X140688Y549281D01*
X138443Y551527D01*
X133951Y551527D01*
X131706Y549281D01*
X131706Y540299D01*
X133951Y538054D01*
X126655Y538054D02*
X126655Y551527D01*
X122164Y542545D02*
X126655Y538054D01*
X122164Y542545D02*
X117673Y538054D01*
X117673Y551527D01*
X192180Y538270D02*
X196671Y538270D01*
X198917Y540515D01*
X198917Y549497D01*
X196671Y551743D01*
X192180Y551743D01*
X189935Y549497D01*
X189935Y540515D01*
X192180Y538270D01*
X184884Y538270D02*
X184884Y551743D01*
X175902Y551743D02*
X184884Y538270D01*
X175902Y538270D02*
X175902Y551743D01*
D11*
X94340Y32287D02*
X95866Y30762D01*
X94340Y32287D02*
X94340Y35338D01*
X95866Y36863D01*
X97391Y36863D01*
X98916Y35338D01*
X98916Y33813D01*
X98916Y35338D02*
X100441Y36863D01*
X101967Y36863D01*
X103492Y35338D01*
X103492Y32287D01*
X101967Y30762D01*
X100441Y40117D02*
X94340Y40117D01*
X100441Y40117D02*
X103492Y43168D01*
X100441Y46218D01*
X94340Y46218D01*
X95866Y49472D02*
X94340Y50998D01*
X94340Y54048D01*
X95866Y55574D01*
X97391Y55574D01*
X98916Y54048D01*
X98916Y52523D01*
X98916Y54048D02*
X100441Y55574D01*
X101967Y55574D01*
X103492Y54048D01*
X103492Y50998D01*
X101967Y49472D01*
X119086Y35338D02*
X120612Y36863D01*
X119086Y35338D02*
X119086Y32287D01*
X120612Y30762D01*
X122137Y30762D01*
X123662Y32287D01*
X123662Y35338D01*
X125187Y36863D01*
X126713Y36863D01*
X128238Y35338D01*
X128238Y32287D01*
X126713Y30762D01*
X128238Y40117D02*
X119086Y40117D01*
X128238Y40117D02*
X128238Y44693D01*
X126713Y46218D01*
X120612Y46218D01*
X119086Y44693D01*
X119086Y40117D01*
X122137Y49472D02*
X128238Y49472D01*
X122137Y49472D02*
X119086Y52523D01*
X122137Y55574D01*
X128238Y55574D01*
X123662Y55574D02*
X123662Y49472D01*
X144340Y35338D02*
X145866Y36863D01*
X144340Y35338D02*
X144340Y32287D01*
X145866Y30762D01*
X147391Y30762D01*
X148916Y32287D01*
X148916Y35338D01*
X150441Y36863D01*
X151967Y36863D01*
X153492Y35338D01*
X153492Y32287D01*
X151967Y30762D01*
X144340Y44693D02*
X145866Y46218D01*
X144340Y44693D02*
X144340Y41642D01*
X145866Y40117D01*
X151967Y40117D01*
X153492Y41642D01*
X153492Y44693D01*
X151967Y46218D01*
X153492Y49472D02*
X144340Y49472D01*
X153492Y49472D02*
X153492Y55574D01*
X169340Y30762D02*
X178492Y30762D01*
X172391Y33813D02*
X169340Y30762D01*
X172391Y33813D02*
X169340Y36863D01*
X178492Y36863D01*
X178492Y40117D02*
X178492Y43168D01*
X178492Y41642D02*
X169340Y41642D01*
X169340Y40117D02*
X169340Y43168D01*
X169340Y50930D02*
X170866Y52455D01*
X169340Y50930D02*
X169340Y47879D01*
X170866Y46354D01*
X172391Y46354D01*
X173916Y47879D01*
X173916Y50930D01*
X175441Y52455D01*
X176967Y52455D01*
X178492Y50930D01*
X178492Y47879D01*
X176967Y46354D01*
X169340Y57234D02*
X169340Y60285D01*
X169340Y57234D02*
X170866Y55709D01*
X176967Y55709D01*
X178492Y57234D01*
X178492Y60285D01*
X176967Y61810D01*
X170866Y61810D01*
X169340Y60285D01*
X195340Y30762D02*
X204492Y30762D01*
X195340Y30762D02*
X195340Y35338D01*
X196866Y36863D01*
X199916Y36863D01*
X201441Y35338D01*
X201441Y30762D01*
X201441Y33813D02*
X204492Y36863D01*
X195340Y44693D02*
X196866Y46218D01*
X195340Y44693D02*
X195340Y41642D01*
X196866Y40117D01*
X198391Y40117D01*
X199916Y41642D01*
X199916Y44693D01*
X201441Y46218D01*
X202967Y46218D01*
X204492Y44693D01*
X204492Y41642D01*
X202967Y40117D01*
X204492Y52523D02*
X195340Y52523D01*
X195340Y49472D02*
X195340Y55574D01*
X68866Y36863D02*
X67340Y35338D01*
X67340Y32287D01*
X68866Y30762D01*
X74967Y30762D01*
X76492Y32287D01*
X76492Y35338D01*
X74967Y36863D01*
X71916Y36863D01*
X71916Y33813D01*
X76492Y40117D02*
X67340Y40117D01*
X76492Y46218D01*
X67340Y46218D01*
X67340Y49472D02*
X76492Y49472D01*
X76492Y54048D01*
X74967Y55574D01*
X68866Y55574D01*
X67340Y54048D01*
X67340Y49472D01*
X203702Y110998D02*
X209803Y110998D01*
X203702Y110998D02*
X202176Y112523D01*
X202176Y115574D01*
X203702Y117099D01*
X209803Y117099D01*
X211328Y115574D01*
X211328Y112523D01*
X209803Y110998D01*
X208277Y114049D02*
X211328Y117099D01*
X209803Y120353D02*
X205227Y120353D01*
X209803Y120353D02*
X211328Y121878D01*
X209803Y123404D01*
X211328Y124929D01*
X209803Y126454D01*
X205227Y126454D01*
X205227Y129708D02*
X205227Y131234D01*
X211328Y131234D01*
X211328Y132759D02*
X211328Y129708D01*
X202176Y131234D02*
X200651Y131234D01*
X205227Y135945D02*
X205227Y137470D01*
X211328Y137470D01*
X211328Y135945D02*
X211328Y138996D01*
X202176Y137470D02*
X200651Y137470D01*
X205227Y143707D02*
X205227Y148283D01*
X205227Y143707D02*
X206752Y142182D01*
X209803Y142182D01*
X211328Y143707D01*
X211328Y148283D01*
X68079Y146050D02*
X61977Y146050D01*
X68079Y146050D02*
X69604Y144525D01*
X69604Y141474D01*
X68079Y139949D01*
X61977Y139949D01*
X60452Y141474D01*
X60452Y144525D01*
X61977Y146050D01*
X63503Y142999D02*
X60452Y139949D01*
X61977Y136695D02*
X66553Y136695D01*
X61977Y136695D02*
X60452Y135170D01*
X61977Y133644D01*
X60452Y132119D01*
X61977Y130594D01*
X66553Y130594D01*
X66553Y127340D02*
X66553Y125814D01*
X60452Y125814D01*
X60452Y124289D02*
X60452Y127340D01*
X69604Y125814D02*
X71129Y125814D01*
X66553Y121103D02*
X66553Y119578D01*
X60452Y119578D01*
X60452Y121103D02*
X60452Y118052D01*
X69604Y119578D02*
X71129Y119578D01*
X66553Y113341D02*
X66553Y108765D01*
X66553Y113341D02*
X65028Y114866D01*
X61977Y114866D01*
X60452Y113341D01*
X60452Y108765D01*
X17530Y181110D02*
X14479Y181110D01*
X12954Y179585D01*
X12954Y173483D01*
X14479Y171958D01*
X17530Y171958D01*
X19055Y173483D01*
X19055Y179585D01*
X17530Y181110D01*
X22309Y181110D02*
X22309Y171958D01*
X28410Y171958D02*
X22309Y181110D01*
X28410Y181110D02*
X28410Y171958D01*
X240538Y203201D02*
X242063Y201676D01*
X243589Y201676D01*
X245114Y203201D01*
X245114Y210828D01*
X243589Y210828D02*
X246639Y210828D01*
X249893Y210828D02*
X249893Y201676D01*
X249893Y210828D02*
X254469Y210828D01*
X255994Y209303D01*
X255994Y206252D01*
X254469Y204727D01*
X249893Y204727D01*
X259248Y207777D02*
X262299Y210828D01*
X262299Y201676D01*
X259248Y201676D02*
X265350Y201676D01*
D10*
X232269Y280035D02*
X232269Y290712D01*
X234939Y290712D01*
X245616Y280035D01*
X248285Y280035D01*
X248285Y290712D01*
X237608Y296407D02*
X237608Y299076D01*
X248285Y299076D01*
X248285Y296407D02*
X248285Y301745D01*
X232269Y299076D02*
X229600Y299076D01*
X248285Y309990D02*
X248285Y315329D01*
X245616Y317998D01*
X240277Y317998D01*
X237608Y315329D01*
X237608Y309990D01*
X240277Y307321D01*
X245616Y307321D01*
X248285Y309990D01*
X245616Y340064D02*
X234939Y340064D01*
X232269Y342733D01*
X232269Y348072D01*
X234939Y350741D01*
X245616Y350741D01*
X248285Y348072D01*
X248285Y342733D01*
X245616Y340064D01*
X242946Y345403D02*
X248285Y350741D01*
X245616Y356436D02*
X237608Y356436D01*
X245616Y356436D02*
X248285Y359105D01*
X245616Y361774D01*
X248285Y364443D01*
X245616Y367113D01*
X237608Y367113D01*
X237608Y372807D02*
X237608Y375476D01*
X248285Y375476D01*
X248285Y372807D02*
X248285Y378146D01*
X232269Y375476D02*
X229600Y375476D01*
X237608Y383722D02*
X237608Y386391D01*
X248285Y386391D01*
X248285Y383722D02*
X248285Y389060D01*
X232269Y386391D02*
X229600Y386391D01*
X237608Y397305D02*
X237608Y405313D01*
X237608Y397305D02*
X240277Y394636D01*
X245616Y394636D01*
X248285Y397305D01*
X248285Y405313D01*
X248285Y427379D02*
X232269Y427379D01*
X232269Y435387D01*
X234939Y438056D01*
X240277Y438056D01*
X242946Y435387D01*
X242946Y427379D01*
X242946Y432718D02*
X248285Y438056D01*
X248285Y446420D02*
X248285Y451758D01*
X248285Y446420D02*
X245616Y443751D01*
X240277Y443751D01*
X237608Y446420D01*
X237608Y451758D01*
X240277Y454428D01*
X242946Y454428D01*
X242946Y443751D01*
X232269Y460122D02*
X232269Y462791D01*
X248285Y462791D01*
X248285Y460122D02*
X248285Y465461D01*
X237608Y473706D02*
X237608Y479044D01*
X240277Y481714D01*
X248285Y481714D01*
X248285Y473706D01*
X245616Y471037D01*
X242946Y473706D01*
X242946Y481714D01*
X245616Y487408D02*
X237608Y487408D01*
X245616Y487408D02*
X248285Y490077D01*
X248285Y498085D01*
X250954Y498085D02*
X237608Y498085D01*
X250954Y498085D02*
X253624Y495416D01*
X253624Y492747D01*
D12*
X172832Y101538D02*
X172832Y73598D01*
X172832Y101538D02*
X185532Y101538D01*
X185532Y73598D01*
X172832Y73598D01*
X29130Y185464D02*
X13130Y185464D01*
X13130Y193464D01*
X29130Y193464D01*
X29130Y185464D01*
X22400Y185654D02*
X22400Y193274D01*
X21130Y191369D01*
X19860Y189464D01*
X21130Y187559D01*
X22400Y185654D01*
X21765Y186924D02*
X21765Y192004D01*
X21130Y191369D02*
X21130Y187559D01*
X144692Y198962D02*
X144692Y211462D01*
X144692Y198962D02*
X127692Y198962D01*
X127692Y211462D01*
X144692Y211462D01*
X134792Y209022D02*
X134792Y201402D01*
X138732Y205212D02*
X134922Y209022D01*
X138732Y205212D02*
X134922Y201402D01*
X60400Y432000D02*
X60400Y532000D01*
X212800Y532000D01*
X212800Y432000D01*
X60400Y432000D01*
X85800Y518100D02*
X79450Y530800D01*
X92150Y530800D02*
X85800Y518100D01*
X92150Y530800D02*
X79450Y530800D01*
D13*
X53586Y153500D02*
X53588Y153575D01*
X53594Y153649D01*
X53604Y153723D01*
X53617Y153796D01*
X53635Y153869D01*
X53656Y153940D01*
X53681Y154011D01*
X53710Y154080D01*
X53743Y154147D01*
X53779Y154212D01*
X53818Y154276D01*
X53860Y154337D01*
X53906Y154396D01*
X53955Y154453D01*
X54007Y154506D01*
X54061Y154557D01*
X54118Y154606D01*
X54178Y154650D01*
X54240Y154692D01*
X54304Y154731D01*
X54370Y154766D01*
X54437Y154797D01*
X54507Y154825D01*
X54577Y154849D01*
X54649Y154870D01*
X54722Y154886D01*
X54795Y154899D01*
X54870Y154908D01*
X54944Y154913D01*
X55019Y154914D01*
X55093Y154911D01*
X55168Y154904D01*
X55241Y154893D01*
X55315Y154879D01*
X55387Y154860D01*
X55458Y154838D01*
X55528Y154812D01*
X55597Y154782D01*
X55663Y154749D01*
X55728Y154712D01*
X55791Y154672D01*
X55852Y154628D01*
X55910Y154582D01*
X55966Y154532D01*
X56019Y154480D01*
X56070Y154425D01*
X56117Y154367D01*
X56161Y154307D01*
X56202Y154244D01*
X56240Y154180D01*
X56274Y154114D01*
X56305Y154045D01*
X56332Y153976D01*
X56355Y153905D01*
X56374Y153833D01*
X56390Y153760D01*
X56402Y153686D01*
X56410Y153612D01*
X56414Y153537D01*
X56414Y153463D01*
X56410Y153388D01*
X56402Y153314D01*
X56390Y153240D01*
X56374Y153167D01*
X56355Y153095D01*
X56332Y153024D01*
X56305Y152955D01*
X56274Y152886D01*
X56240Y152820D01*
X56202Y152756D01*
X56161Y152693D01*
X56117Y152633D01*
X56070Y152575D01*
X56019Y152520D01*
X55966Y152468D01*
X55910Y152418D01*
X55852Y152372D01*
X55791Y152328D01*
X55728Y152288D01*
X55663Y152251D01*
X55597Y152218D01*
X55528Y152188D01*
X55458Y152162D01*
X55387Y152140D01*
X55315Y152121D01*
X55241Y152107D01*
X55168Y152096D01*
X55093Y152089D01*
X55019Y152086D01*
X54944Y152087D01*
X54870Y152092D01*
X54795Y152101D01*
X54722Y152114D01*
X54649Y152130D01*
X54577Y152151D01*
X54507Y152175D01*
X54437Y152203D01*
X54370Y152234D01*
X54304Y152269D01*
X54240Y152308D01*
X54178Y152350D01*
X54118Y152394D01*
X54061Y152443D01*
X54007Y152494D01*
X53955Y152547D01*
X53906Y152604D01*
X53860Y152663D01*
X53818Y152724D01*
X53779Y152788D01*
X53743Y152853D01*
X53710Y152920D01*
X53681Y152989D01*
X53656Y153060D01*
X53635Y153131D01*
X53617Y153204D01*
X53604Y153277D01*
X53594Y153351D01*
X53588Y153425D01*
X53586Y153500D01*
D14*
X6000Y143500D02*
X6000Y113500D01*
X32000Y158500D02*
X48500Y158500D01*
X48500Y106000D02*
X48500Y98500D01*
X32000Y98500D01*
X48500Y151000D02*
X48500Y158500D01*
D13*
X216786Y103500D02*
X216788Y103575D01*
X216794Y103649D01*
X216804Y103723D01*
X216817Y103796D01*
X216835Y103869D01*
X216856Y103940D01*
X216881Y104011D01*
X216910Y104080D01*
X216943Y104147D01*
X216979Y104212D01*
X217018Y104276D01*
X217060Y104337D01*
X217106Y104396D01*
X217155Y104453D01*
X217207Y104506D01*
X217261Y104557D01*
X217318Y104606D01*
X217378Y104650D01*
X217440Y104692D01*
X217504Y104731D01*
X217570Y104766D01*
X217637Y104797D01*
X217707Y104825D01*
X217777Y104849D01*
X217849Y104870D01*
X217922Y104886D01*
X217995Y104899D01*
X218070Y104908D01*
X218144Y104913D01*
X218219Y104914D01*
X218293Y104911D01*
X218368Y104904D01*
X218441Y104893D01*
X218515Y104879D01*
X218587Y104860D01*
X218658Y104838D01*
X218728Y104812D01*
X218797Y104782D01*
X218863Y104749D01*
X218928Y104712D01*
X218991Y104672D01*
X219052Y104628D01*
X219110Y104582D01*
X219166Y104532D01*
X219219Y104480D01*
X219270Y104425D01*
X219317Y104367D01*
X219361Y104307D01*
X219402Y104244D01*
X219440Y104180D01*
X219474Y104114D01*
X219505Y104045D01*
X219532Y103976D01*
X219555Y103905D01*
X219574Y103833D01*
X219590Y103760D01*
X219602Y103686D01*
X219610Y103612D01*
X219614Y103537D01*
X219614Y103463D01*
X219610Y103388D01*
X219602Y103314D01*
X219590Y103240D01*
X219574Y103167D01*
X219555Y103095D01*
X219532Y103024D01*
X219505Y102955D01*
X219474Y102886D01*
X219440Y102820D01*
X219402Y102756D01*
X219361Y102693D01*
X219317Y102633D01*
X219270Y102575D01*
X219219Y102520D01*
X219166Y102468D01*
X219110Y102418D01*
X219052Y102372D01*
X218991Y102328D01*
X218928Y102288D01*
X218863Y102251D01*
X218797Y102218D01*
X218728Y102188D01*
X218658Y102162D01*
X218587Y102140D01*
X218515Y102121D01*
X218441Y102107D01*
X218368Y102096D01*
X218293Y102089D01*
X218219Y102086D01*
X218144Y102087D01*
X218070Y102092D01*
X217995Y102101D01*
X217922Y102114D01*
X217849Y102130D01*
X217777Y102151D01*
X217707Y102175D01*
X217637Y102203D01*
X217570Y102234D01*
X217504Y102269D01*
X217440Y102308D01*
X217378Y102350D01*
X217318Y102394D01*
X217261Y102443D01*
X217207Y102494D01*
X217155Y102547D01*
X217106Y102604D01*
X217060Y102663D01*
X217018Y102724D01*
X216979Y102788D01*
X216943Y102853D01*
X216910Y102920D01*
X216881Y102989D01*
X216856Y103060D01*
X216835Y103131D01*
X216817Y103204D01*
X216804Y103277D01*
X216794Y103351D01*
X216788Y103425D01*
X216786Y103500D01*
D14*
X267200Y113500D02*
X267200Y143500D01*
X241200Y98500D02*
X224700Y98500D01*
X224700Y151000D02*
X224700Y158500D01*
X241200Y158500D01*
X224700Y106000D02*
X224700Y98500D01*
D12*
X60400Y27700D02*
X60400Y2300D01*
X60400Y27700D02*
X212800Y27700D01*
X212800Y2300D01*
X60400Y2300D01*
D15*
X209756Y216936D02*
X235156Y216936D01*
X209756Y196616D02*
X209656Y196618D01*
X209557Y196624D01*
X209457Y196634D01*
X209359Y196647D01*
X209260Y196665D01*
X209163Y196686D01*
X209067Y196711D01*
X208971Y196740D01*
X208877Y196773D01*
X208784Y196809D01*
X208693Y196849D01*
X208603Y196893D01*
X208515Y196940D01*
X208429Y196990D01*
X208345Y197044D01*
X208263Y197101D01*
X208184Y197161D01*
X208106Y197225D01*
X208032Y197291D01*
X207960Y197360D01*
X207891Y197432D01*
X207825Y197506D01*
X207761Y197584D01*
X207701Y197663D01*
X207644Y197745D01*
X207590Y197829D01*
X207540Y197915D01*
X207493Y198003D01*
X207449Y198093D01*
X207409Y198184D01*
X207373Y198277D01*
X207340Y198371D01*
X207311Y198467D01*
X207286Y198563D01*
X207265Y198660D01*
X207247Y198759D01*
X207234Y198857D01*
X207224Y198957D01*
X207218Y199056D01*
X207216Y199156D01*
X235156Y196616D02*
X235256Y196618D01*
X235355Y196624D01*
X235455Y196634D01*
X235553Y196647D01*
X235652Y196665D01*
X235749Y196686D01*
X235845Y196711D01*
X235941Y196740D01*
X236035Y196773D01*
X236128Y196809D01*
X236219Y196849D01*
X236309Y196893D01*
X236397Y196940D01*
X236483Y196990D01*
X236567Y197044D01*
X236649Y197101D01*
X236728Y197161D01*
X236806Y197225D01*
X236880Y197291D01*
X236952Y197360D01*
X237021Y197432D01*
X237087Y197506D01*
X237151Y197584D01*
X237211Y197663D01*
X237268Y197745D01*
X237322Y197829D01*
X237372Y197915D01*
X237419Y198003D01*
X237463Y198093D01*
X237503Y198184D01*
X237539Y198277D01*
X237572Y198371D01*
X237601Y198467D01*
X237626Y198563D01*
X237647Y198660D01*
X237665Y198759D01*
X237678Y198857D01*
X237688Y198957D01*
X237694Y199056D01*
X237696Y199156D01*
X237696Y214396D02*
X237694Y214496D01*
X237688Y214595D01*
X237678Y214695D01*
X237665Y214793D01*
X237647Y214892D01*
X237626Y214989D01*
X237601Y215085D01*
X237572Y215181D01*
X237539Y215275D01*
X237503Y215368D01*
X237463Y215459D01*
X237419Y215549D01*
X237372Y215637D01*
X237322Y215723D01*
X237268Y215807D01*
X237211Y215889D01*
X237151Y215968D01*
X237087Y216046D01*
X237021Y216120D01*
X236952Y216192D01*
X236880Y216261D01*
X236806Y216327D01*
X236728Y216391D01*
X236649Y216451D01*
X236567Y216508D01*
X236483Y216562D01*
X236397Y216612D01*
X236309Y216659D01*
X236219Y216703D01*
X236128Y216743D01*
X236035Y216779D01*
X235941Y216812D01*
X235845Y216841D01*
X235749Y216866D01*
X235652Y216887D01*
X235553Y216905D01*
X235455Y216918D01*
X235355Y216928D01*
X235256Y216934D01*
X235156Y216936D01*
X209756Y216936D02*
X209656Y216934D01*
X209557Y216928D01*
X209457Y216918D01*
X209359Y216905D01*
X209260Y216887D01*
X209163Y216866D01*
X209067Y216841D01*
X208971Y216812D01*
X208877Y216779D01*
X208784Y216743D01*
X208693Y216703D01*
X208603Y216659D01*
X208515Y216612D01*
X208429Y216562D01*
X208345Y216508D01*
X208263Y216451D01*
X208184Y216391D01*
X208106Y216327D01*
X208032Y216261D01*
X207960Y216192D01*
X207891Y216120D01*
X207825Y216046D01*
X207761Y215968D01*
X207701Y215889D01*
X207644Y215807D01*
X207590Y215723D01*
X207540Y215637D01*
X207493Y215549D01*
X207449Y215459D01*
X207409Y215368D01*
X207373Y215275D01*
X207340Y215181D01*
X207311Y215085D01*
X207286Y214989D01*
X207265Y214892D01*
X207247Y214793D01*
X207234Y214695D01*
X207224Y214595D01*
X207218Y214496D01*
X207216Y214396D01*
X207216Y199156D01*
X237696Y199156D02*
X237696Y214396D01*
X235156Y196616D02*
X209756Y196616D01*
X67314Y201356D02*
X67314Y209484D01*
X72902Y209484D01*
X95762Y209484D02*
X95762Y201356D01*
X95762Y209484D02*
X90174Y209484D01*
D12*
X157274Y211562D02*
X185214Y211562D01*
X185214Y198862D01*
X157274Y198862D01*
X157274Y211562D01*
X35766Y198648D02*
X7826Y198648D01*
X7826Y211348D01*
X35766Y211348D01*
X35766Y198648D01*
X65580Y165588D02*
X93520Y165588D01*
X93520Y152888D01*
X65580Y152888D01*
X65580Y165588D01*
X209316Y165656D02*
X209316Y193596D01*
X222016Y193596D01*
X222016Y165656D01*
X209316Y165656D01*
X224048Y165656D02*
X224048Y193596D01*
X236748Y193596D01*
X236748Y165656D01*
X224048Y165656D01*
X172486Y156004D02*
X172486Y183944D01*
X185186Y183944D01*
X185186Y156004D01*
X172486Y156004D01*
X93558Y180290D02*
X65618Y180290D01*
X93558Y180290D02*
X93558Y167590D01*
X65618Y167590D01*
X65618Y180290D01*
D16*
X149300Y240000D02*
X169150Y240000D01*
X169150Y327550D01*
X136600Y327550D01*
X79450Y398750D02*
X79450Y407800D01*
X111200Y407800D01*
X193750Y407800D02*
X193750Y398750D01*
X193750Y407800D02*
X162000Y407800D01*
X136600Y379700D02*
X136600Y327550D01*
D17*
X133772Y382000D02*
X133774Y382106D01*
X133780Y382211D01*
X133790Y382317D01*
X133804Y382421D01*
X133821Y382526D01*
X133843Y382629D01*
X133868Y382732D01*
X133898Y382834D01*
X133931Y382934D01*
X133967Y383033D01*
X134008Y383131D01*
X134052Y383227D01*
X134100Y383321D01*
X134151Y383414D01*
X134205Y383505D01*
X134263Y383593D01*
X134325Y383679D01*
X134389Y383763D01*
X134456Y383845D01*
X134527Y383924D01*
X134600Y384000D01*
X134676Y384073D01*
X134755Y384144D01*
X134837Y384211D01*
X134921Y384275D01*
X135007Y384337D01*
X135095Y384395D01*
X135186Y384449D01*
X135279Y384500D01*
X135373Y384548D01*
X135469Y384592D01*
X135567Y384633D01*
X135666Y384669D01*
X135766Y384702D01*
X135868Y384732D01*
X135971Y384757D01*
X136074Y384779D01*
X136179Y384796D01*
X136283Y384810D01*
X136389Y384820D01*
X136494Y384826D01*
X136600Y384828D01*
X136706Y384826D01*
X136811Y384820D01*
X136917Y384810D01*
X137021Y384796D01*
X137126Y384779D01*
X137229Y384757D01*
X137332Y384732D01*
X137434Y384702D01*
X137534Y384669D01*
X137633Y384633D01*
X137731Y384592D01*
X137827Y384548D01*
X137921Y384500D01*
X138014Y384449D01*
X138105Y384395D01*
X138193Y384337D01*
X138279Y384275D01*
X138363Y384211D01*
X138445Y384144D01*
X138524Y384073D01*
X138600Y384000D01*
X138673Y383924D01*
X138744Y383845D01*
X138811Y383763D01*
X138875Y383679D01*
X138937Y383593D01*
X138995Y383505D01*
X139049Y383414D01*
X139100Y383321D01*
X139148Y383227D01*
X139192Y383131D01*
X139233Y383033D01*
X139269Y382934D01*
X139302Y382834D01*
X139332Y382732D01*
X139357Y382629D01*
X139379Y382526D01*
X139396Y382421D01*
X139410Y382317D01*
X139420Y382211D01*
X139426Y382106D01*
X139428Y382000D01*
X139426Y381894D01*
X139420Y381789D01*
X139410Y381683D01*
X139396Y381579D01*
X139379Y381474D01*
X139357Y381371D01*
X139332Y381268D01*
X139302Y381166D01*
X139269Y381066D01*
X139233Y380967D01*
X139192Y380869D01*
X139148Y380773D01*
X139100Y380679D01*
X139049Y380586D01*
X138995Y380495D01*
X138937Y380407D01*
X138875Y380321D01*
X138811Y380237D01*
X138744Y380155D01*
X138673Y380076D01*
X138600Y380000D01*
X138524Y379927D01*
X138445Y379856D01*
X138363Y379789D01*
X138279Y379725D01*
X138193Y379663D01*
X138105Y379605D01*
X138014Y379551D01*
X137921Y379500D01*
X137827Y379452D01*
X137731Y379408D01*
X137633Y379367D01*
X137534Y379331D01*
X137434Y379298D01*
X137332Y379268D01*
X137229Y379243D01*
X137126Y379221D01*
X137021Y379204D01*
X136917Y379190D01*
X136811Y379180D01*
X136706Y379174D01*
X136600Y379172D01*
X136494Y379174D01*
X136389Y379180D01*
X136283Y379190D01*
X136179Y379204D01*
X136074Y379221D01*
X135971Y379243D01*
X135868Y379268D01*
X135766Y379298D01*
X135666Y379331D01*
X135567Y379367D01*
X135469Y379408D01*
X135373Y379452D01*
X135279Y379500D01*
X135186Y379551D01*
X135095Y379605D01*
X135007Y379663D01*
X134921Y379725D01*
X134837Y379789D01*
X134755Y379856D01*
X134676Y379927D01*
X134600Y380000D01*
X134527Y380076D01*
X134456Y380155D01*
X134389Y380237D01*
X134325Y380321D01*
X134263Y380407D01*
X134205Y380495D01*
X134151Y380586D01*
X134100Y380679D01*
X134052Y380773D01*
X134008Y380869D01*
X133967Y380967D01*
X133931Y381066D01*
X133898Y381166D01*
X133868Y381268D01*
X133843Y381371D01*
X133821Y381474D01*
X133804Y381579D01*
X133790Y381683D01*
X133780Y381789D01*
X133774Y381894D01*
X133772Y382000D01*
X110600Y408000D02*
X110602Y408089D01*
X110608Y408178D01*
X110618Y408267D01*
X110632Y408355D01*
X110649Y408442D01*
X110671Y408528D01*
X110697Y408614D01*
X110726Y408698D01*
X110759Y408781D01*
X110795Y408862D01*
X110836Y408942D01*
X110879Y409019D01*
X110926Y409095D01*
X110977Y409168D01*
X111030Y409239D01*
X111087Y409308D01*
X111147Y409374D01*
X111210Y409438D01*
X111275Y409498D01*
X111343Y409556D01*
X111414Y409610D01*
X111487Y409661D01*
X111562Y409709D01*
X111639Y409754D01*
X111718Y409795D01*
X111799Y409832D01*
X111881Y409866D01*
X111965Y409897D01*
X112050Y409923D01*
X112136Y409946D01*
X112223Y409964D01*
X112311Y409979D01*
X112400Y409990D01*
X112489Y409997D01*
X112578Y410000D01*
X112667Y409999D01*
X112756Y409994D01*
X112844Y409985D01*
X112933Y409972D01*
X113020Y409955D01*
X113107Y409935D01*
X113193Y409910D01*
X113277Y409882D01*
X113360Y409850D01*
X113442Y409814D01*
X113522Y409775D01*
X113600Y409732D01*
X113676Y409686D01*
X113750Y409636D01*
X113822Y409583D01*
X113891Y409527D01*
X113958Y409468D01*
X114022Y409406D01*
X114083Y409342D01*
X114142Y409274D01*
X114197Y409204D01*
X114249Y409132D01*
X114298Y409057D01*
X114343Y408981D01*
X114385Y408902D01*
X114423Y408822D01*
X114458Y408740D01*
X114489Y408656D01*
X114517Y408571D01*
X114540Y408485D01*
X114560Y408398D01*
X114576Y408311D01*
X114588Y408222D01*
X114596Y408134D01*
X114600Y408045D01*
X114600Y407955D01*
X114596Y407866D01*
X114588Y407778D01*
X114576Y407689D01*
X114560Y407602D01*
X114540Y407515D01*
X114517Y407429D01*
X114489Y407344D01*
X114458Y407260D01*
X114423Y407178D01*
X114385Y407098D01*
X114343Y407019D01*
X114298Y406943D01*
X114249Y406868D01*
X114197Y406796D01*
X114142Y406726D01*
X114083Y406658D01*
X114022Y406594D01*
X113958Y406532D01*
X113891Y406473D01*
X113822Y406417D01*
X113750Y406364D01*
X113676Y406314D01*
X113600Y406268D01*
X113522Y406225D01*
X113442Y406186D01*
X113360Y406150D01*
X113277Y406118D01*
X113193Y406090D01*
X113107Y406065D01*
X113020Y406045D01*
X112933Y406028D01*
X112844Y406015D01*
X112756Y406006D01*
X112667Y406001D01*
X112578Y406000D01*
X112489Y406003D01*
X112400Y406010D01*
X112311Y406021D01*
X112223Y406036D01*
X112136Y406054D01*
X112050Y406077D01*
X111965Y406103D01*
X111881Y406134D01*
X111799Y406168D01*
X111718Y406205D01*
X111639Y406246D01*
X111562Y406291D01*
X111487Y406339D01*
X111414Y406390D01*
X111343Y406444D01*
X111275Y406502D01*
X111210Y406562D01*
X111147Y406626D01*
X111087Y406692D01*
X111030Y406761D01*
X110977Y406832D01*
X110926Y406905D01*
X110879Y406981D01*
X110836Y407058D01*
X110795Y407138D01*
X110759Y407219D01*
X110726Y407302D01*
X110697Y407386D01*
X110671Y407472D01*
X110649Y407558D01*
X110632Y407645D01*
X110618Y407733D01*
X110608Y407822D01*
X110602Y407911D01*
X110600Y408000D01*
X159364Y408000D02*
X159366Y408094D01*
X159372Y408188D01*
X159382Y408282D01*
X159396Y408375D01*
X159414Y408468D01*
X159435Y408560D01*
X159461Y408650D01*
X159490Y408740D01*
X159523Y408828D01*
X159560Y408915D01*
X159600Y409000D01*
X159644Y409084D01*
X159692Y409165D01*
X159742Y409245D01*
X159797Y409322D01*
X159854Y409397D01*
X159914Y409469D01*
X159978Y409539D01*
X160044Y409606D01*
X160113Y409670D01*
X160185Y409731D01*
X160259Y409789D01*
X160336Y409844D01*
X160415Y409896D01*
X160496Y409944D01*
X160579Y409989D01*
X160663Y410030D01*
X160750Y410068D01*
X160838Y410102D01*
X160927Y410132D01*
X161017Y410159D01*
X161109Y410181D01*
X161201Y410200D01*
X161295Y410215D01*
X161388Y410226D01*
X161482Y410233D01*
X161576Y410236D01*
X161671Y410235D01*
X161765Y410230D01*
X161859Y410221D01*
X161952Y410208D01*
X162045Y410191D01*
X162137Y410171D01*
X162228Y410146D01*
X162318Y410118D01*
X162406Y410086D01*
X162494Y410050D01*
X162579Y410010D01*
X162663Y409967D01*
X162745Y409921D01*
X162825Y409871D01*
X162903Y409817D01*
X162978Y409761D01*
X163051Y409701D01*
X163122Y409638D01*
X163189Y409573D01*
X163254Y409504D01*
X163316Y409433D01*
X163375Y409360D01*
X163431Y409284D01*
X163483Y409205D01*
X163532Y409125D01*
X163578Y409042D01*
X163620Y408958D01*
X163659Y408872D01*
X163694Y408784D01*
X163725Y408695D01*
X163753Y408605D01*
X163776Y408514D01*
X163796Y408422D01*
X163812Y408329D01*
X163824Y408235D01*
X163832Y408141D01*
X163836Y408047D01*
X163836Y407953D01*
X163832Y407859D01*
X163824Y407765D01*
X163812Y407671D01*
X163796Y407578D01*
X163776Y407486D01*
X163753Y407395D01*
X163725Y407305D01*
X163694Y407216D01*
X163659Y407128D01*
X163620Y407042D01*
X163578Y406958D01*
X163532Y406875D01*
X163483Y406795D01*
X163431Y406716D01*
X163375Y406640D01*
X163316Y406567D01*
X163254Y406496D01*
X163189Y406427D01*
X163122Y406362D01*
X163051Y406299D01*
X162978Y406239D01*
X162903Y406183D01*
X162825Y406129D01*
X162745Y406079D01*
X162663Y406033D01*
X162579Y405990D01*
X162494Y405950D01*
X162406Y405914D01*
X162318Y405882D01*
X162228Y405854D01*
X162137Y405829D01*
X162045Y405809D01*
X161952Y405792D01*
X161859Y405779D01*
X161765Y405770D01*
X161671Y405765D01*
X161576Y405764D01*
X161482Y405767D01*
X161388Y405774D01*
X161295Y405785D01*
X161201Y405800D01*
X161109Y405819D01*
X161017Y405841D01*
X160927Y405868D01*
X160838Y405898D01*
X160750Y405932D01*
X160663Y405970D01*
X160579Y406011D01*
X160496Y406056D01*
X160415Y406104D01*
X160336Y406156D01*
X160259Y406211D01*
X160185Y406269D01*
X160113Y406330D01*
X160044Y406394D01*
X159978Y406461D01*
X159914Y406531D01*
X159854Y406603D01*
X159797Y406678D01*
X159742Y406755D01*
X159692Y406835D01*
X159644Y406916D01*
X159600Y407000D01*
X159560Y407085D01*
X159523Y407172D01*
X159490Y407260D01*
X159461Y407350D01*
X159435Y407440D01*
X159414Y407532D01*
X159396Y407625D01*
X159382Y407718D01*
X159372Y407812D01*
X159366Y407906D01*
X159364Y408000D01*
D16*
X136600Y382240D02*
X118280Y413150D01*
X58600Y422000D02*
X58600Y226000D01*
X58600Y422000D02*
X214600Y422000D01*
X214600Y226000D01*
X58600Y226000D01*
X76600Y275000D02*
X76600Y285000D01*
X196600Y285000D01*
X196600Y275000D01*
D17*
X131600Y275000D02*
X131600Y295000D01*
X141600Y295000D01*
X141600Y275000D01*
X131600Y275000D01*
D18*
X110500Y147700D02*
X110500Y102100D01*
X110500Y147700D02*
X110500Y154700D01*
X162500Y154700D02*
X162500Y147700D01*
X162500Y102100D01*
X162500Y147700D02*
X110500Y147700D01*
D19*
X155550Y162301D03*
X142850Y162301D03*
X130150Y162301D03*
X117450Y162301D03*
X117450Y94500D03*
X130150Y94500D03*
X142850Y94500D03*
X155550Y94500D03*
M02*
