G04 EAGLE Gerber RS-274X export*
G75*
%MOMM*%
%FSLAX34Y34*%
%LPD*%
%AMOC8*
5,1,8,0,0,1.08239X$1,22.5*%
G01*
%ADD10C,0.222250*%
%ADD11C,0.158750*%
%ADD12C,0.200000*%
%ADD13R,1.350000X0.600000*%
%ADD14R,2.000000X1.200000*%
%ADD15R,1.000000X1.100000*%
%ADD16R,0.600000X2.286000*%


D10*
X182516Y83282D02*
X182516Y76614D01*
X175848Y76614D01*
X175848Y83282D01*
X182516Y83282D01*
X182516Y78726D02*
X175848Y78726D01*
X175848Y80838D02*
X182516Y80838D01*
X182516Y82950D02*
X175848Y82950D01*
X182516Y91854D02*
X182516Y98522D01*
X182516Y91854D02*
X175848Y91854D01*
X175848Y98522D01*
X182516Y98522D01*
X182516Y93966D02*
X175848Y93966D01*
X175848Y96078D02*
X182516Y96078D01*
X182516Y98190D02*
X175848Y98190D01*
D11*
X30496Y192670D02*
X25734Y192670D01*
X30496Y192670D02*
X30496Y186258D01*
X25734Y186258D01*
X25734Y192670D01*
X25734Y187767D02*
X30496Y187767D01*
X30496Y189276D02*
X25734Y189276D01*
X25734Y190785D02*
X30496Y190785D01*
X30496Y192294D02*
X25734Y192294D01*
X16526Y192670D02*
X11764Y192670D01*
X16526Y192670D02*
X16526Y186258D01*
X11764Y186258D01*
X11764Y192670D01*
X11764Y187767D02*
X16526Y187767D01*
X16526Y189276D02*
X11764Y189276D01*
X11764Y190785D02*
X16526Y190785D01*
X16526Y192294D02*
X11764Y192294D01*
D12*
X120192Y202212D02*
X128192Y202212D01*
X120192Y202212D02*
X120192Y208212D01*
X128192Y208212D01*
X128192Y202212D01*
X128192Y204112D02*
X120192Y204112D01*
X120192Y206012D02*
X128192Y206012D01*
X128192Y207912D02*
X120192Y207912D01*
X144192Y202212D02*
X152192Y202212D01*
X144192Y202212D02*
X144192Y208212D01*
X152192Y208212D01*
X152192Y202212D01*
X152192Y204112D02*
X144192Y204112D01*
X144192Y206012D02*
X152192Y206012D01*
X152192Y207912D02*
X144192Y207912D01*
D13*
X52000Y143500D03*
X52000Y133500D03*
X52000Y123500D03*
X52000Y113500D03*
D14*
X15250Y100500D03*
X15250Y156500D03*
D13*
X221200Y113500D03*
X221200Y123500D03*
X221200Y133500D03*
X221200Y143500D03*
D14*
X257950Y156500D03*
X257950Y100500D03*
D15*
X72038Y191880D03*
X91038Y191880D03*
X81538Y213880D03*
D10*
X160290Y201878D02*
X166958Y201878D01*
X160290Y201878D02*
X160290Y208546D01*
X166958Y208546D01*
X166958Y201878D01*
X166958Y203990D02*
X160290Y203990D01*
X160290Y206102D02*
X166958Y206102D01*
X166958Y208214D02*
X160290Y208214D01*
X175530Y201878D02*
X182198Y201878D01*
X175530Y201878D02*
X175530Y208546D01*
X182198Y208546D01*
X182198Y201878D01*
X182198Y203990D02*
X175530Y203990D01*
X175530Y206102D02*
X182198Y206102D01*
X182198Y208214D02*
X175530Y208214D01*
X32750Y208332D02*
X26082Y208332D01*
X32750Y208332D02*
X32750Y201664D01*
X26082Y201664D01*
X26082Y208332D01*
X26082Y203776D02*
X32750Y203776D01*
X32750Y205888D02*
X26082Y205888D01*
X26082Y208000D02*
X32750Y208000D01*
X17510Y208332D02*
X10842Y208332D01*
X17510Y208332D02*
X17510Y201664D01*
X10842Y201664D01*
X10842Y208332D01*
X10842Y203776D02*
X17510Y203776D01*
X17510Y205888D02*
X10842Y205888D01*
X10842Y208000D02*
X17510Y208000D01*
X68596Y155904D02*
X75264Y155904D01*
X68596Y155904D02*
X68596Y162572D01*
X75264Y162572D01*
X75264Y155904D01*
X75264Y158016D02*
X68596Y158016D01*
X68596Y160128D02*
X75264Y160128D01*
X75264Y162240D02*
X68596Y162240D01*
X83836Y155904D02*
X90504Y155904D01*
X83836Y155904D02*
X83836Y162572D01*
X90504Y162572D01*
X90504Y155904D01*
X90504Y158016D02*
X83836Y158016D01*
X83836Y160128D02*
X90504Y160128D01*
X90504Y162240D02*
X83836Y162240D01*
X219000Y168672D02*
X219000Y175340D01*
X219000Y168672D02*
X212332Y168672D01*
X212332Y175340D01*
X219000Y175340D01*
X219000Y170784D02*
X212332Y170784D01*
X212332Y172896D02*
X219000Y172896D01*
X219000Y175008D02*
X212332Y175008D01*
X219000Y183912D02*
X219000Y190580D01*
X219000Y183912D02*
X212332Y183912D01*
X212332Y190580D01*
X219000Y190580D01*
X219000Y186024D02*
X212332Y186024D01*
X212332Y188136D02*
X219000Y188136D01*
X219000Y190248D02*
X212332Y190248D01*
X233732Y175340D02*
X233732Y168672D01*
X227064Y168672D01*
X227064Y175340D01*
X233732Y175340D01*
X233732Y170784D02*
X227064Y170784D01*
X227064Y172896D02*
X233732Y172896D01*
X233732Y175008D02*
X227064Y175008D01*
X233732Y183912D02*
X233732Y190580D01*
X233732Y183912D02*
X227064Y183912D01*
X227064Y190580D01*
X233732Y190580D01*
X233732Y186024D02*
X227064Y186024D01*
X227064Y188136D02*
X233732Y188136D01*
X233732Y190248D02*
X227064Y190248D01*
X182170Y165688D02*
X182170Y159020D01*
X175502Y159020D01*
X175502Y165688D01*
X182170Y165688D01*
X182170Y161132D02*
X175502Y161132D01*
X175502Y163244D02*
X182170Y163244D01*
X182170Y165356D02*
X175502Y165356D01*
X182170Y174260D02*
X182170Y180928D01*
X182170Y174260D02*
X175502Y174260D01*
X175502Y180928D01*
X182170Y180928D01*
X182170Y176372D02*
X175502Y176372D01*
X175502Y178484D02*
X182170Y178484D01*
X182170Y180596D02*
X175502Y180596D01*
X75302Y170606D02*
X68634Y170606D01*
X68634Y177274D01*
X75302Y177274D01*
X75302Y170606D01*
X75302Y172718D02*
X68634Y172718D01*
X68634Y174830D02*
X75302Y174830D01*
X75302Y176942D02*
X68634Y176942D01*
X83874Y170606D02*
X90542Y170606D01*
X83874Y170606D02*
X83874Y177274D01*
X90542Y177274D01*
X90542Y170606D01*
X90542Y172718D02*
X83874Y172718D01*
X83874Y174830D02*
X90542Y174830D01*
X90542Y176942D02*
X83874Y176942D01*
D16*
X142850Y161700D03*
X142850Y95100D03*
X155550Y161700D03*
X130150Y161700D03*
X117450Y161700D03*
X155550Y95100D03*
X130150Y95100D03*
X117450Y95100D03*
M02*
