M48
;GenerationSoftware,Autodesk,EAGLE,9.1.1*%
;CreationDate,2018-09-11T06:35:48Z*%
FMAT,2
ICI,OFF
METRIC,TZ,000.000
T6C0.305
T5C0.889
T4C1.300
T3C1.400
T2C1.500
T1C3.000
%
G90
M71
T1
X3500Y6000
X23820Y6000
T2
X13660Y24000
X7660Y38200
X19660Y38200
T3
X8580Y48000
X13660Y48000
X18740Y48000
T4
X7660Y26000
X19660Y26000
T5
X7310Y1500
X9850Y1500
X12390Y1500
X14930Y1500
X17470Y1500
X20010Y1500
T6
X11125Y914
X18180Y13341
X11760Y13335
X10109Y11328
X14300Y11328
X17918Y11162
X9850Y6685
X18948Y17780
X20010Y10470
X20015Y16231
X13005Y7442
M30